<svg width="1280" height="720" xmlns="http://www.w3.org/2000/svg" xmlns:xlink="http://www.w3.org/1999/xlink" overflow="hidden"><defs><clipPath id="clip0"><rect x="0" y="0" width="1280" height="720"/></clipPath><clipPath id="clip1"><rect x="0" y="0" width="672" height="537"/></clipPath><clipPath id="clip2"><rect x="0" y="0" width="672" height="538"/></clipPath><clipPath id="clip3"><rect x="669" y="9" width="606" height="528"/></clipPath><clipPath id="clip4"><rect x="669" y="9" width="606" height="528"/></clipPath><clipPath id="clip5"><rect x="669" y="9" width="705" height="528"/></clipPath><clipPath id="clip6"><rect x="669" y="9" width="705" height="528"/></clipPath><clipPath id="clip7"><rect x="491" y="513" width="349" height="48"/></clipPath><clipPath id="clip8"><rect x="491" y="513" width="349" height="48"/></clipPath><clipPath id="clip9"><rect x="85" y="513" width="755" height="511"/></clipPath></defs><g clip-path="url(#clip0)"><rect x="0" y="0" width="1280" height="720" fill="#FFFFFF"/><g clip-path="url(#clip1)"><g clip-path="url(#clip2)"><g><path d="M0 0 672 0 672 576 0 576Z" fill="#FFFFFF" transform="matrix(1 0 0 1.00011 0 -39.0628)"/><g><path d="M0 0 672 0 672 576 0 576Z" stroke="#FFFFFF" stroke-width="1.42667" stroke-linecap="round" stroke-linejoin="round" stroke-miterlimit="10" fill="#FFFFFF" transform="matrix(1 0 0 1.00011 0 -39.0628)"/></g><g><path d="M71.0533 59.5733 664.693 59.5733 664.693 522.64 71.0533 522.64Z" fill="#FFFFFF" transform="matrix(1 0 0 1.00011 0 -39.0628)"/><path d="M79.4133 519.227 163.027 520.693 246.64 458.92 330.253 402.6 413.853 398.347 497.467 415.48 581.08 390.453 664.693 379.373" stroke="#0072B2" stroke-width="2.84" stroke-linejoin="round" stroke-miterlimit="10" fill="none" transform="matrix(1 0 0 1.00011 0 -39.0628)"/><path d="M79.4133 472.56 163.027 461.16 246.64 401.08 330.253 385.373 413.853 350.053 497.467 342.08 581.08 357.173 664.693 400.747" stroke="#56B4E9" stroke-width="2.84" stroke-linejoin="round" stroke-miterlimit="10" fill="none" transform="matrix(1 0 0 1.00011 0 -39.0628)"/><path d="M79.4133 113.067 163.027 122.987 246.64 244.84 330.253 316.88 413.853 356.453 497.467 347.293 581.08 357.213 664.693 324.72" stroke="#E69F00" stroke-width="2.84" stroke-linejoin="round" stroke-miterlimit="10" fill="none" transform="matrix(1 0 0 1.00011 0 -39.0628)"/><path d="M79.4133 519.227 163.027 520.693 246.64 458.92 330.253 402.6 413.853 398.347 497.467 415.48 581.08 390.453 664.693 379.373" stroke="#000000" stroke-width="5.64" stroke-linejoin="round" stroke-miterlimit="10" fill="none" transform="matrix(1 0 0 1.00011 0 -39.0628)"/><path d="M79.4133 519.227 163.027 520.693 246.64 458.92 330.253 402.6 413.853 398.347 497.467 415.48 581.08 390.453 664.693 379.373" stroke="#0072B2" stroke-width="3.13333" stroke-linejoin="round" stroke-miterlimit="10" fill="none" transform="matrix(1 0 0 1.00011 0 -39.0628)"/><path d="M79.4133 472.56 163.027 461.16 246.64 401.08 330.253 385.373 413.853 350.053 497.467 342.08 581.08 357.173 664.693 400.747" stroke="#000000" stroke-width="5.64" stroke-linejoin="round" stroke-miterlimit="10" fill="none" transform="matrix(1 0 0 1.00011 0 -39.0628)"/><path d="M79.4133 472.56 163.027 461.16 246.64 401.08 330.253 385.373 413.853 350.053 497.467 342.08 581.08 357.173 664.693 400.747" stroke="#56B4E9" stroke-width="3.13333" stroke-linejoin="round" stroke-miterlimit="10" fill="none" transform="matrix(1 0 0 1.00011 0 -39.0628)"/><path d="M79.4133 113.067 163.027 122.987 246.64 244.84 330.253 316.88 413.853 356.453 497.467 347.293 581.08 357.213 664.693 324.72" stroke="#000000" stroke-width="5.64" stroke-linejoin="round" stroke-miterlimit="10" fill="none" transform="matrix(1 0 0 1.00011 0 -39.0628)"/><path d="M79.4133 113.067 163.027 122.987 246.64 244.84 330.253 316.88 413.853 356.453 497.467 347.293 581.08 357.213 664.693 324.72" stroke="#E69F00" stroke-width="3.13333" stroke-linejoin="round" stroke-miterlimit="10" fill="none" transform="matrix(1 0 0 1.00011 0 -39.0628)"/></g><g><path d="M71.0533 522.64 71.0533 59.5733" stroke="#000000" stroke-width="1.42667" stroke-linecap="square" stroke-linejoin="round" stroke-miterlimit="10" fill="none" transform="matrix(1 0 0 1.00011 0 -39.0628)"/><text font-family="Arial,Arial_MSFontService,sans-serif" font-weight="400" font-size="13" transform="matrix(1.33333 0 0 1.33348 30.7443 490)">0</text><text font-family="Arial,Arial_MSFontService,sans-serif" font-weight="400" font-size="13" transform="matrix(1.33333 0 0 1.33348 40.3843 490)">.</text><text font-family="Arial,Arial_MSFontService,sans-serif" font-weight="400" font-size="13" transform="matrix(1.33333 0 0 1.33348 45.2001 490)">00</text><text font-family="Arial,Arial_MSFontService,sans-serif" font-weight="400" font-size="13" transform="matrix(1.33333 0 0 1.33348 30.7443 374)">0</text><text font-family="Arial,Arial_MSFontService,sans-serif" font-weight="400" font-size="13" transform="matrix(1.33333 0 0 1.33348 40.3843 374)">.</text><text font-family="Arial,Arial_MSFontService,sans-serif" font-weight="400" font-size="13" transform="matrix(1.33333 0 0 1.33348 45.2001 374)">25</text><text font-family="Arial,Arial_MSFontService,sans-serif" font-weight="400" font-size="13" transform="matrix(1.33333 0 0 1.33348 30.7443 258)">0</text><text font-family="Arial,Arial_MSFontService,sans-serif" font-weight="400" font-size="13" transform="matrix(1.33333 0 0 1.33348 40.3843 258)">.</text><text font-family="Arial,Arial_MSFontService,sans-serif" font-weight="400" font-size="13" transform="matrix(1.33333 0 0 1.33348 45.2001 258)">50</text><text font-family="Arial,Arial_MSFontService,sans-serif" font-weight="400" font-size="13" transform="matrix(1.33333 0 0 1.33348 30.7443 143)">0</text><text font-family="Arial,Arial_MSFontService,sans-serif" font-weight="400" font-size="13" transform="matrix(1.33333 0 0 1.33348 40.3843 143)">.</text><text font-family="Arial,Arial_MSFontService,sans-serif" font-weight="400" font-size="13" transform="matrix(1.33333 0 0 1.33348 45.2001 143)">75</text><text font-family="Arial,Arial_MSFontService,sans-serif" font-weight="400" font-size="13" transform="matrix(1.33333 0 0 1.33348 30.7443 27)">1</text><text font-family="Arial,Arial_MSFontService,sans-serif" font-weight="400" font-size="13" transform="matrix(1.33333 0 0 1.33348 40.3843 27)">.</text><text font-family="Arial,Arial_MSFontService,sans-serif" font-weight="400" font-size="13" transform="matrix(1.33333 0 0 1.33348 45.2001 27)">00</text><path d="M67.4 522.64 71.0533 522.64" stroke="#000000" stroke-width="1.42667" stroke-linejoin="round" stroke-miterlimit="10" fill="none" transform="matrix(1 0 0 1.00011 0 -39.0628)"/><path d="M67.4 406.867 71.0533 406.867" stroke="#000000" stroke-width="1.42667" stroke-linejoin="round" stroke-miterlimit="10" fill="none" transform="matrix(1 0 0 1.00011 0 -39.0628)"/><path d="M67.4 291.107 71.0533 291.107" stroke="#000000" stroke-width="1.42667" stroke-linejoin="round" stroke-miterlimit="10" fill="none" transform="matrix(1 0 0 1.00011 0 -39.0628)"/><path d="M67.4 175.333 71.0533 175.333" stroke="#000000" stroke-width="1.42667" stroke-linejoin="round" stroke-miterlimit="10" fill="none" transform="matrix(1 0 0 1.00011 0 -39.0628)"/><path d="M67.4 59.5733 71.0533 59.5733" stroke="#000000" stroke-width="1.42667" stroke-linejoin="round" stroke-miterlimit="10" fill="none" transform="matrix(1 0 0 1.00011 0 -39.0628)"/><path d="M71.0533 522.64 664.693 522.64" stroke="#000000" stroke-width="1.42667" stroke-linecap="square" stroke-linejoin="round" stroke-miterlimit="10" fill="none" transform="matrix(1 0 0 1.00011 0 -39.0628)"/><path d="M79.4133 526.293 79.4133 522.64" stroke="#000000" stroke-width="1.42667" stroke-linejoin="round" stroke-miterlimit="10" fill="none" transform="matrix(1 0 0 1.00011 0 -39.0628)"/><path d="M163.027 526.293 163.027 522.64" stroke="#000000" stroke-width="1.42667" stroke-linejoin="round" stroke-miterlimit="10" fill="none" transform="matrix(1 0 0 1.00011 0 -39.0628)"/><path d="M246.64 526.293 246.64 522.64" stroke="#000000" stroke-width="1.42667" stroke-linejoin="round" stroke-miterlimit="10" fill="none" transform="matrix(1 0 0 1.00011 0 -39.0628)"/><path d="M330.253 526.293 330.253 522.64" stroke="#000000" stroke-width="1.42667" stroke-linejoin="round" stroke-miterlimit="10" fill="none" transform="matrix(1 0 0 1.00011 0 -39.0628)"/><path d="M413.853 526.293 413.853 522.64" stroke="#000000" stroke-width="1.42667" stroke-linejoin="round" stroke-miterlimit="10" fill="none" transform="matrix(1 0 0 1.00011 0 -39.0628)"/><path d="M497.467 526.293 497.467 522.64" stroke="#000000" stroke-width="1.42667" stroke-linejoin="round" stroke-miterlimit="10" fill="none" transform="matrix(1 0 0 1.00011 0 -39.0628)"/><path d="M581.08 526.293 581.08 522.64" stroke="#000000" stroke-width="1.42667" stroke-linejoin="round" stroke-miterlimit="10" fill="none" transform="matrix(1 0 0 1.00011 0 -39.0628)"/><path d="M664.693 526.293 664.693 522.64" stroke="#000000" stroke-width="1.42667" stroke-linejoin="round" stroke-miterlimit="10" fill="none" transform="matrix(1 0 0 1.00011 0 -39.0628)"/><text font-family="Arial,Arial_MSFontService,sans-serif" font-weight="400" font-size="13" transform="matrix(1.33333 0 0 1.33348 74.5933 503)">8</text><text font-family="Arial,Arial_MSFontService,sans-serif" font-weight="400" font-size="13" transform="matrix(1.33333 0 0 1.33348 158.207 503)">9</text><text font-family="Arial,Arial_MSFontService,sans-serif" font-weight="400" font-size="13" transform="matrix(1.33333 0 0 1.33348 237 503)">10</text><text font-family="Arial,Arial_MSFontService,sans-serif" font-weight="400" font-size="13" transform="matrix(1.33333 0 0 1.33348 321.257 503)">11</text><text font-family="Arial,Arial_MSFontService,sans-serif" font-weight="400" font-size="13" transform="matrix(1.33333 0 0 1.33348 404.213 503)">12</text><text font-family="Arial,Arial_MSFontService,sans-serif" font-weight="400" font-size="13" transform="matrix(1.33333 0 0 1.33348 492.647 503)">1</text><text font-family="Arial,Arial_MSFontService,sans-serif" font-weight="400" font-size="13" transform="matrix(1.33333 0 0 1.33348 576.26 503)">2</text><text font-family="Arial,Arial_MSFontService,sans-serif" font-weight="400" font-size="13" transform="matrix(1.33333 0 0 1.33348 659.873 503)">3</text><text font-family="Arial,Arial_MSFontService,sans-serif" font-weight="400" font-size="16" transform="matrix(1.33333 0 0 1.33348 338.221 525)">Month</text><text font-family="Arial,Arial_MSFontService,sans-serif" font-weight="400" font-size="16" transform="matrix(8.16431e-17 -1.33348 1.33333 8.1652e-17 22.5733 339)">Porportion of days</text><path d="M276.893 7.30667 664.693 7.30667 664.693 44.96 276.893 44.96Z" fill="#FFFFFF" transform="matrix(1 0 0 1.00011 0 -39.0628)"/><text font-family="Arial,Arial_MSFontService,sans-serif" font-weight="400" font-size="16" transform="matrix(1.33333 0 0 1.33348 284.2 -5)">Decision</text><path d="M373.387 14.6133 396.427 14.6133 396.427 37.6533 373.387 37.6533Z" fill="#FFFFFF" transform="matrix(1 0 0 1.00011 0 -39.0628)"/><path d="M375.693 26.1333 394.12 26.1333" stroke="#0072B2" stroke-width="2.84" stroke-linejoin="round" stroke-miterlimit="10" fill="none" transform="matrix(1 0 0 1.00011 0 -39.0628)"/><path d="M375.693 26.1333 394.12 26.1333" stroke="#000000" stroke-width="5.97333" stroke-linejoin="round" stroke-miterlimit="10" fill="none" transform="matrix(1 0 0 1.00011 0 -39.0628)"/><path d="M375.693 26.1333 394.12 26.1333" stroke="#0072B2" stroke-width="3.13333" stroke-linejoin="round" stroke-miterlimit="10" fill="none" transform="matrix(1 0 0 1.00011 0 -39.0628)"/><path d="M475.347 14.6133 498.387 14.6133 498.387 37.6533 475.347 37.6533Z" fill="#FFFFFF" transform="matrix(1 0 0 1.00011 0 -39.0628)"/><path d="M477.653 26.1333 496.08 26.1333" stroke="#56B4E9" stroke-width="2.84" stroke-linejoin="round" stroke-miterlimit="10" fill="none" transform="matrix(1 0 0 1.00011 0 -39.0628)"/><path d="M477.653 26.1333 496.08 26.1333" stroke="#000000" stroke-width="5.97333" stroke-linejoin="round" stroke-miterlimit="10" fill="none" transform="matrix(1 0 0 1.00011 0 -39.0628)"/><path d="M477.653 26.1333 496.08 26.1333" stroke="#56B4E9" stroke-width="3.13333" stroke-linejoin="round" stroke-miterlimit="10" fill="none" transform="matrix(1 0 0 1.00011 0 -39.0628)"/><path d="M559.667 14.6133 582.707 14.6133 582.707 37.6533 559.667 37.6533Z" fill="#FFFFFF" transform="matrix(1 0 0 1.00011 0 -39.0628)"/><path d="M561.973 26.1333 580.4 26.1333" stroke="#E69F00" stroke-width="2.84" stroke-linejoin="round" stroke-miterlimit="10" fill="none" transform="matrix(1 0 0 1.00011 0 -39.0628)"/><path d="M561.973 26.1333 580.4 26.1333" stroke="#000000" stroke-width="5.97333" stroke-linejoin="round" stroke-miterlimit="10" fill="none" transform="matrix(1 0 0 1.00011 0 -39.0628)"/><path d="M561.973 26.1333 580.4 26.1333" stroke="#E69F00" stroke-width="3.13333" stroke-linejoin="round" stroke-miterlimit="10" fill="none" transform="matrix(1 0 0 1.00011 0 -39.0628)"/><text font-family="Arial,Arial_MSFontService,sans-serif" font-weight="400" font-size="14" transform="matrix(1.33333 0 0 1.33348 403.733 -6)">Hunting</text><text font-family="Arial,Arial_MSFontService,sans-serif" font-weight="400" font-size="14" transform="matrix(1.33333 0 0 1.33348 505.693 -6)">Other</text><text font-family="Arial,Arial_MSFontService,sans-serif" font-weight="400" font-size="14" transform="matrix(1.33333 0 0 1.33348 590.013 -6)">Territory</text></g></g></g></g><g clip-path="url(#clip3)"><g clip-path="url(#clip4)"><g clip-path="url(#clip5)"><path d="M0 0 704 0 704 528 0 528Z" fill="#FFFFFF" transform="matrix(1.00062 0 0 1 669 9)"/><g clip-path="url(#clip6)"><path d="M-7.82222e-14 0 704 0 704 528 0 528Z" stroke="#FFFFFF" stroke-width="1.30778" stroke-linecap="round" stroke-linejoin="round" stroke-miterlimit="10" fill="#FFFFFF" transform="matrix(1.00062 0 0 1 669 9)"/></g><g><path d="M65.1322 34.4056 331.161 34.4056 331.161 239.543 65.1322 239.543Z" fill="#FFFFFF" transform="matrix(1.00062 0 0 1 669 9)"/><path d="M77.22 239.543 85.2867 239.543 93.3411 239.543 101.408 239.543 109.474 239.543 117.529 239.543 125.596 239.543 133.65 239.543 141.717 239.543 149.771 239.543 157.838 239.543 165.904 239.543 173.959 239.543 182.026 239.543 190.08 239.543 198.147 239.543 206.213 229.289 214.268 239.543 222.334 239.543 230.389 219.034 238.456 239.543 246.51 239.543 254.577 239.543 262.643 239.543 270.698 239.543 278.764 219.034 286.819 239.543 294.886 239.543 302.952 239.543 311.007 239.543 319.073 239.543" stroke="#0072B2" stroke-width="2.60333" stroke-linejoin="round" stroke-miterlimit="10" fill="none" transform="matrix(1.00062 0 0 1 669 9)"/><path d="M77.22 157.483 85.2867 192.366 93.3411 231 101.408 211.053 109.474 231.342 117.529 239.543 125.596 188.259 133.65 239.543 141.717 223.129 149.771 231 157.838 225.867 165.904 222.444 173.959 225.867 182.026 192.818 190.08 211.053 198.147 239.543 206.213 229.289 214.268 198.513 222.334 205.358 230.389 222.444 238.456 225.867 246.51 239.543 254.577 222.444 262.643 231.342 270.698 219.034 278.764 239.543 286.819 234.654 294.886 205.358 302.952 239.543 311.007 233.848 319.073 215.612" stroke="#56B4E9" stroke-width="2.60333" stroke-linejoin="round" stroke-miterlimit="10" fill="none" transform="matrix(1.00062 0 0 1 669 9)"/><path d="M77.22 116.466 85.2867 81.5833 93.3411 42.9489 101.408 62.8956 109.474 42.6067 117.529 34.4056 125.596 85.69 133.65 34.4056 141.717 50.82 149.771 42.9489 157.838 48.0822 165.904 51.5044 173.959 48.0822 182.026 81.1311 190.08 62.8956 198.147 34.4056 206.213 54.9144 214.268 75.4356 222.334 68.5911 230.389 72.0133 238.456 48.0822 246.51 34.4056 254.577 51.5044 262.643 42.6067 270.698 54.9144 278.764 54.9144 286.819 39.2944 294.886 68.5911 302.952 34.4056 311.007 40.1011 319.073 58.3367" stroke="#E69F00" stroke-width="2.60333" stroke-linejoin="round" stroke-miterlimit="10" fill="none" transform="matrix(1.00062 0 0 1 669 9)"/><path d="M77.22 239.543 85.2867 239.543 93.3411 239.543 101.408 239.543 109.474 239.543 117.529 239.543 125.596 239.543 133.65 239.543 141.717 239.543 149.771 239.543 157.838 239.543 165.904 239.543 173.959 239.543 182.026 239.543 190.08 239.543 198.147 239.543 206.213 229.289 214.268 239.543 222.334 239.543 230.389 219.034 238.456 239.543 246.51 239.543 254.577 239.543 262.643 239.543 270.698 239.543 278.764 219.034 286.819 239.543 294.886 239.543 302.952 239.543 311.007 239.543 319.073 239.543" stroke="#000000" stroke-width="5.17" stroke-linejoin="round" stroke-miterlimit="10" fill="none" transform="matrix(1.00062 0 0 1 669 9)"/><path d="M77.22 239.543 85.2867 239.543 93.3411 239.543 101.408 239.543 109.474 239.543 117.529 239.543 125.596 239.543 133.65 239.543 141.717 239.543 149.771 239.543 157.838 239.543 165.904 239.543 173.959 239.543 182.026 239.543 190.08 239.543 198.147 239.543 206.213 229.289 214.268 239.543 222.334 239.543 230.389 219.034 238.456 239.543 246.51 239.543 254.577 239.543 262.643 239.543 270.698 239.543 278.764 219.034 286.819 239.543 294.886 239.543 302.952 239.543 311.007 239.543 319.073 239.543" stroke="#0072B2" stroke-width="2.87222" stroke-linejoin="round" stroke-miterlimit="10" fill="none" transform="matrix(1.00062 0 0 1 669 9)"/><path d="M77.22 157.483 85.2867 192.366 93.3411 231 101.408 211.053 109.474 231.342 117.529 239.543 125.596 188.259 133.65 239.543 141.717 223.129 149.771 231 157.838 225.867 165.904 222.444 173.959 225.867 182.026 192.818 190.08 211.053 198.147 239.543 206.213 229.289 214.268 198.513 222.334 205.358 230.389 222.444 238.456 225.867 246.51 239.543 254.577 222.444 262.643 231.342 270.698 219.034 278.764 239.543 286.819 234.654 294.886 205.358 302.952 239.543 311.007 233.848 319.073 215.612" stroke="#000000" stroke-width="5.17" stroke-linejoin="round" stroke-miterlimit="10" fill="none" transform="matrix(1.00062 0 0 1 669 9)"/><path d="M77.22 157.483 85.2867 192.366 93.3411 231 101.408 211.053 109.474 231.342 117.529 239.543 125.596 188.259 133.65 239.543 141.717 223.129 149.771 231 157.838 225.867 165.904 222.444 173.959 225.867 182.026 192.818 190.08 211.053 198.147 239.543 206.213 229.289 214.268 198.513 222.334 205.358 230.389 222.444 238.456 225.867 246.51 239.543 254.577 222.444 262.643 231.342 270.698 219.034 278.764 239.543 286.819 234.654 294.886 205.358 302.952 239.543 311.007 233.848 319.073 215.612" stroke="#56B4E9" stroke-width="2.87222" stroke-linejoin="round" stroke-miterlimit="10" fill="none" transform="matrix(1.00062 0 0 1 669 9)"/><path d="M77.22 116.466 85.2867 81.5833 93.3411 42.9489 101.408 62.8956 109.474 42.6067 117.529 34.4056 125.596 85.69 133.65 34.4056 141.717 50.82 149.771 42.9489 157.838 48.0822 165.904 51.5044 173.959 48.0822 182.026 81.1311 190.08 62.8956 198.147 34.4056 206.213 54.9144 214.268 75.4356 222.334 68.5911 230.389 72.0133 238.456 48.0822 246.51 34.4056 254.577 51.5044 262.643 42.6067 270.698 54.9144 278.764 54.9144 286.819 39.2944 294.886 68.5911 302.952 34.4056 311.007 40.1011 319.073 58.3367" stroke="#000000" stroke-width="5.17" stroke-linejoin="round" stroke-miterlimit="10" fill="none" transform="matrix(1.00062 0 0 1 669 9)"/><path d="M77.22 116.466 85.2867 81.5833 93.3411 42.9489 101.408 62.8956 109.474 42.6067 117.529 34.4056 125.596 85.69 133.65 34.4056 141.717 50.82 149.771 42.9489 157.838 48.0822 165.904 51.5044 173.959 48.0822 182.026 81.1311 190.08 62.8956 198.147 34.4056 206.213 54.9144 214.268 75.4356 222.334 68.5911 230.389 72.0133 238.456 48.0822 246.51 34.4056 254.577 51.5044 262.643 42.6067 270.698 54.9144 278.764 54.9144 286.819 39.2944 294.886 68.5911 302.952 34.4056 311.007 40.1011 319.073 58.3367" stroke="#E69F00" stroke-width="2.87222" stroke-linejoin="round" stroke-miterlimit="10" fill="none" transform="matrix(1.00062 0 0 1 669 9)"/></g><g><path d="M65.1322 273.949 331.161 273.949 331.161 479.087 65.1322 479.087Z" fill="#FFFFFF" transform="matrix(1.00062 0 0 1 669 9)"/><path d="M77.22 479.087 85.2867 479.087 93.3411 479.087 101.408 479.087 109.474 479.087 117.529 458.566 125.596 479.087 133.65 479.087 141.717 479.087 149.771 479.087 157.838 479.087 165.904 479.087 173.959 479.087 182.026 479.087 190.08 451.733 198.147 479.087 206.213 465.41 214.268 461.988 222.334 479.087 230.389 461.988 238.456 479.087 246.51 479.087 254.577 479.087 262.643 451.733 270.698 439.193 278.764 397.027 286.819 430.54 294.886 407.293 302.952 444.217 311.007 462.672 319.073 403.871" stroke="#0072B2" stroke-width="2.60333" stroke-linejoin="round" stroke-miterlimit="10" fill="none" transform="matrix(1.00062 0 0 1 669 9)"/><path d="M77.22 410.703 85.2867 427.802 93.3411 427.802 101.408 458.566 109.474 433.498 117.529 424.38 125.596 444.901 133.65 468.832 141.717 410.703 149.771 431.224 157.838 429.856 165.904 410.703 173.959 356.009 182.026 359.419 190.08 438.057 198.147 390.194 206.213 458.566 214.268 410.703 222.334 453.444 230.389 453.444 238.456 436.346 246.51 423.524 254.577 479.087 262.643 397.027 270.698 442.041 278.764 431.224 286.819 429.856 294.886 438.057 302.952 378.571 311.007 416.179 319.073 431.224" stroke="#56B4E9" stroke-width="2.60333" stroke-linejoin="round" stroke-miterlimit="10" fill="none" transform="matrix(1.00062 0 0 1 669 9)"/><path d="M77.22 342.332 85.2867 325.233 93.3411 325.233 101.408 294.458 109.474 319.538 117.529 349.164 125.596 308.134 133.65 284.203 141.717 342.332 149.771 321.811 157.838 323.18 165.904 342.332 173.959 397.027 182.026 393.617 190.08 342.332 198.147 362.841 206.213 308.134 214.268 359.419 222.334 299.591 230.389 316.69 238.456 316.69 246.51 329.511 254.577 273.949 262.643 383.35 270.698 350.876 278.764 403.871 286.819 371.727 294.886 386.772 302.952 409.334 311.007 353.271 319.073 397.027" stroke="#E69F00" stroke-width="2.60333" stroke-linejoin="round" stroke-miterlimit="10" fill="none" transform="matrix(1.00062 0 0 1 669 9)"/><path d="M77.22 479.087 85.2867 479.087 93.3411 479.087 101.408 479.087 109.474 479.087 117.529 458.566 125.596 479.087 133.65 479.087 141.717 479.087 149.771 479.087 157.838 479.087 165.904 479.087 173.959 479.087 182.026 479.087 190.08 451.733 198.147 479.087 206.213 465.41 214.268 461.988 222.334 479.087 230.389 461.988 238.456 479.087 246.51 479.087 254.577 479.087 262.643 451.733 270.698 439.193 278.764 397.027 286.819 430.54 294.886 407.293 302.952 444.217 311.007 462.672 319.073 403.871" stroke="#000000" stroke-width="5.17" stroke-linejoin="round" stroke-miterlimit="10" fill="none" transform="matrix(1.00062 0 0 1 669 9)"/><path d="M77.22 479.087 85.2867 479.087 93.3411 479.087 101.408 479.087 109.474 479.087 117.529 458.566 125.596 479.087 133.65 479.087 141.717 479.087 149.771 479.087 157.838 479.087 165.904 479.087 173.959 479.087 182.026 479.087 190.08 451.733 198.147 479.087 206.213 465.41 214.268 461.988 222.334 479.087 230.389 461.988 238.456 479.087 246.51 479.087 254.577 479.087 262.643 451.733 270.698 439.193 278.764 397.027 286.819 430.54 294.886 407.293 302.952 444.217 311.007 462.672 319.073 403.871" stroke="#0072B2" stroke-width="2.87222" stroke-linejoin="round" stroke-miterlimit="10" fill="none" transform="matrix(1.00062 0 0 1 669 9)"/><path d="M77.22 410.703 85.2867 427.802 93.3411 427.802 101.408 458.566 109.474 433.498 117.529 424.38 125.596 444.901 133.65 468.832 141.717 410.703 149.771 431.224 157.838 429.856 165.904 410.703 173.959 356.009 182.026 359.419 190.08 438.057 198.147 390.194 206.213 458.566 214.268 410.703 222.334 453.444 230.389 453.444 238.456 436.346 246.51 423.524 254.577 479.087 262.643 397.027 270.698 442.041 278.764 431.224 286.819 429.856 294.886 438.057 302.952 378.571 311.007 416.179 319.073 431.224" stroke="#000000" stroke-width="5.17" stroke-linejoin="round" stroke-miterlimit="10" fill="none" transform="matrix(1.00062 0 0 1 669 9)"/><path d="M77.22 410.703 85.2867 427.802 93.3411 427.802 101.408 458.566 109.474 433.498 117.529 424.38 125.596 444.901 133.65 468.832 141.717 410.703 149.771 431.224 157.838 429.856 165.904 410.703 173.959 356.009 182.026 359.419 190.08 438.057 198.147 390.194 206.213 458.566 214.268 410.703 222.334 453.444 230.389 453.444 238.456 436.346 246.51 423.524 254.577 479.087 262.643 397.027 270.698 442.041 278.764 431.224 286.819 429.856 294.886 438.057 302.952 378.571 311.007 416.179 319.073 431.224" stroke="#56B4E9" stroke-width="2.87222" stroke-linejoin="round" stroke-miterlimit="10" fill="none" transform="matrix(1.00062 0 0 1 669 9)"/><path d="M77.22 342.332 85.2867 325.233 93.3411 325.233 101.408 294.458 109.474 319.538 117.529 349.164 125.596 308.134 133.65 284.203 141.717 342.332 149.771 321.811 157.838 323.18 165.904 342.332 173.959 397.027 182.026 393.617 190.08 342.332 198.147 362.841 206.213 308.134 214.268 359.419 222.334 299.591 230.389 316.69 238.456 316.69 246.51 329.511 254.577 273.949 262.643 383.35 270.698 350.876 278.764 403.871 286.819 371.727 294.886 386.772 302.952 409.334 311.007 353.271 319.073 397.027" stroke="#000000" stroke-width="5.17" stroke-linejoin="round" stroke-miterlimit="10" fill="none" transform="matrix(1.00062 0 0 1 669 9)"/><path d="M77.22 342.332 85.2867 325.233 93.3411 325.233 101.408 294.458 109.474 319.538 117.529 349.164 125.596 308.134 133.65 284.203 141.717 342.332 149.771 321.811 157.838 323.18 165.904 342.332 173.959 397.027 182.026 393.617 190.08 342.332 198.147 362.841 206.213 308.134 214.268 359.419 222.334 299.591 230.389 316.69 238.456 316.69 246.51 329.511 254.577 273.949 262.643 383.35 270.698 350.876 278.764 403.871 286.819 371.727 294.886 386.772 302.952 409.334 311.007 353.271 319.073 397.027" stroke="#E69F00" stroke-width="2.87222" stroke-linejoin="round" stroke-miterlimit="10" fill="none" transform="matrix(1.00062 0 0 1 669 9)"/></g><g><path d="M337.859 34.4056 603.888 34.4056 603.888 239.543 337.859 239.543Z" fill="#FFFFFF" transform="matrix(1.00062 0 0 1 669 9)"/><path d="M349.947 239.543 358.013 239.543 366.08 239.543 374.134 239.543 382.201 239.543 390.256 239.543 398.322 239.543 406.389 239.543 414.443 239.543 422.51 239.543 430.564 239.543 438.631 239.543 446.686 239.543 454.752 239.543 462.819 239.543 470.873 239.543 478.94 239.543 486.994 239.543 495.061 239.543 503.128 239.543 511.182 239.543 519.249 239.543 527.303 239.543 535.37 239.543 543.424 239.543 551.491 239.543 559.558 239.543 567.612 239.543 575.679 239.543 583.733 229.289" stroke="#0072B2" stroke-width="2.60333" stroke-linejoin="round" stroke-miterlimit="10" fill="none" transform="matrix(1.00062 0 0 1 669 9)"/><path d="M349.947 233.848 358.013 229.289 366.08 228.152 374.134 239.543 382.201 239.543 390.256 222.444 398.322 185.411 406.389 222.444 414.443 233.677 422.51 188.259 430.564 219.034 438.631 239.543 446.686 188.259 454.752 196.802 462.819 188.259 470.873 198.513 478.94 162.617 486.994 171.16 495.061 213.901 503.128 213.901 511.182 209.623 519.249 198.513 527.303 196.802 535.37 145.518 543.424 171.16 551.491 171.16 559.558 188.259 567.612 196.802 575.679 191.681 583.733 184.837" stroke="#56B4E9" stroke-width="2.60333" stroke-linejoin="round" stroke-miterlimit="10" fill="none" transform="matrix(1.00062 0 0 1 669 9)"/><path d="M349.947 40.1011 358.013 44.66 366.08 45.7967 374.134 34.4056 382.201 34.4056 390.256 51.5044 398.322 88.5378 406.389 51.5044 414.443 40.2722 422.51 85.69 430.564 54.9144 438.631 34.4056 446.686 85.69 454.752 77.1467 462.819 85.69 470.873 75.4356 478.94 111.332 486.994 102.789 495.061 60.0478 503.128 60.0478 511.182 64.3256 519.249 75.4356 527.303 77.1467 535.37 128.431 543.424 102.789 551.491 102.789 559.558 85.69 567.612 77.1467 575.679 82.2678 583.733 99.3667" stroke="#E69F00" stroke-width="2.60333" stroke-linejoin="round" stroke-miterlimit="10" fill="none" transform="matrix(1.00062 0 0 1 669 9)"/><path d="M349.947 239.543 358.013 239.543 366.08 239.543 374.134 239.543 382.201 239.543 390.256 239.543 398.322 239.543 406.389 239.543 414.443 239.543 422.51 239.543 430.564 239.543 438.631 239.543 446.686 239.543 454.752 239.543 462.819 239.543 470.873 239.543 478.94 239.543 486.994 239.543 495.061 239.543 503.128 239.543 511.182 239.543 519.249 239.543 527.303 239.543 535.37 239.543 543.424 239.543 551.491 239.543 559.558 239.543 567.612 239.543 575.679 239.543 583.733 229.289" stroke="#000000" stroke-width="5.17" stroke-linejoin="round" stroke-miterlimit="10" fill="none" transform="matrix(1.00062 0 0 1 669 9)"/><path d="M349.947 239.543 358.013 239.543 366.08 239.543 374.134 239.543 382.201 239.543 390.256 239.543 398.322 239.543 406.389 239.543 414.443 239.543 422.51 239.543 430.564 239.543 438.631 239.543 446.686 239.543 454.752 239.543 462.819 239.543 470.873 239.543 478.94 239.543 486.994 239.543 495.061 239.543 503.128 239.543 511.182 239.543 519.249 239.543 527.303 239.543 535.37 239.543 543.424 239.543 551.491 239.543 559.558 239.543 567.612 239.543 575.679 239.543 583.733 229.289" stroke="#0072B2" stroke-width="2.87222" stroke-linejoin="round" stroke-miterlimit="10" fill="none" transform="matrix(1.00062 0 0 1 669 9)"/><path d="M349.947 233.848 358.013 229.289 366.08 228.152 374.134 239.543 382.201 239.543 390.256 222.444 398.322 185.411 406.389 222.444 414.443 233.677 422.51 188.259 430.564 219.034 438.631 239.543 446.686 188.259 454.752 196.802 462.819 188.259 470.873 198.513 478.94 162.617 486.994 171.16 495.061 213.901 503.128 213.901 511.182 209.623 519.249 198.513 527.303 196.802 535.37 145.518 543.424 171.16 551.491 171.16 559.558 188.259 567.612 196.802 575.679 191.681 583.733 184.837" stroke="#000000" stroke-width="5.17" stroke-linejoin="round" stroke-miterlimit="10" fill="none" transform="matrix(1.00062 0 0 1 669 9)"/><path d="M349.947 233.848 358.013 229.289 366.08 228.152 374.134 239.543 382.201 239.543 390.256 222.444 398.322 185.411 406.389 222.444 414.443 233.677 422.51 188.259 430.564 219.034 438.631 239.543 446.686 188.259 454.752 196.802 462.819 188.259 470.873 198.513 478.94 162.617 486.994 171.16 495.061 213.901 503.128 213.901 511.182 209.623 519.249 198.513 527.303 196.802 535.37 145.518 543.424 171.16 551.491 171.16 559.558 188.259 567.612 196.802 575.679 191.681 583.733 184.837" stroke="#56B4E9" stroke-width="2.87222" stroke-linejoin="round" stroke-miterlimit="10" fill="none" transform="matrix(1.00062 0 0 1 669 9)"/><path d="M349.947 40.1011 358.013 44.66 366.08 45.7967 374.134 34.4056 382.201 34.4056 390.256 51.5044 398.322 88.5378 406.389 51.5044 414.443 40.2722 422.51 85.69 430.564 54.9144 438.631 34.4056 446.686 85.69 454.752 77.1467 462.819 85.69 470.873 75.4356 478.94 111.332 486.994 102.789 495.061 60.0478 503.128 60.0478 511.182 64.3256 519.249 75.4356 527.303 77.1467 535.37 128.431 543.424 102.789 551.491 102.789 559.558 85.69 567.612 77.1467 575.679 82.2678 583.733 99.3667" stroke="#000000" stroke-width="5.17" stroke-linejoin="round" stroke-miterlimit="10" fill="none" transform="matrix(1.00062 0 0 1 669 9)"/><path d="M349.947 40.1011 358.013 44.66 366.08 45.7967 374.134 34.4056 382.201 34.4056 390.256 51.5044 398.322 88.5378 406.389 51.5044 414.443 40.2722 422.51 85.69 430.564 54.9144 438.631 34.4056 446.686 85.69 454.752 77.1467 462.819 85.69 470.873 75.4356 478.94 111.332 486.994 102.789 495.061 60.0478 503.128 60.0478 511.182 64.3256 519.249 75.4356 527.303 77.1467 535.37 128.431 543.424 102.789 551.491 102.789 559.558 85.69 567.612 77.1467 575.679 82.2678 583.733 99.3667" stroke="#E69F00" stroke-width="2.87222" stroke-linejoin="round" stroke-miterlimit="10" fill="none" transform="matrix(1.00062 0 0 1 669 9)"/></g><g><path d="M337.859 273.949 603.888 273.949 603.888 479.087 337.859 479.087Z" fill="#FFFFFF" transform="matrix(1.00062 0 0 1 669 9)"/><path d="M349.947 431.224 358.013 433.498 366.08 468.832 374.134 423.524 382.201 413.551 390.256 422.107 398.322 442.041 406.389 442.041 414.443 440.623 422.51 373.096 430.564 362.841 438.631 362.841 446.686 425.064 454.752 410.703 462.819 386.772 470.873 417.548 478.94 426.336 486.994 397.027 495.061 403.871 503.128 390.194 511.182 436.346 519.249 422.107 527.303 387.909 535.37 402.16 543.424 422.107 551.491 395.658 559.558 382.213 567.612 393.617 575.679 402.16 583.733 390.353" stroke="#0072B2" stroke-width="2.60333" stroke-linejoin="round" stroke-miterlimit="10" fill="none" transform="matrix(1.00062 0 0 1 669 9)"/><path d="M349.947 406.609 358.013 444.901 366.08 373.096 374.134 385.061 382.201 419.259 390.256 410.703 398.322 393.617 406.389 402.16 414.443 385.061 422.51 444.901 430.564 441.479 438.631 403.871 446.686 444.217 454.752 410.703 462.819 425.749 470.873 392.932 478.94 406.804 486.994 379.94 495.061 393.617 503.128 465.41 511.182 350.876 519.249 393.617 527.303 427.802 535.37 405.008 543.424 393.617 551.491 418.917 559.558 444.901 567.612 419.259 575.679 393.617 583.733 372.448" stroke="#56B4E9" stroke-width="2.60333" stroke-linejoin="round" stroke-miterlimit="10" fill="none" transform="matrix(1.00062 0 0 1 669 9)"/><path d="M349.947 394.301 358.013 353.723 366.08 390.194 374.134 423.524 382.201 399.312 390.256 399.312 398.322 396.464 406.389 387.909 414.443 406.438 422.51 414.126 430.564 427.802 438.631 465.41 446.686 362.841 454.752 410.703 462.819 419.601 470.873 421.642 478.94 398.982 486.994 455.156 495.061 434.634 503.128 376.518 511.182 444.901 519.249 416.399 527.303 416.399 535.37 424.954 543.424 416.399 551.491 417.548 559.558 405.008 567.612 419.259 575.679 436.346 583.733 469.321" stroke="#E69F00" stroke-width="2.60333" stroke-linejoin="round" stroke-miterlimit="10" fill="none" transform="matrix(1.00062 0 0 1 669 9)"/><path d="M349.947 431.224 358.013 433.498 366.08 468.832 374.134 423.524 382.201 413.551 390.256 422.107 398.322 442.041 406.389 442.041 414.443 440.623 422.51 373.096 430.564 362.841 438.631 362.841 446.686 425.064 454.752 410.703 462.819 386.772 470.873 417.548 478.94 426.336 486.994 397.027 495.061 403.871 503.128 390.194 511.182 436.346 519.249 422.107 527.303 387.909 535.37 402.16 543.424 422.107 551.491 395.658 559.558 382.213 567.612 393.617 575.679 402.16 583.733 390.353" stroke="#000000" stroke-width="5.17" stroke-linejoin="round" stroke-miterlimit="10" fill="none" transform="matrix(1.00062 0 0 1 669 9)"/><path d="M349.947 431.224 358.013 433.498 366.08 468.832 374.134 423.524 382.201 413.551 390.256 422.107 398.322 442.041 406.389 442.041 414.443 440.623 422.51 373.096 430.564 362.841 438.631 362.841 446.686 425.064 454.752 410.703 462.819 386.772 470.873 417.548 478.94 426.336 486.994 397.027 495.061 403.871 503.128 390.194 511.182 436.346 519.249 422.107 527.303 387.909 535.37 402.16 543.424 422.107 551.491 395.658 559.558 382.213 567.612 393.617 575.679 402.16 583.733 390.353" stroke="#0072B2" stroke-width="2.87222" stroke-linejoin="round" stroke-miterlimit="10" fill="none" transform="matrix(1.00062 0 0 1 669 9)"/><path d="M349.947 406.609 358.013 444.901 366.08 373.096 374.134 385.061 382.201 419.259 390.256 410.703 398.322 393.617 406.389 402.16 414.443 385.061 422.51 444.901 430.564 441.479 438.631 403.871 446.686 444.217 454.752 410.703 462.819 425.749 470.873 392.932 478.94 406.804 486.994 379.94 495.061 393.617 503.128 465.41 511.182 350.876 519.249 393.617 527.303 427.802 535.37 405.008 543.424 393.617 551.491 418.917 559.558 444.901 567.612 419.259 575.679 393.617 583.733 372.448" stroke="#000000" stroke-width="5.17" stroke-linejoin="round" stroke-miterlimit="10" fill="none" transform="matrix(1.00062 0 0 1 669 9)"/><path d="M349.947 406.609 358.013 444.901 366.08 373.096 374.134 385.061 382.201 419.259 390.256 410.703 398.322 393.617 406.389 402.16 414.443 385.061 422.51 444.901 430.564 441.479 438.631 403.871 446.686 444.217 454.752 410.703 462.819 425.749 470.873 392.932 478.94 406.804 486.994 379.94 495.061 393.617 503.128 465.41 511.182 350.876 519.249 393.617 527.303 427.802 535.37 405.008 543.424 393.617 551.491 418.917 559.558 444.901 567.612 419.259 575.679 393.617 583.733 372.448" stroke="#56B4E9" stroke-width="2.87222" stroke-linejoin="round" stroke-miterlimit="10" fill="none" transform="matrix(1.00062 0 0 1 669 9)"/><path d="M349.947 394.301 358.013 353.723 366.08 390.194 374.134 423.524 382.201 399.312 390.256 399.312 398.322 396.464 406.389 387.909 414.443 406.438 422.51 414.126 430.564 427.802 438.631 465.41 446.686 362.841 454.752 410.703 462.819 419.601 470.873 421.642 478.94 398.982 486.994 455.156 495.061 434.634 503.128 376.518 511.182 444.901 519.249 416.399 527.303 416.399 535.37 424.954 543.424 416.399 551.491 417.548 559.558 405.008 567.612 419.259 575.679 436.346 583.733 469.321" stroke="#000000" stroke-width="5.17" stroke-linejoin="round" stroke-miterlimit="10" fill="none" transform="matrix(1.00062 0 0 1 669 9)"/><path d="M349.947 394.301 358.013 353.723 366.08 390.194 374.134 423.524 382.201 399.312 390.256 399.312 398.322 396.464 406.389 387.909 414.443 406.438 422.51 414.126 430.564 427.802 438.631 465.41 446.686 362.841 454.752 410.703 462.819 419.601 470.873 421.642 478.94 398.982 486.994 455.156 495.061 434.634 503.128 376.518 511.182 444.901 519.249 416.399 527.303 416.399 535.37 424.954 543.424 416.399 551.491 417.548 559.558 405.008 567.612 419.259 575.679 436.346 583.733 469.321" stroke="#E69F00" stroke-width="2.87222" stroke-linejoin="round" stroke-miterlimit="10" fill="none" transform="matrix(1.00062 0 0 1 669 9)"/></g><g><path d="M65.1322 246.241 331.161 246.241 331.161 273.949 65.1322 273.949Z" stroke="#000000" stroke-width="2.60333" stroke-linecap="round" stroke-linejoin="round" stroke-miterlimit="10" fill="#FFFFFF" transform="matrix(1.00062 0 0 1 669 9)"/><text fill="#1A1A1A" font-family="Arial,Arial_MSFontService,sans-serif" font-weight="400" font-size="15" transform="matrix(1.22298 0 0 1.22222 834.643 276)">October</text></g><g><path d="M337.859 246.241 603.888 246.241 603.888 273.949 337.859 273.949Z" stroke="#000000" stroke-width="2.60333" stroke-linecap="round" stroke-linejoin="round" stroke-miterlimit="10" fill="#FFFFFF" transform="matrix(1.00062 0 0 1 669 9)"/><text fill="#1A1A1A" font-family="Arial,Arial_MSFontService,sans-serif" font-weight="400" font-size="15" transform="matrix(1.22298 0 0 1.22222 1097.86 276)">November</text></g><g><path d="M65.1322 6.69778 331.161 6.69778 331.161 34.4056 65.1322 34.4056Z" stroke="#000000" stroke-width="2.60333" stroke-linecap="round" stroke-linejoin="round" stroke-miterlimit="10" fill="#FFFFFF" transform="matrix(1.00062 0 0 1 669 9)"/><text fill="#1A1A1A" font-family="Arial,Arial_MSFontService,sans-serif" font-weight="400" font-size="15" transform="matrix(1.22298 0 0 1.22222 838.714 36)">August</text></g><g><path d="M337.859 6.69778 603.888 6.69778 603.888 34.4056 337.859 34.4056Z" stroke="#000000" stroke-width="2.60333" stroke-linecap="round" stroke-linejoin="round" stroke-miterlimit="10" fill="#FFFFFF" transform="matrix(1.00062 0 0 1 669 9)"/><text fill="#1A1A1A" font-family="Arial,Arial_MSFontService,sans-serif" font-weight="400" font-size="15" transform="matrix(1.22298 0 0 1.22222 1095.3 36)">September</text></g><g><path d="M65.1322 479.087 331.161 479.087" stroke="#000000" stroke-width="1.30778" stroke-linecap="square" stroke-linejoin="round" stroke-miterlimit="10" fill="none" transform="matrix(1.00062 0 0 1 669 9)"/><path d="M69.1656 482.436 69.1656 479.087" stroke="#000000" stroke-width="1.30778" stroke-linejoin="round" stroke-miterlimit="10" fill="none" transform="matrix(1.00062 0 0 1 669 9)"/><path d="M149.771 482.436 149.771 479.087" stroke="#000000" stroke-width="1.30778" stroke-linejoin="round" stroke-miterlimit="10" fill="none" transform="matrix(1.00062 0 0 1 669 9)"/><path d="M230.389 482.436 230.389 479.087" stroke="#000000" stroke-width="1.30778" stroke-linejoin="round" stroke-miterlimit="10" fill="none" transform="matrix(1.00062 0 0 1 669 9)"/><path d="M311.007 482.436 311.007 479.087" stroke="#000000" stroke-width="1.30778" stroke-linejoin="round" stroke-miterlimit="10" fill="none" transform="matrix(1.00062 0 0 1 669 9)"/><text font-family="Arial,Arial_MSFontService,sans-serif" font-weight="400" font-size="13" transform="matrix(1.22298 0 0 1.22222 733.788 505)">0</text><text font-family="Arial,Arial_MSFontService,sans-serif" font-weight="400" font-size="13" transform="matrix(1.22298 0 0 1.22222 810.022 505)">10</text><text font-family="Arial,Arial_MSFontService,sans-serif" font-weight="400" font-size="13" transform="matrix(1.22298 0 0 1.22222 890.69 505)">20</text><text font-family="Arial,Arial_MSFontService,sans-serif" font-weight="400" font-size="13" transform="matrix(1.22298 0 0 1.22222 971.358 505)">30</text><path d="M337.859 479.087 603.888 479.087" stroke="#000000" stroke-width="1.30778" stroke-linecap="square" stroke-linejoin="round" stroke-miterlimit="10" fill="none" transform="matrix(1.00062 0 0 1 669 9)"/><path d="M341.892 482.436 341.892 479.087" stroke="#000000" stroke-width="1.30778" stroke-linejoin="round" stroke-miterlimit="10" fill="none" transform="matrix(1.00062 0 0 1 669 9)"/><path d="M422.51 482.436 422.51 479.087" stroke="#000000" stroke-width="1.30778" stroke-linejoin="round" stroke-miterlimit="10" fill="none" transform="matrix(1.00062 0 0 1 669 9)"/><path d="M503.128 482.436 503.128 479.087" stroke="#000000" stroke-width="1.30778" stroke-linejoin="round" stroke-miterlimit="10" fill="none" transform="matrix(1.00062 0 0 1 669 9)"/><path d="M583.733 482.436 583.733 479.087" stroke="#000000" stroke-width="1.30778" stroke-linejoin="round" stroke-miterlimit="10" fill="none" transform="matrix(1.00062 0 0 1 669 9)"/><text font-family="Arial,Arial_MSFontService,sans-serif" font-weight="400" font-size="13" transform="matrix(1.22298 0 0 1.22222 1006.68 505)">0</text><text font-family="Arial,Arial_MSFontService,sans-serif" font-weight="400" font-size="13" transform="matrix(1.22298 0 0 1.22222 1082.93 505)">10</text><text font-family="Arial,Arial_MSFontService,sans-serif" font-weight="400" font-size="13" transform="matrix(1.22298 0 0 1.22222 1163.6 505)">20</text><text font-family="Arial,Arial_MSFontService,sans-serif" font-weight="400" font-size="13" transform="matrix(1.22298 0 0 1.22222 1244.25 505)">30</text><path d="M65.1322 239.543 65.1322 34.4056" stroke="#000000" stroke-width="1.30778" stroke-linecap="square" stroke-linejoin="round" stroke-miterlimit="10" fill="none" transform="matrix(1.00062 0 0 1 669 9)"/><text font-family="Arial,Arial_MSFontService,sans-serif" font-weight="400" font-size="13" transform="matrix(1.22298 0 0 1.22222 697.2 254)">0</text><text font-family="Arial,Arial_MSFontService,sans-serif" font-weight="400" font-size="13" transform="matrix(1.22298 0 0 1.22222 706.042 254)">.</text><text font-family="Arial,Arial_MSFontService,sans-serif" font-weight="400" font-size="13" transform="matrix(1.22298 0 0 1.22222 710.459 254)">00</text><text font-family="Arial,Arial_MSFontService,sans-serif" font-weight="400" font-size="13" transform="matrix(1.22298 0 0 1.22222 697.2 203)">0</text><text font-family="Arial,Arial_MSFontService,sans-serif" font-weight="400" font-size="13" transform="matrix(1.22298 0 0 1.22222 706.042 203)">.</text><text font-family="Arial,Arial_MSFontService,sans-serif" font-weight="400" font-size="13" transform="matrix(1.22298 0 0 1.22222 710.459 203)">25</text><text font-family="Arial,Arial_MSFontService,sans-serif" font-weight="400" font-size="13" transform="matrix(1.22298 0 0 1.22222 697.2 152)">0</text><text font-family="Arial,Arial_MSFontService,sans-serif" font-weight="400" font-size="13" transform="matrix(1.22298 0 0 1.22222 706.042 152)">.</text><text font-family="Arial,Arial_MSFontService,sans-serif" font-weight="400" font-size="13" transform="matrix(1.22298 0 0 1.22222 710.459 152)">50</text><text font-family="Arial,Arial_MSFontService,sans-serif" font-weight="400" font-size="13" transform="matrix(1.22298 0 0 1.22222 697.2 100)">0</text><text font-family="Arial,Arial_MSFontService,sans-serif" font-weight="400" font-size="13" transform="matrix(1.22298 0 0 1.22222 706.042 100)">.</text><text font-family="Arial,Arial_MSFontService,sans-serif" font-weight="400" font-size="13" transform="matrix(1.22298 0 0 1.22222 710.459 100)">75</text><text font-family="Arial,Arial_MSFontService,sans-serif" font-weight="400" font-size="13" transform="matrix(1.22298 0 0 1.22222 697.2 49)">1</text><text font-family="Arial,Arial_MSFontService,sans-serif" font-weight="400" font-size="13" transform="matrix(1.22298 0 0 1.22222 706.042 49)">.</text><text font-family="Arial,Arial_MSFontService,sans-serif" font-weight="400" font-size="13" transform="matrix(1.22298 0 0 1.22222 710.459 49)">00</text><path d="M61.7833 239.543 65.1322 239.543" stroke="#000000" stroke-width="1.30778" stroke-linejoin="round" stroke-miterlimit="10" fill="none" transform="matrix(1.00062 0 0 1 669 9)"/><path d="M61.7833 188.259 65.1322 188.259" stroke="#000000" stroke-width="1.30778" stroke-linejoin="round" stroke-miterlimit="10" fill="none" transform="matrix(1.00062 0 0 1 669 9)"/><path d="M61.7833 136.974 65.1322 136.974" stroke="#000000" stroke-width="1.30778" stroke-linejoin="round" stroke-miterlimit="10" fill="none" transform="matrix(1.00062 0 0 1 669 9)"/><path d="M61.7833 85.69 65.1322 85.69" stroke="#000000" stroke-width="1.30778" stroke-linejoin="round" stroke-miterlimit="10" fill="none" transform="matrix(1.00062 0 0 1 669 9)"/><path d="M61.7833 34.4056 65.1322 34.4056" stroke="#000000" stroke-width="1.30778" stroke-linejoin="round" stroke-miterlimit="10" fill="none" transform="matrix(1.00062 0 0 1 669 9)"/><path d="M65.1322 479.087 65.1322 273.949" stroke="#000000" stroke-width="1.30778" stroke-linecap="square" stroke-linejoin="round" stroke-miterlimit="10" fill="none" transform="matrix(1.00062 0 0 1 669 9)"/><text font-family="Arial,Arial_MSFontService,sans-serif" font-weight="400" font-size="13" transform="matrix(1.22298 0 0 1.22222 697.2 494)">0</text><text font-family="Arial,Arial_MSFontService,sans-serif" font-weight="400" font-size="13" transform="matrix(1.22298 0 0 1.22222 706.042 494)">.</text><text font-family="Arial,Arial_MSFontService,sans-serif" font-weight="400" font-size="13" transform="matrix(1.22298 0 0 1.22222 710.459 494)">00</text><text font-family="Arial,Arial_MSFontService,sans-serif" font-weight="400" font-size="13" transform="matrix(1.22298 0 0 1.22222 697.2 442)">0</text><text font-family="Arial,Arial_MSFontService,sans-serif" font-weight="400" font-size="13" transform="matrix(1.22298 0 0 1.22222 706.042 442)">.</text><text font-family="Arial,Arial_MSFontService,sans-serif" font-weight="400" font-size="13" transform="matrix(1.22298 0 0 1.22222 710.459 442)">25</text><text font-family="Arial,Arial_MSFontService,sans-serif" font-weight="400" font-size="13" transform="matrix(1.22298 0 0 1.22222 697.2 391)">0</text><text font-family="Arial,Arial_MSFontService,sans-serif" font-weight="400" font-size="13" transform="matrix(1.22298 0 0 1.22222 706.042 391)">.</text><text font-family="Arial,Arial_MSFontService,sans-serif" font-weight="400" font-size="13" transform="matrix(1.22298 0 0 1.22222 710.459 391)">50</text><text font-family="Arial,Arial_MSFontService,sans-serif" font-weight="400" font-size="13" transform="matrix(1.22298 0 0 1.22222 697.2 340)">0</text><text font-family="Arial,Arial_MSFontService,sans-serif" font-weight="400" font-size="13" transform="matrix(1.22298 0 0 1.22222 706.042 340)">.</text><text font-family="Arial,Arial_MSFontService,sans-serif" font-weight="400" font-size="13" transform="matrix(1.22298 0 0 1.22222 710.459 340)">75</text><text font-family="Arial,Arial_MSFontService,sans-serif" font-weight="400" font-size="13" transform="matrix(1.22298 0 0 1.22222 697.2 289)">1</text><text font-family="Arial,Arial_MSFontService,sans-serif" font-weight="400" font-size="13" transform="matrix(1.22298 0 0 1.22222 706.042 289)">.</text><text font-family="Arial,Arial_MSFontService,sans-serif" font-weight="400" font-size="13" transform="matrix(1.22298 0 0 1.22222 710.459 289)">00</text><path d="M61.7833 479.087 65.1322 479.087" stroke="#000000" stroke-width="1.30778" stroke-linejoin="round" stroke-miterlimit="10" fill="none" transform="matrix(1.00062 0 0 1 669 9)"/><path d="M61.7833 427.802 65.1322 427.802" stroke="#000000" stroke-width="1.30778" stroke-linejoin="round" stroke-miterlimit="10" fill="none" transform="matrix(1.00062 0 0 1 669 9)"/><path d="M61.7833 376.518 65.1322 376.518" stroke="#000000" stroke-width="1.30778" stroke-linejoin="round" stroke-miterlimit="10" fill="none" transform="matrix(1.00062 0 0 1 669 9)"/><path d="M61.7833 325.233 65.1322 325.233" stroke="#000000" stroke-width="1.30778" stroke-linejoin="round" stroke-miterlimit="10" fill="none" transform="matrix(1.00062 0 0 1 669 9)"/><path d="M61.7833 273.949 65.1322 273.949" stroke="#000000" stroke-width="1.30778" stroke-linejoin="round" stroke-miterlimit="10" fill="none" transform="matrix(1.00062 0 0 1 669 9)"/><text font-family="Arial,Arial_MSFontService,sans-serif" font-weight="400" font-size="16" transform="matrix(1.22298 0 0 1.22222 986.319 526)">Day</text><text font-family="Arial,Arial_MSFontService,sans-serif" font-weight="400" font-size="16" transform="matrix(7.48861e-17 -1.22222 1.22298 7.48395e-17 689.705 354)">Porportion of ravens</text><path d="M617.283 208.792 697.302 208.792 697.302 304.7 617.283 304.7Z" fill="#FFFFFF" transform="matrix(1.00062 0 0 1 669 9)"/><text font-family="Arial,Arial_MSFontService,sans-serif" font-weight="400" font-size="11" transform="matrix(1.22298 0 0 1.22222 1293.37 236)">Decision</text><path d="M623.981 234.642 645.101 234.642 645.101 255.762 623.981 255.762Z" fill="#FFFFFF" transform="matrix(1.00062 0 0 1 669 9)"/><path d="M626.096 245.202 642.987 245.202" stroke="#0072B2" stroke-width="2.60333" stroke-linejoin="round" stroke-miterlimit="10" fill="none" transform="matrix(1.00062 0 0 1 669 9)"/><path d="M626.096 245.202 642.987 245.202" stroke="#000000" stroke-width="5.47556" stroke-linejoin="round" stroke-miterlimit="10" fill="none" transform="matrix(1.00062 0 0 1 669 9)"/><path d="M626.096 245.202 642.987 245.202" stroke="#0072B2" stroke-width="2.87222" stroke-linejoin="round" stroke-miterlimit="10" fill="none" transform="matrix(1.00062 0 0 1 669 9)"/><path d="M623.981 255.762 645.101 255.762 645.101 276.882 623.981 276.882Z" fill="#FFFFFF" transform="matrix(1.00062 0 0 1 669 9)"/><path d="M626.096 266.322 642.987 266.322" stroke="#56B4E9" stroke-width="2.60333" stroke-linejoin="round" stroke-miterlimit="10" fill="none" transform="matrix(1.00062 0 0 1 669 9)"/><path d="M626.096 266.322 642.987 266.322" stroke="#000000" stroke-width="5.47556" stroke-linejoin="round" stroke-miterlimit="10" fill="none" transform="matrix(1.00062 0 0 1 669 9)"/><path d="M626.096 266.322 642.987 266.322" stroke="#56B4E9" stroke-width="2.87222" stroke-linejoin="round" stroke-miterlimit="10" fill="none" transform="matrix(1.00062 0 0 1 669 9)"/><path d="M623.981 276.882 645.101 276.882 645.101 298.002 623.981 298.002Z" fill="#FFFFFF" transform="matrix(1.00062 0 0 1 669 9)"/><path d="M626.096 287.442 642.987 287.442" stroke="#E69F00" stroke-width="2.60333" stroke-linejoin="round" stroke-miterlimit="10" fill="none" transform="matrix(1.00062 0 0 1 669 9)"/><path d="M626.096 287.442 642.987 287.442" stroke="#000000" stroke-width="5.47556" stroke-linejoin="round" stroke-miterlimit="10" fill="none" transform="matrix(1.00062 0 0 1 669 9)"/><path d="M626.096 287.442 642.987 287.442" stroke="#E69F00" stroke-width="2.87222" stroke-linejoin="round" stroke-miterlimit="10" fill="none" transform="matrix(1.00062 0 0 1 669 9)"/><text font-family="Arial,Arial_MSFontService,sans-serif" font-weight="400" font-size="8.8" transform="matrix(1.22298 0 0 1.22222 1321.2 258)">Hunting</text><text font-family="Arial,Arial_MSFontService,sans-serif" font-weight="400" font-size="8.8" transform="matrix(1.22298 0 0 1.22222 1321.2 279)">Other</text><text font-family="Arial,Arial_MSFontService,sans-serif" font-weight="400" font-size="8.8" transform="matrix(1.22298 0 0 1.22222 1321.2 300)">Territory</text></g></g></g></g><g clip-path="url(#clip7)"><g clip-path="url(#clip8)"><g clip-path="url(#clip9)"><path d="M0 0 754.301 0 754.301 502.867 0 502.867Z" fill="#FFFFFF" transform="matrix(1 0 0 1.01589 85.699 513)"/><g><path d="M0 0 754.301 0 754.301 502.867 0 502.867Z" stroke="#FFFFFF" stroke-width="1.24553" stroke-linecap="round" stroke-linejoin="round" stroke-miterlimit="10" fill="#FFFFFF" transform="matrix(1 0 0 1.01589 85.699 513)"/></g><g><path d="M62.032 456.282 62.032 52.0095" stroke="#000000" stroke-width="1.24553" stroke-linecap="square" stroke-linejoin="round" stroke-miterlimit="10" fill="none" transform="matrix(1 0 0 1.01589 85.699 513)"/><text font-family="Arial,Arial_MSFontService,sans-serif" font-weight="400" font-size="13" transform="matrix(1.16404 0 0 1.18254 112.54 982)">0</text><text font-family="Arial,Arial_MSFontService,sans-serif" font-weight="400" font-size="13" transform="matrix(1.16404 0 0 1.18254 120.956 982)">.</text><text font-family="Arial,Arial_MSFontService,sans-serif" font-weight="400" font-size="13" transform="matrix(1.16404 0 0 1.18254 125.16 982)">00</text><text font-family="Arial,Arial_MSFontService,sans-serif" font-weight="400" font-size="13" transform="matrix(1.16404 0 0 1.18254 112.54 879)">0</text><text font-family="Arial,Arial_MSFontService,sans-serif" font-weight="400" font-size="13" transform="matrix(1.16404 0 0 1.18254 120.956 879)">.</text><text font-family="Arial,Arial_MSFontService,sans-serif" font-weight="400" font-size="13" transform="matrix(1.16404 0 0 1.18254 125.16 879)">25</text><text font-family="Arial,Arial_MSFontService,sans-serif" font-weight="400" font-size="13" transform="matrix(1.16404 0 0 1.18254 112.54 777)">0</text><text font-family="Arial,Arial_MSFontService,sans-serif" font-weight="400" font-size="13" transform="matrix(1.16404 0 0 1.18254 120.956 777)">.</text><text font-family="Arial,Arial_MSFontService,sans-serif" font-weight="400" font-size="13" transform="matrix(1.16404 0 0 1.18254 125.16 777)">50</text><text font-family="Arial,Arial_MSFontService,sans-serif" font-weight="400" font-size="13" transform="matrix(1.16404 0 0 1.18254 112.54 674)">0</text><text font-family="Arial,Arial_MSFontService,sans-serif" font-weight="400" font-size="13" transform="matrix(1.16404 0 0 1.18254 120.956 674)">.</text><text font-family="Arial,Arial_MSFontService,sans-serif" font-weight="400" font-size="13" transform="matrix(1.16404 0 0 1.18254 125.16 674)">75</text><text font-family="Arial,Arial_MSFontService,sans-serif" font-weight="400" font-size="13" transform="matrix(1.16404 0 0 1.18254 112.54 571)">1</text><text font-family="Arial,Arial_MSFontService,sans-serif" font-weight="400" font-size="13" transform="matrix(1.16404 0 0 1.18254 120.956 571)">.</text><text font-family="Arial,Arial_MSFontService,sans-serif" font-weight="400" font-size="13" transform="matrix(1.16404 0 0 1.18254 125.16 571)">00</text><path d="M58.8425 456.282 62.032 456.282" stroke="#000000" stroke-width="1.24553" stroke-linejoin="round" stroke-miterlimit="10" fill="none" transform="matrix(1 0 0 1.01589 85.699 513)"/><path d="M58.8425 355.208 62.032 355.208" stroke="#000000" stroke-width="1.24553" stroke-linejoin="round" stroke-miterlimit="10" fill="none" transform="matrix(1 0 0 1.01589 85.699 513)"/><path d="M58.8425 254.146 62.032 254.146" stroke="#000000" stroke-width="1.24553" stroke-linejoin="round" stroke-miterlimit="10" fill="none" transform="matrix(1 0 0 1.01589 85.699 513)"/><path d="M58.8425 153.072 62.032 153.072" stroke="#000000" stroke-width="1.24553" stroke-linejoin="round" stroke-miterlimit="10" fill="none" transform="matrix(1 0 0 1.01589 85.699 513)"/><path d="M58.8425 52.0095 62.032 52.0095" stroke="#000000" stroke-width="1.24553" stroke-linejoin="round" stroke-miterlimit="10" fill="none" transform="matrix(1 0 0 1.01589 85.699 513)"/><path d="M62.032 456.282 747.922 456.282" stroke="#000000" stroke-width="1.24553" stroke-linecap="square" stroke-linejoin="round" stroke-miterlimit="10" fill="none" transform="matrix(1 0 0 1.01589 85.699 513)"/><path d="M112.214 459.472 112.214 456.282" stroke="#000000" stroke-width="1.24553" stroke-linejoin="round" stroke-miterlimit="10" fill="none" transform="matrix(1 0 0 1.01589 85.699 513)"/><path d="M195.862 459.472 195.862 456.282" stroke="#000000" stroke-width="1.24553" stroke-linejoin="round" stroke-miterlimit="10" fill="none" transform="matrix(1 0 0 1.01589 85.699 513)"/><path d="M279.51 459.472 279.51 456.282" stroke="#000000" stroke-width="1.24553" stroke-linejoin="round" stroke-miterlimit="10" fill="none" transform="matrix(1 0 0 1.01589 85.699 513)"/><path d="M363.159 459.472 363.159 456.282" stroke="#000000" stroke-width="1.24553" stroke-linejoin="round" stroke-miterlimit="10" fill="none" transform="matrix(1 0 0 1.01589 85.699 513)"/><path d="M446.795 459.472 446.795 456.282" stroke="#000000" stroke-width="1.24553" stroke-linejoin="round" stroke-miterlimit="10" fill="none" transform="matrix(1 0 0 1.01589 85.699 513)"/><path d="M530.444 459.472 530.444 456.282" stroke="#000000" stroke-width="1.24553" stroke-linejoin="round" stroke-miterlimit="10" fill="none" transform="matrix(1 0 0 1.01589 85.699 513)"/><path d="M614.092 459.472 614.092 456.282" stroke="#000000" stroke-width="1.24553" stroke-linejoin="round" stroke-miterlimit="10" fill="none" transform="matrix(1 0 0 1.01589 85.699 513)"/><path d="M697.74 459.472 697.74 456.282" stroke="#000000" stroke-width="1.24553" stroke-linejoin="round" stroke-miterlimit="10" fill="none" transform="matrix(1 0 0 1.01589 85.699 513)"/><text font-family="Arial,Arial_MSFontService,sans-serif" font-weight="400" font-size="13" transform="matrix(1.16404 0 0 1.18254 193.705 993)">8</text><text font-family="Arial,Arial_MSFontService,sans-serif" font-weight="400" font-size="13" transform="matrix(1.16404 0 0 1.18254 277.353 993)">9</text><text font-family="Arial,Arial_MSFontService,sans-serif" font-weight="400" font-size="13" transform="matrix(1.16404 0 0 1.18254 356.793 993)">10</text><text font-family="Arial,Arial_MSFontService,sans-serif" font-weight="400" font-size="13" transform="matrix(1.16404 0 0 1.18254 441.003 993)">11</text><text font-family="Arial,Arial_MSFontService,sans-serif" font-weight="400" font-size="13" transform="matrix(1.16404 0 0 1.18254 524.078 993)">12</text><text font-family="Arial,Arial_MSFontService,sans-serif" font-weight="400" font-size="13" transform="matrix(1.16404 0 0 1.18254 611.935 993)">1</text><text font-family="Arial,Arial_MSFontService,sans-serif" font-weight="400" font-size="13" transform="matrix(1.16404 0 0 1.18254 695.583 993)">2</text><text font-family="Arial,Arial_MSFontService,sans-serif" font-weight="400" font-size="13" transform="matrix(1.16404 0 0 1.18254 779.231 993)">3</text><text font-family="Arial,Arial_MSFontService,sans-serif" font-weight="400" font-size="16" transform="matrix(1.16404 0 0 1.18254 464.788 1013)">Month</text><text font-family="Arial,Arial_MSFontService,sans-serif" font-weight="400" font-size="16" transform="matrix(7.12771e-17 -1.18254 1.16404 7.24094e-17 105.406 848)">Porportion of days</text><path d="M409.36 6.37897 747.922 6.37897 747.922 39.2516 409.36 39.2516Z" fill="#FFFFFF" transform="matrix(1 0 0 1.01589 85.699 513)"/><text font-family="Arial,Arial_MSFontService,sans-serif" font-weight="400" font-size="16" transform="matrix(1.16404 0 0 1.18254 501.438 543)">Decision</text><path d="M493.602 12.7579 513.716 12.7579 513.716 32.8726 493.602 32.8726Z" fill="#FFFFFF" transform="matrix(1 0 0 1.01589 85.699 513)"/><path d="M495.615 22.8153 511.702 22.8153" stroke="#0072B2" stroke-width="2.47942" stroke-linejoin="round" stroke-miterlimit="10" fill="none" transform="matrix(1 0 0 1.01589 85.699 513)"/><path d="M495.615 22.8153 511.702 22.8153" stroke="#000000" stroke-width="5.21492" stroke-linejoin="round" stroke-miterlimit="10" fill="none" transform="matrix(1 0 0 1.01589 85.699 513)"/><path d="M495.615 22.8153 511.702 22.8153" stroke="#0072B2" stroke-width="2.73551" stroke-linejoin="round" stroke-miterlimit="10" fill="none" transform="matrix(1 0 0 1.01589 85.699 513)"/><path d="M582.616 12.7579 602.731 12.7579 602.731 32.8726 582.616 32.8726Z" fill="#FFFFFF" transform="matrix(1 0 0 1.01589 85.699 513)"/><path d="M584.63 22.8153 600.717 22.8153" stroke="#56B4E9" stroke-width="2.47942" stroke-linejoin="round" stroke-miterlimit="10" fill="none" transform="matrix(1 0 0 1.01589 85.699 513)"/><path d="M584.63 22.8153 600.717 22.8153" stroke="#000000" stroke-width="5.21492" stroke-linejoin="round" stroke-miterlimit="10" fill="none" transform="matrix(1 0 0 1.01589 85.699 513)"/><path d="M584.63 22.8153 600.717 22.8153" stroke="#56B4E9" stroke-width="2.73551" stroke-linejoin="round" stroke-miterlimit="10" fill="none" transform="matrix(1 0 0 1.01589 85.699 513)"/><path d="M656.23 12.7579 676.345 12.7579 676.345 32.8726 656.23 32.8726Z" fill="#FFFFFF" transform="matrix(1 0 0 1.01589 85.699 513)"/><path d="M658.244 22.8153 674.331 22.8153" stroke="#E69F00" stroke-width="2.47942" stroke-linejoin="round" stroke-miterlimit="10" fill="none" transform="matrix(1 0 0 1.01589 85.699 513)"/><path d="M658.244 22.8153 674.331 22.8153" stroke="#000000" stroke-width="5.21492" stroke-linejoin="round" stroke-miterlimit="10" fill="none" transform="matrix(1 0 0 1.01589 85.699 513)"/><path d="M658.244 22.8153 674.331 22.8153" stroke="#E69F00" stroke-width="2.73551" stroke-linejoin="round" stroke-miterlimit="10" fill="none" transform="matrix(1 0 0 1.01589 85.699 513)"/><text font-family="Arial,Arial_MSFontService,sans-serif" font-weight="400" font-size="14" transform="matrix(1.16404 0 0 1.18254 605.794 542)">Hunting</text><text font-family="Arial,Arial_MSFontService,sans-serif" font-weight="400" font-size="14" transform="matrix(1.16404 0 0 1.18254 694.809 542)">Other</text><text font-family="Arial,Arial_MSFontService,sans-serif" font-weight="400" font-size="14" transform="matrix(1.16404 0 0 1.18254 768.423 542)">Territory</text></g></g></g></g></g></svg>