<svg width="1280" height="720" xmlns="http://www.w3.org/2000/svg" xmlns:xlink="http://www.w3.org/1999/xlink" overflow="hidden"><defs><clipPath id="clip0"><rect x="0" y="0" width="1280" height="720"/></clipPath><clipPath id="clip1"><rect x="2" y="22" width="656" height="518"/></clipPath><clipPath id="clip2"><rect x="2" y="21" width="657" height="519"/></clipPath><clipPath id="clip3"><rect x="-2" y="-25" width="660" height="565"/></clipPath><clipPath id="clip4"><rect x="658" y="1" width="622" height="536"/></clipPath><clipPath id="clip5"><rect x="658" y="1" width="622" height="536"/></clipPath><clipPath id="clip6"><rect x="658" y="1" width="715" height="536"/></clipPath><clipPath id="clip7"><rect x="658" y="1" width="715" height="536"/></clipPath><clipPath id="clip8"><rect x="491" y="513" width="349" height="48"/></clipPath><clipPath id="clip9"><rect x="491" y="513" width="349" height="48"/></clipPath><clipPath id="clip10"><rect x="85" y="513" width="755" height="511"/></clipPath></defs><g clip-path="url(#clip0)"><rect x="0" y="0" width="1280" height="720" fill="#FFFFFF"/><g clip-path="url(#clip1)"><g clip-path="url(#clip2)"><g><path d="M0 0 658.925 0 658.925 564.793 0 564.793Z" fill="#FFFFFF" transform="matrix(1.00132 0 0 1 -1.79381 -24.7931)"/><g clip-path="url(#clip3)"><path d="M0 0 658.925 0 658.925 564.793 0 564.793Z" stroke="#FFFFFF" stroke-width="1.39891" stroke-linecap="round" stroke-linejoin="round" stroke-miterlimit="10" fill="#FFFFFF" transform="matrix(1.00132 0 0 1 -1.79381 -24.7931)"/></g><g><path d="M69.6709 58.4142 651.761 58.4142 651.761 512.471 69.6709 512.471Z" fill="#FFFFFF" transform="matrix(1.00132 0 0 1 -1.79381 -24.7931)"/><path d="M77.8682 509.948 159.855 501.005 241.841 423.791 323.828 252.353 405.801 314.088 487.788 340.17 569.774 342.301 651.761 258.079" stroke="#0072B2" stroke-width="2.78474" stroke-linejoin="round" stroke-miterlimit="10" fill="none" transform="matrix(1.00132 0 0 1 -1.79381 -24.7931)"/><path d="M77.8682 421.189 159.855 401.971 241.841 334.928 323.828 388.374 405.801 358.264 487.788 332.221 569.774 301.576 651.761 385.419" stroke="#A4D8F4" stroke-width="2.78474" stroke-linejoin="round" stroke-miterlimit="10" fill="none" transform="matrix(1.00132 0 0 1 -1.79381 -24.7931)"/><path d="M77.8682 152.22 159.855 180.381 241.841 324.638 323.828 442.63 405.801 410.992 487.788 410.965 569.774 439.48 651.761 439.859" stroke="#E69F00" stroke-width="2.78474" stroke-linejoin="round" stroke-miterlimit="10" fill="none" transform="matrix(1.00132 0 0 1 -1.79381 -24.7931)"/><path d="M77.8682 509.948 159.855 501.005 241.841 423.791 323.828 252.353 405.801 314.088 487.788 340.17 569.774 342.301 651.761 258.079" stroke="#000000" stroke-width="5.53027" stroke-linejoin="round" stroke-miterlimit="10" fill="none" transform="matrix(1.00132 0 0 1 -1.79381 -24.7931)"/><path d="M77.8682 509.948 159.855 501.005 241.841 423.791 323.828 252.353 405.801 314.088 487.788 340.17 569.774 342.301 651.761 258.079" stroke="#0072B2" stroke-width="3.07237" stroke-linejoin="round" stroke-miterlimit="10" fill="none" transform="matrix(1.00132 0 0 1 -1.79381 -24.7931)"/><path d="M77.8682 421.189 159.855 401.971 241.841 334.928 323.828 388.374 405.801 358.264 487.788 332.221 569.774 301.576 651.761 385.419" stroke="#000000" stroke-width="5.53027" stroke-linejoin="round" stroke-miterlimit="10" fill="none" transform="matrix(1.00132 0 0 1 -1.79381 -24.7931)"/><path d="M77.8682 421.189 159.855 401.971 241.841 334.928 323.828 388.374 405.801 358.264 487.788 332.221 569.774 301.576 651.761 385.419" stroke="#A4D8F4" stroke-width="3.07237" stroke-linejoin="round" stroke-miterlimit="10" fill="none" transform="matrix(1.00132 0 0 1 -1.79381 -24.7931)"/><path d="M77.8682 152.22 159.855 180.381 241.841 324.638 323.828 442.63 405.801 410.992 487.788 410.965 569.774 439.48 651.761 439.859" stroke="#000000" stroke-width="5.53027" stroke-linejoin="round" stroke-miterlimit="10" fill="none" transform="matrix(1.00132 0 0 1 -1.79381 -24.7931)"/><path d="M77.8682 152.22 159.855 180.381 241.841 324.638 323.828 442.63 405.801 410.992 487.788 410.965 569.774 439.48 651.761 439.859" stroke="#E69F00" stroke-width="3.07237" stroke-linejoin="round" stroke-miterlimit="10" fill="none" transform="matrix(1.00132 0 0 1 -1.79381 -24.7931)"/></g><g><path d="M69.6709 512.471 69.6709 58.4142" stroke="#000000" stroke-width="1.39891" stroke-linecap="square" stroke-linejoin="round" stroke-miterlimit="10" fill="none" transform="matrix(1.00132 0 0 1 -1.79381 -24.7931)"/><text font-family="Arial,Arial_MSFontService,sans-serif" font-weight="400" font-size="13" transform="matrix(1.30911 0 0 1.30739 28.3921 494)">0</text><text font-family="Arial,Arial_MSFontService,sans-serif" font-weight="400" font-size="13" transform="matrix(1.30911 0 0 1.30739 37.8569 494)">.</text><text font-family="Arial,Arial_MSFontService,sans-serif" font-weight="400" font-size="13" transform="matrix(1.30911 0 0 1.30739 42.5852 494)">00</text><text font-family="Arial,Arial_MSFontService,sans-serif" font-weight="400" font-size="13" transform="matrix(1.30911 0 0 1.30739 28.3921 380)">0</text><text font-family="Arial,Arial_MSFontService,sans-serif" font-weight="400" font-size="13" transform="matrix(1.30911 0 0 1.30739 37.8569 380)">.</text><text font-family="Arial,Arial_MSFontService,sans-serif" font-weight="400" font-size="13" transform="matrix(1.30911 0 0 1.30739 42.5852 380)">25</text><text font-family="Arial,Arial_MSFontService,sans-serif" font-weight="400" font-size="13" transform="matrix(1.30911 0 0 1.30739 28.3921 267)">0</text><text font-family="Arial,Arial_MSFontService,sans-serif" font-weight="400" font-size="13" transform="matrix(1.30911 0 0 1.30739 37.8569 267)">.</text><text font-family="Arial,Arial_MSFontService,sans-serif" font-weight="400" font-size="13" transform="matrix(1.30911 0 0 1.30739 42.5852 267)">50</text><text font-family="Arial,Arial_MSFontService,sans-serif" font-weight="400" font-size="13" transform="matrix(1.30911 0 0 1.30739 28.3921 153)">0</text><text font-family="Arial,Arial_MSFontService,sans-serif" font-weight="400" font-size="13" transform="matrix(1.30911 0 0 1.30739 37.8569 153)">.</text><text font-family="Arial,Arial_MSFontService,sans-serif" font-weight="400" font-size="13" transform="matrix(1.30911 0 0 1.30739 42.5852 153)">75</text><text font-family="Arial,Arial_MSFontService,sans-serif" font-weight="400" font-size="13" transform="matrix(1.30911 0 0 1.30739 28.3921 40)">1</text><text font-family="Arial,Arial_MSFontService,sans-serif" font-weight="400" font-size="13" transform="matrix(1.30911 0 0 1.30739 37.8569 40)">.</text><text font-family="Arial,Arial_MSFontService,sans-serif" font-weight="400" font-size="13" transform="matrix(1.30911 0 0 1.30739 42.5852 40)">00</text><path d="M66.0886 512.471 69.6709 512.471" stroke="#000000" stroke-width="1.39891" stroke-linejoin="round" stroke-miterlimit="10" fill="none" transform="matrix(1.00132 0 0 1 -1.79381 -24.7931)"/><path d="M66.0886 398.95 69.6709 398.95" stroke="#000000" stroke-width="1.39891" stroke-linejoin="round" stroke-miterlimit="10" fill="none" transform="matrix(1.00132 0 0 1 -1.79381 -24.7931)"/><path d="M66.0886 285.443 69.6709 285.443" stroke="#000000" stroke-width="1.39891" stroke-linejoin="round" stroke-miterlimit="10" fill="none" transform="matrix(1.00132 0 0 1 -1.79381 -24.7931)"/><path d="M66.0886 171.922 69.6709 171.922" stroke="#000000" stroke-width="1.39891" stroke-linejoin="round" stroke-miterlimit="10" fill="none" transform="matrix(1.00132 0 0 1 -1.79381 -24.7931)"/><path d="M66.0886 58.4142 69.6709 58.4142" stroke="#000000" stroke-width="1.39891" stroke-linejoin="round" stroke-miterlimit="10" fill="none" transform="matrix(1.00132 0 0 1 -1.79381 -24.7931)"/><path d="M69.6709 512.471 651.761 512.471" stroke="#000000" stroke-width="1.39891" stroke-linecap="square" stroke-linejoin="round" stroke-miterlimit="10" fill="none" transform="matrix(1.00132 0 0 1 -1.79381 -24.7931)"/><path d="M77.8682 516.054 77.8682 512.471" stroke="#000000" stroke-width="1.39891" stroke-linejoin="round" stroke-miterlimit="10" fill="none" transform="matrix(1.00132 0 0 1 -1.79381 -24.7931)"/><path d="M159.855 516.054 159.855 512.471" stroke="#000000" stroke-width="1.39891" stroke-linejoin="round" stroke-miterlimit="10" fill="none" transform="matrix(1.00132 0 0 1 -1.79381 -24.7931)"/><path d="M241.841 516.054 241.841 512.471" stroke="#000000" stroke-width="1.39891" stroke-linejoin="round" stroke-miterlimit="10" fill="none" transform="matrix(1.00132 0 0 1 -1.79381 -24.7931)"/><path d="M323.828 516.054 323.828 512.471" stroke="#000000" stroke-width="1.39891" stroke-linejoin="round" stroke-miterlimit="10" fill="none" transform="matrix(1.00132 0 0 1 -1.79381 -24.7931)"/><path d="M405.801 516.054 405.801 512.471" stroke="#000000" stroke-width="1.39891" stroke-linejoin="round" stroke-miterlimit="10" fill="none" transform="matrix(1.00132 0 0 1 -1.79381 -24.7931)"/><path d="M487.788 516.054 487.788 512.471" stroke="#000000" stroke-width="1.39891" stroke-linejoin="round" stroke-miterlimit="10" fill="none" transform="matrix(1.00132 0 0 1 -1.79381 -24.7931)"/><path d="M569.774 516.054 569.774 512.471" stroke="#000000" stroke-width="1.39891" stroke-linejoin="round" stroke-miterlimit="10" fill="none" transform="matrix(1.00132 0 0 1 -1.79381 -24.7931)"/><path d="M651.761 516.054 651.761 512.471" stroke="#000000" stroke-width="1.39891" stroke-linejoin="round" stroke-miterlimit="10" fill="none" transform="matrix(1.00132 0 0 1 -1.79381 -24.7931)"/><text font-family="Arial,Arial_MSFontService,sans-serif" font-weight="400" font-size="13" transform="matrix(1.30911 0 0 1.30739 71.4446 506)">8</text><text font-family="Arial,Arial_MSFontService,sans-serif" font-weight="400" font-size="13" transform="matrix(1.30911 0 0 1.30739 153.539 506)">9</text><text font-family="Arial,Arial_MSFontService,sans-serif" font-weight="400" font-size="13" transform="matrix(1.30911 0 0 1.30739 230.901 506)">10</text><text font-family="Arial,Arial_MSFontService,sans-serif" font-weight="400" font-size="13" transform="matrix(1.30911 0 0 1.30739 313.627 506)">11</text><text font-family="Arial,Arial_MSFontService,sans-serif" font-weight="400" font-size="13" transform="matrix(1.30911 0 0 1.30739 395.077 506)">12</text><text font-family="Arial,Arial_MSFontService,sans-serif" font-weight="400" font-size="13" transform="matrix(1.30911 0 0 1.30739 481.904 506)">1</text><text font-family="Arial,Arial_MSFontService,sans-serif" font-weight="400" font-size="13" transform="matrix(1.30911 0 0 1.30739 563.999 506)">2</text><text font-family="Arial,Arial_MSFontService,sans-serif" font-weight="400" font-size="13" transform="matrix(1.30911 0 0 1.30739 646.094 506)">3</text><text font-family="Arial,Arial_MSFontService,sans-serif" font-weight="400" font-size="16" transform="matrix(1.30911 0 0 1.30739 330.284 528)">Month</text><text font-family="Arial,Arial_MSFontService,sans-serif" font-weight="400" font-size="16" transform="matrix(8.01602e-17 -1.30739 1.30911 8.00546e-17 20.3695 346)">Porportion of days</text><path d="M271.506 7.16451 651.761 7.16451 651.761 44.0852 271.506 44.0852Z" fill="#FFFFFF" transform="matrix(1.00132 0 0 1 -1.79381 -24.7931)"/><text font-family="Arial,Arial_MSFontService,sans-serif" font-weight="400" font-size="16" transform="matrix(1.30911 0 0 1.30739 277.244 8)">Decision</text><path d="M366.122 14.329 388.714 14.329 388.714 36.9207 366.122 36.9207Z" fill="#FFFFFF" transform="matrix(1.00132 0 0 1 -1.79381 -24.7931)"/><path d="M368.384 25.6249 386.452 25.6249" stroke="#0072B2" stroke-width="2.78474" stroke-linejoin="round" stroke-miterlimit="10" fill="none" transform="matrix(1.00132 0 0 1 -1.79381 -24.7931)"/><path d="M368.384 25.6249 386.452 25.6249" stroke="#000000" stroke-width="5.85711" stroke-linejoin="round" stroke-miterlimit="10" fill="none" transform="matrix(1.00132 0 0 1 -1.79381 -24.7931)"/><path d="M368.384 25.6249 386.452 25.6249" stroke="#0072B2" stroke-width="3.07237" stroke-linejoin="round" stroke-miterlimit="10" fill="none" transform="matrix(1.00132 0 0 1 -1.79381 -24.7931)"/><path d="M466.098 14.329 488.69 14.329 488.69 36.9207 466.098 36.9207Z" fill="#FFFFFF" transform="matrix(1.00132 0 0 1 -1.79381 -24.7931)"/><path d="M468.36 25.6249 486.428 25.6249" stroke="#A4D8F4" stroke-width="2.78474" stroke-linejoin="round" stroke-miterlimit="10" fill="none" transform="matrix(1.00132 0 0 1 -1.79381 -24.7931)"/><path d="M468.36 25.6249 486.428 25.6249" stroke="#000000" stroke-width="5.85711" stroke-linejoin="round" stroke-miterlimit="10" fill="none" transform="matrix(1.00132 0 0 1 -1.79381 -24.7931)"/><path d="M468.36 25.6249 486.428 25.6249" stroke="#A4D8F4" stroke-width="3.07237" stroke-linejoin="round" stroke-miterlimit="10" fill="none" transform="matrix(1.00132 0 0 1 -1.79381 -24.7931)"/><path d="M548.778 14.329 571.369 14.329 571.369 36.9207 548.778 36.9207Z" fill="#FFFFFF" transform="matrix(1.00132 0 0 1 -1.79381 -24.7931)"/><path d="M551.039 25.6249 569.107 25.6249" stroke="#E69F00" stroke-width="2.78474" stroke-linejoin="round" stroke-miterlimit="10" fill="none" transform="matrix(1.00132 0 0 1 -1.79381 -24.7931)"/><path d="M551.039 25.6249 569.107 25.6249" stroke="#000000" stroke-width="5.85711" stroke-linejoin="round" stroke-miterlimit="10" fill="none" transform="matrix(1.00132 0 0 1 -1.79381 -24.7931)"/><path d="M551.039 25.6249 569.107 25.6249" stroke="#E69F00" stroke-width="3.07237" stroke-linejoin="round" stroke-miterlimit="10" fill="none" transform="matrix(1.00132 0 0 1 -1.79381 -24.7931)"/><text font-family="Arial,Arial_MSFontService,sans-serif" font-weight="400" font-size="14" transform="matrix(1.30911 0 0 1.30739 394.606 7)">Hunting</text><text font-family="Arial,Arial_MSFontService,sans-serif" font-weight="400" font-size="14" transform="matrix(1.30911 0 0 1.30739 494.714 7)">Other</text><text font-family="Arial,Arial_MSFontService,sans-serif" font-weight="400" font-size="14" transform="matrix(1.30911 0 0 1.30739 577.503 7)">Territory</text></g></g></g></g><g clip-path="url(#clip4)"><g clip-path="url(#clip5)"><g clip-path="url(#clip6)"><path d="M0 0 714.667 0 714.667 536 0 536Z" fill="#FFFFFF" transform="matrix(1.00042 0 0 1 658 1)"/><g clip-path="url(#clip7)"><path d="M-7.94074e-14 0 714.667 0 714.667 536 0 536Z" stroke="#FFFFFF" stroke-width="1.32759" stroke-linecap="round" stroke-linejoin="round" stroke-miterlimit="10" fill="#FFFFFF" transform="matrix(1.00042 0 0 1 658 1)"/></g><g><path d="M66.1191 34.9269 336.179 34.9269 336.179 243.173 66.1191 243.173Z" fill="#FFFFFF" transform="matrix(1.00042 0 0 1 658 1)"/><path d="M78.39 243.173 86.5789 243.173 94.7554 243.173 102.944 222.353 111.133 243.173 119.31 243.173 127.499 243.173 135.675 243.173 143.864 243.173 152.04 201.521 160.229 243.173 168.418 243.173 176.595 243.173 184.784 243.173 192.96 243.173 201.149 243.173 209.338 243.173 217.514 222.353 225.703 191.111 233.88 243.173 242.069 243.173 250.245 201.521 258.434 243.173 266.623 243.173 274.799 243.173 282.988 201.521 291.165 243.173 299.354 243.173 307.542 243.173 315.719 243.173 323.908 243.173" stroke="#0072B2" stroke-width="2.64278" stroke-linejoin="round" stroke-miterlimit="10" fill="none" transform="matrix(1.00042 0 0 1 658 1)"/><path d="M78.39 168.964 86.5789 183.22 94.7554 205.69 102.944 189.027 111.133 183.94 119.31 221.398 127.499 169.721 135.675 159.237 143.864 180.069 152.04 214.015 160.229 179.225 168.418 228.979 176.595 157.773 184.784 176.917 192.96 207.836 201.149 185.243 209.338 165.118 217.514 187.327 225.703 239.004 233.88 183.158 242.069 173.443 250.245 206.149 258.434 195.628 266.623 166.185 274.799 216.249 282.988 224.661 291.165 183.853 299.354 207.836 307.542 194.796 315.719 230.133 323.908 231.051" stroke="#A4D8F4" stroke-width="2.64278" stroke-linejoin="round" stroke-miterlimit="10" fill="none" transform="matrix(1.00042 0 0 1 658 1)"/><path d="M78.39 109.136 86.5789 94.8794 94.7554 72.4096 102.944 109.892 111.133 94.1598 119.31 56.7019 127.499 108.379 135.675 118.851 143.864 98.0309 152.04 105.736 160.229 98.8746 168.418 49.1209 176.595 120.327 184.784 101.182 192.96 70.2632 201.149 92.857 209.338 112.982 217.514 111.605 225.703 91.1572 233.88 94.9415 242.069 104.656 250.245 113.602 258.434 82.4596 266.623 111.915 274.799 61.8509 282.988 95.0904 291.165 94.2467 299.354 70.2632 307.542 83.3033 315.719 47.967 323.908 47.0365" stroke="#E69F00" stroke-width="2.64278" stroke-linejoin="round" stroke-miterlimit="10" fill="none" transform="matrix(1.00042 0 0 1 658 1)"/><path d="M78.39 243.173 86.5789 243.173 94.7554 243.173 102.944 222.353 111.133 243.173 119.31 243.173 127.499 243.173 135.675 243.173 143.864 243.173 152.04 201.521 160.229 243.173 168.418 243.173 176.595 243.173 184.784 243.173 192.96 243.173 201.149 243.173 209.338 243.173 217.514 222.353 225.703 191.111 233.88 243.173 242.069 243.173 250.245 201.521 258.434 243.173 266.623 243.173 274.799 243.173 282.988 201.521 291.165 243.173 299.354 243.173 307.542 243.173 315.719 243.173 323.908 243.173" stroke="#000000" stroke-width="5.24833" stroke-linejoin="round" stroke-miterlimit="10" fill="none" transform="matrix(1.00042 0 0 1 658 1)"/><path d="M78.39 243.173 86.5789 243.173 94.7554 243.173 102.944 222.353 111.133 243.173 119.31 243.173 127.499 243.173 135.675 243.173 143.864 243.173 152.04 201.521 160.229 243.173 168.418 243.173 176.595 243.173 184.784 243.173 192.96 243.173 201.149 243.173 209.338 243.173 217.514 222.353 225.703 191.111 233.88 243.173 242.069 243.173 250.245 201.521 258.434 243.173 266.623 243.173 274.799 243.173 282.988 201.521 291.165 243.173 299.354 243.173 307.542 243.173 315.719 243.173 323.908 243.173" stroke="#0072B2" stroke-width="2.91574" stroke-linejoin="round" stroke-miterlimit="10" fill="none" transform="matrix(1.00042 0 0 1 658 1)"/><path d="M78.39 168.964 86.5789 183.22 94.7554 205.69 102.944 189.027 111.133 183.94 119.31 221.398 127.499 169.721 135.675 159.237 143.864 180.069 152.04 214.015 160.229 179.225 168.418 228.979 176.595 157.773 184.784 176.917 192.96 207.836 201.149 185.243 209.338 165.118 217.514 187.327 225.703 239.004 233.88 183.158 242.069 173.443 250.245 206.149 258.434 195.628 266.623 166.185 274.799 216.249 282.988 224.661 291.165 183.853 299.354 207.836 307.542 194.796 315.719 230.133 323.908 231.051" stroke="#000000" stroke-width="5.24833" stroke-linejoin="round" stroke-miterlimit="10" fill="none" transform="matrix(1.00042 0 0 1 658 1)"/><path d="M78.39 168.964 86.5789 183.22 94.7554 205.69 102.944 189.027 111.133 183.94 119.31 221.398 127.499 169.721 135.675 159.237 143.864 180.069 152.04 214.015 160.229 179.225 168.418 228.979 176.595 157.773 184.784 176.917 192.96 207.836 201.149 185.243 209.338 165.118 217.514 187.327 225.703 239.004 233.88 183.158 242.069 173.443 250.245 206.149 258.434 195.628 266.623 166.185 274.799 216.249 282.988 224.661 291.165 183.853 299.354 207.836 307.542 194.796 315.719 230.133 323.908 231.051" stroke="#A4D8F4" stroke-width="2.91574" stroke-linejoin="round" stroke-miterlimit="10" fill="none" transform="matrix(1.00042 0 0 1 658 1)"/><path d="M78.39 109.136 86.5789 94.8794 94.7554 72.4096 102.944 109.892 111.133 94.1598 119.31 56.7019 127.499 108.379 135.675 118.851 143.864 98.0309 152.04 105.736 160.229 98.8746 168.418 49.1209 176.595 120.327 184.784 101.182 192.96 70.2632 201.149 92.857 209.338 112.982 217.514 111.605 225.703 91.1572 233.88 94.9415 242.069 104.656 250.245 113.602 258.434 82.4596 266.623 111.915 274.799 61.8509 282.988 95.0904 291.165 94.2467 299.354 70.2632 307.542 83.3033 315.719 47.967 323.908 47.0365" stroke="#000000" stroke-width="5.24833" stroke-linejoin="round" stroke-miterlimit="10" fill="none" transform="matrix(1.00042 0 0 1 658 1)"/><path d="M78.39 109.136 86.5789 94.8794 94.7554 72.4096 102.944 109.892 111.133 94.1598 119.31 56.7019 127.499 108.379 135.675 118.851 143.864 98.0309 152.04 105.736 160.229 98.8746 168.418 49.1209 176.595 120.327 184.784 101.182 192.96 70.2632 201.149 92.857 209.338 112.982 217.514 111.605 225.703 91.1572 233.88 94.9415 242.069 104.656 250.245 113.602 258.434 82.4596 266.623 111.915 274.799 61.8509 282.988 95.0904 291.165 94.2467 299.354 70.2632 307.542 83.3033 315.719 47.967 323.908 47.0365" stroke="#E69F00" stroke-width="2.91574" stroke-linejoin="round" stroke-miterlimit="10" fill="none" transform="matrix(1.00042 0 0 1 658 1)"/></g><g><path d="M66.1191 278.1 336.179 278.1 336.179 486.346 66.1191 486.346Z" fill="#FFFFFF" transform="matrix(1.00042 0 0 1 658 1)"/><path d="M78.39 486.346 86.5789 426.84 94.7554 374.778 102.944 419.408 111.133 434.284 119.31 486.346 127.499 382.223 135.675 434.284 143.864 486.346 152.04 374.778 160.229 376.441 168.418 425.611 176.595 416.926 184.784 382.223 192.96 442.957 201.149 486.346 209.338 452.87 217.514 451.642 225.703 486.346 233.88 451.642 242.069 399.581 250.245 399.581 258.434 412.596 266.623 402.05 274.799 402.05 282.988 407.013 291.165 418.415 299.354 387.186 307.542 361.403 315.719 346.03 323.908 377.26" stroke="#0072B2" stroke-width="2.64278" stroke-linejoin="round" stroke-miterlimit="10" fill="none" transform="matrix(1.00042 0 0 1 658 1)"/><path d="M78.39 344.293 86.5789 403.787 94.7554 451.394 102.944 388.91 111.133 381.478 119.31 354.331 127.499 436.145 135.675 431.492 143.864 353.4 152.04 451.022 160.229 449.322 168.418 451.642 176.595 447.299 184.784 423.44 192.96 347.519 201.149 330.161 209.338 408.253 217.514 435.525 225.703 410.735 233.88 395.858 242.069 410.735 250.245 401.739 258.434 380.051 266.623 377.26 274.799 445.438 282.988 425.859 291.165 388.166 299.354 419.408 307.542 416.926 315.719 468.491 323.908 393.129" stroke="#A4D8F4" stroke-width="2.64278" stroke-linejoin="round" stroke-miterlimit="10" fill="none" transform="matrix(1.00042 0 0 1 658 1)"/><path d="M78.39 420.152 86.5789 420.152 94.7554 424.619 102.944 442.461 111.133 435.029 119.31 410.114 127.499 432.423 135.675 385.014 143.864 411.045 152.04 424.991 160.229 425.028 168.418 373.55 176.595 386.565 184.784 445.128 192.96 460.315 201.149 434.284 209.338 389.655 217.514 363.624 225.703 353.71 233.88 403.29 242.069 440.475 250.245 449.471 258.434 458.144 266.623 471.469 274.799 403.29 282.988 417.919 291.165 444.198 299.354 444.198 307.542 472.462 315.719 436.269 323.908 480.39" stroke="#E69F00" stroke-width="2.64278" stroke-linejoin="round" stroke-miterlimit="10" fill="none" transform="matrix(1.00042 0 0 1 658 1)"/><path d="M78.39 486.346 86.5789 426.84 94.7554 374.778 102.944 419.408 111.133 434.284 119.31 486.346 127.499 382.223 135.675 434.284 143.864 486.346 152.04 374.778 160.229 376.441 168.418 425.611 176.595 416.926 184.784 382.223 192.96 442.957 201.149 486.346 209.338 452.87 217.514 451.642 225.703 486.346 233.88 451.642 242.069 399.581 250.245 399.581 258.434 412.596 266.623 402.05 274.799 402.05 282.988 407.013 291.165 418.415 299.354 387.186 307.542 361.403 315.719 346.03 323.908 377.26" stroke="#000000" stroke-width="5.24833" stroke-linejoin="round" stroke-miterlimit="10" fill="none" transform="matrix(1.00042 0 0 1 658 1)"/><path d="M78.39 486.346 86.5789 426.84 94.7554 374.778 102.944 419.408 111.133 434.284 119.31 486.346 127.499 382.223 135.675 434.284 143.864 486.346 152.04 374.778 160.229 376.441 168.418 425.611 176.595 416.926 184.784 382.223 192.96 442.957 201.149 486.346 209.338 452.87 217.514 451.642 225.703 486.346 233.88 451.642 242.069 399.581 250.245 399.581 258.434 412.596 266.623 402.05 274.799 402.05 282.988 407.013 291.165 418.415 299.354 387.186 307.542 361.403 315.719 346.03 323.908 377.26" stroke="#0072B2" stroke-width="2.91574" stroke-linejoin="round" stroke-miterlimit="10" fill="none" transform="matrix(1.00042 0 0 1 658 1)"/><path d="M78.39 344.293 86.5789 403.787 94.7554 451.394 102.944 388.91 111.133 381.478 119.31 354.331 127.499 436.145 135.675 431.492 143.864 353.4 152.04 451.022 160.229 449.322 168.418 451.642 176.595 447.299 184.784 423.44 192.96 347.519 201.149 330.161 209.338 408.253 217.514 435.525 225.703 410.735 233.88 395.858 242.069 410.735 250.245 401.739 258.434 380.051 266.623 377.26 274.799 445.438 282.988 425.859 291.165 388.166 299.354 419.408 307.542 416.926 315.719 468.491 323.908 393.129" stroke="#000000" stroke-width="5.24833" stroke-linejoin="round" stroke-miterlimit="10" fill="none" transform="matrix(1.00042 0 0 1 658 1)"/><path d="M78.39 344.293 86.5789 403.787 94.7554 451.394 102.944 388.91 111.133 381.478 119.31 354.331 127.499 436.145 135.675 431.492 143.864 353.4 152.04 451.022 160.229 449.322 168.418 451.642 176.595 447.299 184.784 423.44 192.96 347.519 201.149 330.161 209.338 408.253 217.514 435.525 225.703 410.735 233.88 395.858 242.069 410.735 250.245 401.739 258.434 380.051 266.623 377.26 274.799 445.438 282.988 425.859 291.165 388.166 299.354 419.408 307.542 416.926 315.719 468.491 323.908 393.129" stroke="#A4D8F4" stroke-width="2.91574" stroke-linejoin="round" stroke-miterlimit="10" fill="none" transform="matrix(1.00042 0 0 1 658 1)"/><path d="M78.39 420.152 86.5789 420.152 94.7554 424.619 102.944 442.461 111.133 435.029 119.31 410.114 127.499 432.423 135.675 385.014 143.864 411.045 152.04 424.991 160.229 425.028 168.418 373.55 176.595 386.565 184.784 445.128 192.96 460.315 201.149 434.284 209.338 389.655 217.514 363.624 225.703 353.71 233.88 403.29 242.069 440.475 250.245 449.471 258.434 458.144 266.623 471.469 274.799 403.29 282.988 417.919 291.165 444.198 299.354 444.198 307.542 472.462 315.719 436.269 323.908 480.39" stroke="#000000" stroke-width="5.24833" stroke-linejoin="round" stroke-miterlimit="10" fill="none" transform="matrix(1.00042 0 0 1 658 1)"/><path d="M78.39 420.152 86.5789 420.152 94.7554 424.619 102.944 442.461 111.133 435.029 119.31 410.114 127.499 432.423 135.675 385.014 143.864 411.045 152.04 424.991 160.229 425.028 168.418 373.55 176.595 386.565 184.784 445.128 192.96 460.315 201.149 434.284 209.338 389.655 217.514 363.624 225.703 353.71 233.88 403.29 242.069 440.475 250.245 449.471 258.434 458.144 266.623 471.469 274.799 403.29 282.988 417.919 291.165 444.198 299.354 444.198 307.542 472.462 315.719 436.269 323.908 480.39" stroke="#E69F00" stroke-width="2.91574" stroke-linejoin="round" stroke-miterlimit="10" fill="none" transform="matrix(1.00042 0 0 1 658 1)"/></g><g><path d="M342.978 34.9269 613.038 34.9269 613.038 243.173 342.978 243.173Z" fill="#FFFFFF" transform="matrix(1.00042 0 0 1 658 1)"/><path d="M355.249 243.173 363.438 243.173 371.627 243.173 379.803 243.173 387.992 243.173 396.169 243.173 404.357 243.173 412.546 243.173 420.723 243.173 428.912 243.173 437.088 201.521 445.277 201.521 453.454 201.521 461.642 201.521 469.831 237.962 478.008 243.173 486.197 191.111 494.373 243.173 502.562 243.173 510.751 196.322 518.927 183.679 527.116 191.111 535.293 234.177 543.482 159.869 551.658 201.521 559.847 195.578 568.036 243.173 576.212 201.521 584.401 243.173 592.578 243.173" stroke="#0072B2" stroke-width="2.64278" stroke-linejoin="round" stroke-miterlimit="10" fill="none" transform="matrix(1.00042 0 0 1 658 1)"/><path d="M355.249 225.505 363.438 234.177 371.627 217.614 379.803 227.18 387.992 218.457 396.169 170.403 404.357 227.204 412.546 214.189 420.723 211.224 428.912 185.54 437.088 180.429 445.277 204.362 453.454 209.574 461.642 174.547 469.831 152.301 478.008 175.143 486.197 201.174 494.373 202.948 502.562 227.204 510.751 184.957 518.927 216.807 527.116 149.112 535.293 84.6185 543.482 205.777 551.658 173.406 559.847 169.398 568.036 197.799 576.212 206.881 584.401 159.274 592.578 161.061" stroke="#A4D8F4" stroke-width="2.64278" stroke-linejoin="round" stroke-miterlimit="10" fill="none" transform="matrix(1.00042 0 0 1 658 1)"/><path d="M355.249 52.595 363.438 43.9222 371.627 60.4861 379.803 50.9076 387.992 59.6424 396.169 107.696 404.357 50.8952 412.546 63.9106 420.723 66.8759 428.912 92.5593 437.088 139.323 445.277 115.389 453.454 110.178 461.642 145.204 469.831 130.997 478.008 102.957 486.197 128.987 494.373 75.1517 502.562 50.8952 510.751 139.993 518.927 120.799 527.116 181.049 535.293 202.464 543.482 155.614 551.658 146.333 559.847 156.309 568.036 80.2883 576.212 112.87 584.401 118.826 592.578 117.039" stroke="#E69F00" stroke-width="2.64278" stroke-linejoin="round" stroke-miterlimit="10" fill="none" transform="matrix(1.00042 0 0 1 658 1)"/><path d="M355.249 243.173 363.438 243.173 371.627 243.173 379.803 243.173 387.992 243.173 396.169 243.173 404.357 243.173 412.546 243.173 420.723 243.173 428.912 243.173 437.088 201.521 445.277 201.521 453.454 201.521 461.642 201.521 469.831 237.962 478.008 243.173 486.197 191.111 494.373 243.173 502.562 243.173 510.751 196.322 518.927 183.679 527.116 191.111 535.293 234.177 543.482 159.869 551.658 201.521 559.847 195.578 568.036 243.173 576.212 201.521 584.401 243.173 592.578 243.173" stroke="#000000" stroke-width="5.24833" stroke-linejoin="round" stroke-miterlimit="10" fill="none" transform="matrix(1.00042 0 0 1 658 1)"/><path d="M355.249 243.173 363.438 243.173 371.627 243.173 379.803 243.173 387.992 243.173 396.169 243.173 404.357 243.173 412.546 243.173 420.723 243.173 428.912 243.173 437.088 201.521 445.277 201.521 453.454 201.521 461.642 201.521 469.831 237.962 478.008 243.173 486.197 191.111 494.373 243.173 502.562 243.173 510.751 196.322 518.927 183.679 527.116 191.111 535.293 234.177 543.482 159.869 551.658 201.521 559.847 195.578 568.036 243.173 576.212 201.521 584.401 243.173 592.578 243.173" stroke="#0072B2" stroke-width="2.91574" stroke-linejoin="round" stroke-miterlimit="10" fill="none" transform="matrix(1.00042 0 0 1 658 1)"/><path d="M355.249 225.505 363.438 234.177 371.627 217.614 379.803 227.18 387.992 218.457 396.169 170.403 404.357 227.204 412.546 214.189 420.723 211.224 428.912 185.54 437.088 180.429 445.277 204.362 453.454 209.574 461.642 174.547 469.831 152.301 478.008 175.143 486.197 201.174 494.373 202.948 502.562 227.204 510.751 184.957 518.927 216.807 527.116 149.112 535.293 84.6185 543.482 205.777 551.658 173.406 559.847 169.398 568.036 197.799 576.212 206.881 584.401 159.274 592.578 161.061" stroke="#000000" stroke-width="5.24833" stroke-linejoin="round" stroke-miterlimit="10" fill="none" transform="matrix(1.00042 0 0 1 658 1)"/><path d="M355.249 225.505 363.438 234.177 371.627 217.614 379.803 227.18 387.992 218.457 396.169 170.403 404.357 227.204 412.546 214.189 420.723 211.224 428.912 185.54 437.088 180.429 445.277 204.362 453.454 209.574 461.642 174.547 469.831 152.301 478.008 175.143 486.197 201.174 494.373 202.948 502.562 227.204 510.751 184.957 518.927 216.807 527.116 149.112 535.293 84.6185 543.482 205.777 551.658 173.406 559.847 169.398 568.036 197.799 576.212 206.881 584.401 159.274 592.578 161.061" stroke="#A4D8F4" stroke-width="2.91574" stroke-linejoin="round" stroke-miterlimit="10" fill="none" transform="matrix(1.00042 0 0 1 658 1)"/><path d="M355.249 52.595 363.438 43.9222 371.627 60.4861 379.803 50.9076 387.992 59.6424 396.169 107.696 404.357 50.8952 412.546 63.9106 420.723 66.8759 428.912 92.5593 437.088 139.323 445.277 115.389 453.454 110.178 461.642 145.204 469.831 130.997 478.008 102.957 486.197 128.987 494.373 75.1517 502.562 50.8952 510.751 139.993 518.927 120.799 527.116 181.049 535.293 202.464 543.482 155.614 551.658 146.333 559.847 156.309 568.036 80.2883 576.212 112.87 584.401 118.826 592.578 117.039" stroke="#000000" stroke-width="5.24833" stroke-linejoin="round" stroke-miterlimit="10" fill="none" transform="matrix(1.00042 0 0 1 658 1)"/><path d="M355.249 52.595 363.438 43.9222 371.627 60.4861 379.803 50.9076 387.992 59.6424 396.169 107.696 404.357 50.8952 412.546 63.9106 420.723 66.8759 428.912 92.5593 437.088 139.323 445.277 115.389 453.454 110.178 461.642 145.204 469.831 130.997 478.008 102.957 486.197 128.987 494.373 75.1517 502.562 50.8952 510.751 139.993 518.927 120.799 527.116 181.049 535.293 202.464 543.482 155.614 551.658 146.333 559.847 156.309 568.036 80.2883 576.212 112.87 584.401 118.826 592.578 117.039" stroke="#E69F00" stroke-width="2.91574" stroke-linejoin="round" stroke-miterlimit="10" fill="none" transform="matrix(1.00042 0 0 1 658 1)"/></g><g><path d="M342.978 278.1 613.038 278.1 613.038 486.346 342.978 486.346Z" fill="#FFFFFF" transform="matrix(1.00042 0 0 1 658 1)"/><path d="M355.249 371.316 363.438 358.425 371.627 375.771 379.803 325.198 387.992 337.593 396.169 366.019 404.357 366.602 412.546 370.919 420.723 366.354 428.912 347.519 437.088 365.559 445.277 354.455 453.454 361.403 461.642 350.981 469.831 334.504 478.008 340.286 486.197 304.13 494.373 343.176 502.562 338.71 510.751 324.876 518.927 340.757 527.116 334.069 535.293 339.578 543.482 349.678 551.658 347.519 559.847 375.709 568.036 350.236 576.212 386.851 584.401 398.414 592.578 389.158" stroke="#0072B2" stroke-width="2.64278" stroke-linejoin="round" stroke-miterlimit="10" fill="none" transform="matrix(1.00042 0 0 1 658 1)"/><path d="M355.249 399.084 363.438 411.976 371.627 422.385 379.803 471.469 387.992 426.84 396.169 416.926 404.357 413.464 412.546 401.851 420.723 411.976 428.912 430.81 437.088 422.485 445.277 423.874 453.454 409.99 461.642 418.663 469.831 438.627 478.008 428.502 486.197 465.514 494.373 440.786 502.562 453.615 510.751 460.563 518.927 444.136 527.116 456.406 535.293 424.867 543.482 434.284 551.658 422.708 559.847 422.571 568.036 445.438 576.212 422.323 584.401 436.977 592.578 406.516" stroke="#A4D8F4" stroke-width="2.64278" stroke-linejoin="round" stroke-miterlimit="10" fill="none" transform="matrix(1.00042 0 0 1 658 1)"/><path d="M355.249 480.39 363.438 480.39 371.627 452.622 379.803 454.111 387.992 486.346 396.169 467.834 404.357 470.725 412.546 478.02 420.723 472.462 428.912 472.462 437.088 462.747 445.277 472.462 453.454 479.397 461.642 481.134 469.831 477.673 478.008 482.003 486.197 481.134 494.373 466.816 502.562 458.454 510.751 465.352 518.927 465.886 527.116 460.315 535.293 486.346 543.482 466.816 551.658 480.564 559.847 452.498 568.036 455.104 576.212 441.604 584.401 415.388 592.578 455.104" stroke="#E69F00" stroke-width="2.64278" stroke-linejoin="round" stroke-miterlimit="10" fill="none" transform="matrix(1.00042 0 0 1 658 1)"/><path d="M355.249 371.316 363.438 358.425 371.627 375.771 379.803 325.198 387.992 337.593 396.169 366.019 404.357 366.602 412.546 370.919 420.723 366.354 428.912 347.519 437.088 365.559 445.277 354.455 453.454 361.403 461.642 350.981 469.831 334.504 478.008 340.286 486.197 304.13 494.373 343.176 502.562 338.71 510.751 324.876 518.927 340.757 527.116 334.069 535.293 339.578 543.482 349.678 551.658 347.519 559.847 375.709 568.036 350.236 576.212 386.851 584.401 398.414 592.578 389.158" stroke="#000000" stroke-width="5.24833" stroke-linejoin="round" stroke-miterlimit="10" fill="none" transform="matrix(1.00042 0 0 1 658 1)"/><path d="M355.249 371.316 363.438 358.425 371.627 375.771 379.803 325.198 387.992 337.593 396.169 366.019 404.357 366.602 412.546 370.919 420.723 366.354 428.912 347.519 437.088 365.559 445.277 354.455 453.454 361.403 461.642 350.981 469.831 334.504 478.008 340.286 486.197 304.13 494.373 343.176 502.562 338.71 510.751 324.876 518.927 340.757 527.116 334.069 535.293 339.578 543.482 349.678 551.658 347.519 559.847 375.709 568.036 350.236 576.212 386.851 584.401 398.414 592.578 389.158" stroke="#0072B2" stroke-width="2.91574" stroke-linejoin="round" stroke-miterlimit="10" fill="none" transform="matrix(1.00042 0 0 1 658 1)"/><path d="M355.249 399.084 363.438 411.976 371.627 422.385 379.803 471.469 387.992 426.84 396.169 416.926 404.357 413.464 412.546 401.851 420.723 411.976 428.912 430.81 437.088 422.485 445.277 423.874 453.454 409.99 461.642 418.663 469.831 438.627 478.008 428.502 486.197 465.514 494.373 440.786 502.562 453.615 510.751 460.563 518.927 444.136 527.116 456.406 535.293 424.867 543.482 434.284 551.658 422.708 559.847 422.571 568.036 445.438 576.212 422.323 584.401 436.977 592.578 406.516" stroke="#000000" stroke-width="5.24833" stroke-linejoin="round" stroke-miterlimit="10" fill="none" transform="matrix(1.00042 0 0 1 658 1)"/><path d="M355.249 399.084 363.438 411.976 371.627 422.385 379.803 471.469 387.992 426.84 396.169 416.926 404.357 413.464 412.546 401.851 420.723 411.976 428.912 430.81 437.088 422.485 445.277 423.874 453.454 409.99 461.642 418.663 469.831 438.627 478.008 428.502 486.197 465.514 494.373 440.786 502.562 453.615 510.751 460.563 518.927 444.136 527.116 456.406 535.293 424.867 543.482 434.284 551.658 422.708 559.847 422.571 568.036 445.438 576.212 422.323 584.401 436.977 592.578 406.516" stroke="#A4D8F4" stroke-width="2.91574" stroke-linejoin="round" stroke-miterlimit="10" fill="none" transform="matrix(1.00042 0 0 1 658 1)"/><path d="M355.249 480.39 363.438 480.39 371.627 452.622 379.803 454.111 387.992 486.346 396.169 467.834 404.357 470.725 412.546 478.02 420.723 472.462 428.912 472.462 437.088 462.747 445.277 472.462 453.454 479.397 461.642 481.134 469.831 477.673 478.008 482.003 486.197 481.134 494.373 466.816 502.562 458.454 510.751 465.352 518.927 465.886 527.116 460.315 535.293 486.346 543.482 466.816 551.658 480.564 559.847 452.498 568.036 455.104 576.212 441.604 584.401 415.388 592.578 455.104" stroke="#000000" stroke-width="5.24833" stroke-linejoin="round" stroke-miterlimit="10" fill="none" transform="matrix(1.00042 0 0 1 658 1)"/><path d="M355.249 480.39 363.438 480.39 371.627 452.622 379.803 454.111 387.992 486.346 396.169 467.834 404.357 470.725 412.546 478.02 420.723 472.462 428.912 472.462 437.088 462.747 445.277 472.462 453.454 479.397 461.642 481.134 469.831 477.673 478.008 482.003 486.197 481.134 494.373 466.816 502.562 458.454 510.751 465.352 518.927 465.886 527.116 460.315 535.293 486.346 543.482 466.816 551.658 480.564 559.847 452.498 568.036 455.104 576.212 441.604 584.401 415.388 592.578 455.104" stroke="#E69F00" stroke-width="2.91574" stroke-linejoin="round" stroke-miterlimit="10" fill="none" transform="matrix(1.00042 0 0 1 658 1)"/></g><g><path d="M66.1191 249.972 336.179 249.972 336.179 278.1 66.1191 278.1Z" stroke="#000000" stroke-width="2.64278" stroke-linecap="round" stroke-linejoin="round" stroke-miterlimit="10" fill="#FFFFFF" transform="matrix(1.00042 0 0 1 658 1)"/><text fill="#1A1A1A" font-family="Arial,Arial_MSFontService,sans-serif" font-weight="400" font-size="15" transform="matrix(1.24126 0 0 1.24074 826.118 272)">October</text></g><g><path d="M342.978 249.972 613.038 249.972 613.038 278.1 342.978 278.1Z" stroke="#000000" stroke-width="2.64278" stroke-linecap="round" stroke-linejoin="round" stroke-miterlimit="10" fill="#FFFFFF" transform="matrix(1.00042 0 0 1 658 1)"/><text fill="#1A1A1A" font-family="Arial,Arial_MSFontService,sans-serif" font-weight="400" font-size="15" transform="matrix(1.24126 0 0 1.24074 1093.27 272)">November</text></g><g><path d="M66.1191 6.79926 336.179 6.79926 336.179 34.9269 66.1191 34.9269Z" stroke="#000000" stroke-width="2.64278" stroke-linecap="round" stroke-linejoin="round" stroke-miterlimit="10" fill="#FFFFFF" transform="matrix(1.00042 0 0 1 658 1)"/><text fill="#1A1A1A" font-family="Arial,Arial_MSFontService,sans-serif" font-weight="400" font-size="15" transform="matrix(1.24126 0 0 1.24074 830.25 29)">August</text></g><g><path d="M342.978 6.79926 613.038 6.79926 613.038 34.9269 342.978 34.9269Z" stroke="#000000" stroke-width="2.64278" stroke-linecap="round" stroke-linejoin="round" stroke-miterlimit="10" fill="#FFFFFF" transform="matrix(1.00042 0 0 1 658 1)"/><text fill="#1A1A1A" font-family="Arial,Arial_MSFontService,sans-serif" font-weight="400" font-size="15" transform="matrix(1.24126 0 0 1.24074 1090.67 29)">September</text></g><g><path d="M66.1191 486.346 336.179 486.346" stroke="#000000" stroke-width="1.32759" stroke-linecap="square" stroke-linejoin="round" stroke-miterlimit="10" fill="none" transform="matrix(1.00042 0 0 1 658 1)"/><path d="M70.2135 489.745 70.2135 486.346" stroke="#000000" stroke-width="1.32759" stroke-linejoin="round" stroke-miterlimit="10" fill="none" transform="matrix(1.00042 0 0 1 658 1)"/><path d="M152.04 489.745 152.04 486.346" stroke="#000000" stroke-width="1.32759" stroke-linejoin="round" stroke-miterlimit="10" fill="none" transform="matrix(1.00042 0 0 1 658 1)"/><path d="M233.88 489.745 233.88 486.346" stroke="#000000" stroke-width="1.32759" stroke-linejoin="round" stroke-miterlimit="10" fill="none" transform="matrix(1.00042 0 0 1 658 1)"/><path d="M315.719 489.745 315.719 486.346" stroke="#000000" stroke-width="1.32759" stroke-linejoin="round" stroke-miterlimit="10" fill="none" transform="matrix(1.00042 0 0 1 658 1)"/><text font-family="Arial,Arial_MSFontService,sans-serif" font-weight="400" font-size="13" transform="matrix(1.24126 0 0 1.24074 723.756 505)">0</text><text font-family="Arial,Arial_MSFontService,sans-serif" font-weight="400" font-size="13" transform="matrix(1.24126 0 0 1.24074 801.13 505)">10</text><text font-family="Arial,Arial_MSFontService,sans-serif" font-weight="400" font-size="13" transform="matrix(1.24126 0 0 1.24074 883.004 505)">20</text><text font-family="Arial,Arial_MSFontService,sans-serif" font-weight="400" font-size="13" transform="matrix(1.24126 0 0 1.24074 964.877 505)">30</text><path d="M342.978 486.346 613.038 486.346" stroke="#000000" stroke-width="1.32759" stroke-linecap="square" stroke-linejoin="round" stroke-miterlimit="10" fill="none" transform="matrix(1.00042 0 0 1 658 1)"/><path d="M347.072 489.745 347.072 486.346" stroke="#000000" stroke-width="1.32759" stroke-linejoin="round" stroke-miterlimit="10" fill="none" transform="matrix(1.00042 0 0 1 658 1)"/><path d="M428.912 489.745 428.912 486.346" stroke="#000000" stroke-width="1.32759" stroke-linejoin="round" stroke-miterlimit="10" fill="none" transform="matrix(1.00042 0 0 1 658 1)"/><path d="M510.751 489.745 510.751 486.346" stroke="#000000" stroke-width="1.32759" stroke-linejoin="round" stroke-miterlimit="10" fill="none" transform="matrix(1.00042 0 0 1 658 1)"/><path d="M592.578 489.745 592.578 486.346" stroke="#000000" stroke-width="1.32759" stroke-linejoin="round" stroke-miterlimit="10" fill="none" transform="matrix(1.00042 0 0 1 658 1)"/><text font-family="Arial,Arial_MSFontService,sans-serif" font-weight="400" font-size="13" transform="matrix(1.24126 0 0 1.24074 1000.73 505)">0</text><text font-family="Arial,Arial_MSFontService,sans-serif" font-weight="400" font-size="13" transform="matrix(1.24126 0 0 1.24074 1078.12 505)">10</text><text font-family="Arial,Arial_MSFontService,sans-serif" font-weight="400" font-size="13" transform="matrix(1.24126 0 0 1.24074 1159.99 505)">20</text><text font-family="Arial,Arial_MSFontService,sans-serif" font-weight="400" font-size="13" transform="matrix(1.24126 0 0 1.24074 1241.85 505)">30</text><path d="M66.1191 243.173 66.1191 34.9269" stroke="#000000" stroke-width="1.32759" stroke-linecap="square" stroke-linejoin="round" stroke-miterlimit="10" fill="none" transform="matrix(1.00042 0 0 1 658 1)"/><text font-family="Arial,Arial_MSFontService,sans-serif" font-weight="400" font-size="13" transform="matrix(1.24126 0 0 1.24074 686.621 250)">0</text><text font-family="Arial,Arial_MSFontService,sans-serif" font-weight="400" font-size="13" transform="matrix(1.24126 0 0 1.24074 695.596 250)">.</text><text font-family="Arial,Arial_MSFontService,sans-serif" font-weight="400" font-size="13" transform="matrix(1.24126 0 0 1.24074 700.079 250)">00</text><text font-family="Arial,Arial_MSFontService,sans-serif" font-weight="400" font-size="13" transform="matrix(1.24126 0 0 1.24074 686.621 198)">0</text><text font-family="Arial,Arial_MSFontService,sans-serif" font-weight="400" font-size="13" transform="matrix(1.24126 0 0 1.24074 695.596 198)">.</text><text font-family="Arial,Arial_MSFontService,sans-serif" font-weight="400" font-size="13" transform="matrix(1.24126 0 0 1.24074 700.079 198)">25</text><text font-family="Arial,Arial_MSFontService,sans-serif" font-weight="400" font-size="13" transform="matrix(1.24126 0 0 1.24074 686.621 146)">0</text><text font-family="Arial,Arial_MSFontService,sans-serif" font-weight="400" font-size="13" transform="matrix(1.24126 0 0 1.24074 695.596 146)">.</text><text font-family="Arial,Arial_MSFontService,sans-serif" font-weight="400" font-size="13" transform="matrix(1.24126 0 0 1.24074 700.079 146)">50</text><text font-family="Arial,Arial_MSFontService,sans-serif" font-weight="400" font-size="13" transform="matrix(1.24126 0 0 1.24074 686.621 94)">0</text><text font-family="Arial,Arial_MSFontService,sans-serif" font-weight="400" font-size="13" transform="matrix(1.24126 0 0 1.24074 695.596 94)">.</text><text font-family="Arial,Arial_MSFontService,sans-serif" font-weight="400" font-size="13" transform="matrix(1.24126 0 0 1.24074 700.079 94)">75</text><text font-family="Arial,Arial_MSFontService,sans-serif" font-weight="400" font-size="13" transform="matrix(1.24126 0 0 1.24074 686.621 42)">1</text><text font-family="Arial,Arial_MSFontService,sans-serif" font-weight="400" font-size="13" transform="matrix(1.24126 0 0 1.24074 695.596 42)">.</text><text font-family="Arial,Arial_MSFontService,sans-serif" font-weight="400" font-size="13" transform="matrix(1.24126 0 0 1.24074 700.079 42)">00</text><path d="M62.7194 243.173 66.1191 243.173" stroke="#000000" stroke-width="1.32759" stroke-linejoin="round" stroke-miterlimit="10" fill="none" transform="matrix(1.00042 0 0 1 658 1)"/><path d="M62.7194 191.111 66.1191 191.111" stroke="#000000" stroke-width="1.32759" stroke-linejoin="round" stroke-miterlimit="10" fill="none" transform="matrix(1.00042 0 0 1 658 1)"/><path d="M62.7194 139.05 66.1191 139.05" stroke="#000000" stroke-width="1.32759" stroke-linejoin="round" stroke-miterlimit="10" fill="none" transform="matrix(1.00042 0 0 1 658 1)"/><path d="M62.7194 86.9883 66.1191 86.9883" stroke="#000000" stroke-width="1.32759" stroke-linejoin="round" stroke-miterlimit="10" fill="none" transform="matrix(1.00042 0 0 1 658 1)"/><path d="M62.7194 34.9269 66.1191 34.9269" stroke="#000000" stroke-width="1.32759" stroke-linejoin="round" stroke-miterlimit="10" fill="none" transform="matrix(1.00042 0 0 1 658 1)"/><path d="M66.1191 486.346 66.1191 278.1" stroke="#000000" stroke-width="1.32759" stroke-linecap="square" stroke-linejoin="round" stroke-miterlimit="10" fill="none" transform="matrix(1.00042 0 0 1 658 1)"/><text font-family="Arial,Arial_MSFontService,sans-serif" font-weight="400" font-size="13" transform="matrix(1.24126 0 0 1.24074 686.621 493)">0</text><text font-family="Arial,Arial_MSFontService,sans-serif" font-weight="400" font-size="13" transform="matrix(1.24126 0 0 1.24074 695.596 493)">.</text><text font-family="Arial,Arial_MSFontService,sans-serif" font-weight="400" font-size="13" transform="matrix(1.24126 0 0 1.24074 700.079 493)">00</text><text font-family="Arial,Arial_MSFontService,sans-serif" font-weight="400" font-size="13" transform="matrix(1.24126 0 0 1.24074 686.621 441)">0</text><text font-family="Arial,Arial_MSFontService,sans-serif" font-weight="400" font-size="13" transform="matrix(1.24126 0 0 1.24074 695.596 441)">.</text><text font-family="Arial,Arial_MSFontService,sans-serif" font-weight="400" font-size="13" transform="matrix(1.24126 0 0 1.24074 700.079 441)">25</text><text font-family="Arial,Arial_MSFontService,sans-serif" font-weight="400" font-size="13" transform="matrix(1.24126 0 0 1.24074 686.621 389)">0</text><text font-family="Arial,Arial_MSFontService,sans-serif" font-weight="400" font-size="13" transform="matrix(1.24126 0 0 1.24074 695.596 389)">.</text><text font-family="Arial,Arial_MSFontService,sans-serif" font-weight="400" font-size="13" transform="matrix(1.24126 0 0 1.24074 700.079 389)">50</text><text font-family="Arial,Arial_MSFontService,sans-serif" font-weight="400" font-size="13" transform="matrix(1.24126 0 0 1.24074 686.621 337)">0</text><text font-family="Arial,Arial_MSFontService,sans-serif" font-weight="400" font-size="13" transform="matrix(1.24126 0 0 1.24074 695.596 337)">.</text><text font-family="Arial,Arial_MSFontService,sans-serif" font-weight="400" font-size="13" transform="matrix(1.24126 0 0 1.24074 700.079 337)">75</text><text font-family="Arial,Arial_MSFontService,sans-serif" font-weight="400" font-size="13" transform="matrix(1.24126 0 0 1.24074 686.621 285)">1</text><text font-family="Arial,Arial_MSFontService,sans-serif" font-weight="400" font-size="13" transform="matrix(1.24126 0 0 1.24074 695.596 285)">.</text><text font-family="Arial,Arial_MSFontService,sans-serif" font-weight="400" font-size="13" transform="matrix(1.24126 0 0 1.24074 700.079 285)">00</text><path d="M62.7194 486.346 66.1191 486.346" stroke="#000000" stroke-width="1.32759" stroke-linejoin="round" stroke-miterlimit="10" fill="none" transform="matrix(1.00042 0 0 1 658 1)"/><path d="M62.7194 434.284 66.1191 434.284" stroke="#000000" stroke-width="1.32759" stroke-linejoin="round" stroke-miterlimit="10" fill="none" transform="matrix(1.00042 0 0 1 658 1)"/><path d="M62.7194 382.223 66.1191 382.223" stroke="#000000" stroke-width="1.32759" stroke-linejoin="round" stroke-miterlimit="10" fill="none" transform="matrix(1.00042 0 0 1 658 1)"/><path d="M62.7194 330.161 66.1191 330.161" stroke="#000000" stroke-width="1.32759" stroke-linejoin="round" stroke-miterlimit="10" fill="none" transform="matrix(1.00042 0 0 1 658 1)"/><path d="M62.7194 278.1 66.1191 278.1" stroke="#000000" stroke-width="1.32759" stroke-linejoin="round" stroke-miterlimit="10" fill="none" transform="matrix(1.00042 0 0 1 658 1)"/><text font-family="Arial,Arial_MSFontService,sans-serif" font-weight="400" font-size="16" transform="matrix(1.24126 0 0 1.24074 980.062 526)">Day</text><text font-family="Arial,Arial_MSFontService,sans-serif" font-weight="400" font-size="16" transform="matrix(7.60054e-17 -1.24074 1.24126 7.59735e-17 679.015 351)">Porportion of ravens</text><path d="M626.636 211.956 707.867 211.956 707.867 309.317 626.636 309.317Z" fill="#FFFFFF" transform="matrix(1.00042 0 0 1 658 1)"/><text font-family="Arial,Arial_MSFontService,sans-serif" font-weight="400" font-size="11" transform="matrix(1.24126 0 0 1.24074 1291.7 231)">Decision</text><path d="M633.435 238.197 654.875 238.197 654.875 259.637 633.435 259.637Z" fill="#FFFFFF" transform="matrix(1.00042 0 0 1 658 1)"/><path d="M635.582 248.917 652.729 248.917" stroke="#0072B2" stroke-width="2.64278" stroke-linejoin="round" stroke-miterlimit="10" fill="none" transform="matrix(1.00042 0 0 1 658 1)"/><path d="M635.582 248.917 652.729 248.917" stroke="#000000" stroke-width="5.55852" stroke-linejoin="round" stroke-miterlimit="10" fill="none" transform="matrix(1.00042 0 0 1 658 1)"/><path d="M635.582 248.917 652.729 248.917" stroke="#0072B2" stroke-width="2.91574" stroke-linejoin="round" stroke-miterlimit="10" fill="none" transform="matrix(1.00042 0 0 1 658 1)"/><path d="M633.435 259.637 654.875 259.637 654.875 281.077 633.435 281.077Z" fill="#FFFFFF" transform="matrix(1.00042 0 0 1 658 1)"/><path d="M635.582 270.357 652.729 270.357" stroke="#A4D8F4" stroke-width="2.64278" stroke-linejoin="round" stroke-miterlimit="10" fill="none" transform="matrix(1.00042 0 0 1 658 1)"/><path d="M635.582 270.357 652.729 270.357" stroke="#000000" stroke-width="5.55852" stroke-linejoin="round" stroke-miterlimit="10" fill="none" transform="matrix(1.00042 0 0 1 658 1)"/><path d="M635.582 270.357 652.729 270.357" stroke="#A4D8F4" stroke-width="2.91574" stroke-linejoin="round" stroke-miterlimit="10" fill="none" transform="matrix(1.00042 0 0 1 658 1)"/><path d="M633.435 281.077 654.875 281.077 654.875 302.517 633.435 302.517Z" fill="#FFFFFF" transform="matrix(1.00042 0 0 1 658 1)"/><path d="M635.582 291.797 652.729 291.797" stroke="#E69F00" stroke-width="2.64278" stroke-linejoin="round" stroke-miterlimit="10" fill="none" transform="matrix(1.00042 0 0 1 658 1)"/><path d="M635.582 291.797 652.729 291.797" stroke="#000000" stroke-width="5.55852" stroke-linejoin="round" stroke-miterlimit="10" fill="none" transform="matrix(1.00042 0 0 1 658 1)"/><path d="M635.582 291.797 652.729 291.797" stroke="#E69F00" stroke-width="2.91574" stroke-linejoin="round" stroke-miterlimit="10" fill="none" transform="matrix(1.00042 0 0 1 658 1)"/><text font-family="Arial,Arial_MSFontService,sans-serif" font-weight="400" font-size="8.8" transform="matrix(1.24126 0 0 1.24074 1319.95 254)">Hunting</text><text font-family="Arial,Arial_MSFontService,sans-serif" font-weight="400" font-size="8.8" transform="matrix(1.24126 0 0 1.24074 1319.95 275)">Other</text><text font-family="Arial,Arial_MSFontService,sans-serif" font-weight="400" font-size="8.8" transform="matrix(1.24126 0 0 1.24074 1319.95 297)">Territory</text></g></g></g></g><g clip-path="url(#clip8)"><g clip-path="url(#clip9)"><g clip-path="url(#clip10)"><path d="M0 0 754.301 0 754.301 502.867 0 502.867Z" fill="#FFFFFF" transform="matrix(1 0 0 1.01589 85.699 513)"/><g><path d="M0 0 754.301 0 754.301 502.867 0 502.867Z" stroke="#FFFFFF" stroke-width="1.24553" stroke-linecap="round" stroke-linejoin="round" stroke-miterlimit="10" fill="#FFFFFF" transform="matrix(1 0 0 1.01589 85.699 513)"/></g><g><path d="M62.032 456.282 62.032 52.0095" stroke="#000000" stroke-width="1.24553" stroke-linecap="square" stroke-linejoin="round" stroke-miterlimit="10" fill="none" transform="matrix(1 0 0 1.01589 85.699 513)"/><text font-family="Arial,Arial_MSFontService,sans-serif" font-weight="400" font-size="13" transform="matrix(1.16404 0 0 1.18254 112.54 982)">0</text><text font-family="Arial,Arial_MSFontService,sans-serif" font-weight="400" font-size="13" transform="matrix(1.16404 0 0 1.18254 120.956 982)">.</text><text font-family="Arial,Arial_MSFontService,sans-serif" font-weight="400" font-size="13" transform="matrix(1.16404 0 0 1.18254 125.16 982)">00</text><text font-family="Arial,Arial_MSFontService,sans-serif" font-weight="400" font-size="13" transform="matrix(1.16404 0 0 1.18254 112.54 879)">0</text><text font-family="Arial,Arial_MSFontService,sans-serif" font-weight="400" font-size="13" transform="matrix(1.16404 0 0 1.18254 120.956 879)">.</text><text font-family="Arial,Arial_MSFontService,sans-serif" font-weight="400" font-size="13" transform="matrix(1.16404 0 0 1.18254 125.16 879)">25</text><text font-family="Arial,Arial_MSFontService,sans-serif" font-weight="400" font-size="13" transform="matrix(1.16404 0 0 1.18254 112.54 777)">0</text><text font-family="Arial,Arial_MSFontService,sans-serif" font-weight="400" font-size="13" transform="matrix(1.16404 0 0 1.18254 120.956 777)">.</text><text font-family="Arial,Arial_MSFontService,sans-serif" font-weight="400" font-size="13" transform="matrix(1.16404 0 0 1.18254 125.16 777)">50</text><text font-family="Arial,Arial_MSFontService,sans-serif" font-weight="400" font-size="13" transform="matrix(1.16404 0 0 1.18254 112.54 674)">0</text><text font-family="Arial,Arial_MSFontService,sans-serif" font-weight="400" font-size="13" transform="matrix(1.16404 0 0 1.18254 120.956 674)">.</text><text font-family="Arial,Arial_MSFontService,sans-serif" font-weight="400" font-size="13" transform="matrix(1.16404 0 0 1.18254 125.16 674)">75</text><text font-family="Arial,Arial_MSFontService,sans-serif" font-weight="400" font-size="13" transform="matrix(1.16404 0 0 1.18254 112.54 571)">1</text><text font-family="Arial,Arial_MSFontService,sans-serif" font-weight="400" font-size="13" transform="matrix(1.16404 0 0 1.18254 120.956 571)">.</text><text font-family="Arial,Arial_MSFontService,sans-serif" font-weight="400" font-size="13" transform="matrix(1.16404 0 0 1.18254 125.16 571)">00</text><path d="M58.8425 456.282 62.032 456.282" stroke="#000000" stroke-width="1.24553" stroke-linejoin="round" stroke-miterlimit="10" fill="none" transform="matrix(1 0 0 1.01589 85.699 513)"/><path d="M58.8425 355.208 62.032 355.208" stroke="#000000" stroke-width="1.24553" stroke-linejoin="round" stroke-miterlimit="10" fill="none" transform="matrix(1 0 0 1.01589 85.699 513)"/><path d="M58.8425 254.146 62.032 254.146" stroke="#000000" stroke-width="1.24553" stroke-linejoin="round" stroke-miterlimit="10" fill="none" transform="matrix(1 0 0 1.01589 85.699 513)"/><path d="M58.8425 153.072 62.032 153.072" stroke="#000000" stroke-width="1.24553" stroke-linejoin="round" stroke-miterlimit="10" fill="none" transform="matrix(1 0 0 1.01589 85.699 513)"/><path d="M58.8425 52.0095 62.032 52.0095" stroke="#000000" stroke-width="1.24553" stroke-linejoin="round" stroke-miterlimit="10" fill="none" transform="matrix(1 0 0 1.01589 85.699 513)"/><path d="M62.032 456.282 747.922 456.282" stroke="#000000" stroke-width="1.24553" stroke-linecap="square" stroke-linejoin="round" stroke-miterlimit="10" fill="none" transform="matrix(1 0 0 1.01589 85.699 513)"/><path d="M112.214 459.472 112.214 456.282" stroke="#000000" stroke-width="1.24553" stroke-linejoin="round" stroke-miterlimit="10" fill="none" transform="matrix(1 0 0 1.01589 85.699 513)"/><path d="M195.862 459.472 195.862 456.282" stroke="#000000" stroke-width="1.24553" stroke-linejoin="round" stroke-miterlimit="10" fill="none" transform="matrix(1 0 0 1.01589 85.699 513)"/><path d="M279.51 459.472 279.51 456.282" stroke="#000000" stroke-width="1.24553" stroke-linejoin="round" stroke-miterlimit="10" fill="none" transform="matrix(1 0 0 1.01589 85.699 513)"/><path d="M363.159 459.472 363.159 456.282" stroke="#000000" stroke-width="1.24553" stroke-linejoin="round" stroke-miterlimit="10" fill="none" transform="matrix(1 0 0 1.01589 85.699 513)"/><path d="M446.795 459.472 446.795 456.282" stroke="#000000" stroke-width="1.24553" stroke-linejoin="round" stroke-miterlimit="10" fill="none" transform="matrix(1 0 0 1.01589 85.699 513)"/><path d="M530.444 459.472 530.444 456.282" stroke="#000000" stroke-width="1.24553" stroke-linejoin="round" stroke-miterlimit="10" fill="none" transform="matrix(1 0 0 1.01589 85.699 513)"/><path d="M614.092 459.472 614.092 456.282" stroke="#000000" stroke-width="1.24553" stroke-linejoin="round" stroke-miterlimit="10" fill="none" transform="matrix(1 0 0 1.01589 85.699 513)"/><path d="M697.74 459.472 697.74 456.282" stroke="#000000" stroke-width="1.24553" stroke-linejoin="round" stroke-miterlimit="10" fill="none" transform="matrix(1 0 0 1.01589 85.699 513)"/><text font-family="Arial,Arial_MSFontService,sans-serif" font-weight="400" font-size="13" transform="matrix(1.16404 0 0 1.18254 193.705 993)">8</text><text font-family="Arial,Arial_MSFontService,sans-serif" font-weight="400" font-size="13" transform="matrix(1.16404 0 0 1.18254 277.353 993)">9</text><text font-family="Arial,Arial_MSFontService,sans-serif" font-weight="400" font-size="13" transform="matrix(1.16404 0 0 1.18254 356.793 993)">10</text><text font-family="Arial,Arial_MSFontService,sans-serif" font-weight="400" font-size="13" transform="matrix(1.16404 0 0 1.18254 441.003 993)">11</text><text font-family="Arial,Arial_MSFontService,sans-serif" font-weight="400" font-size="13" transform="matrix(1.16404 0 0 1.18254 524.078 993)">12</text><text font-family="Arial,Arial_MSFontService,sans-serif" font-weight="400" font-size="13" transform="matrix(1.16404 0 0 1.18254 611.935 993)">1</text><text font-family="Arial,Arial_MSFontService,sans-serif" font-weight="400" font-size="13" transform="matrix(1.16404 0 0 1.18254 695.583 993)">2</text><text font-family="Arial,Arial_MSFontService,sans-serif" font-weight="400" font-size="13" transform="matrix(1.16404 0 0 1.18254 779.231 993)">3</text><text font-family="Arial,Arial_MSFontService,sans-serif" font-weight="400" font-size="16" transform="matrix(1.16404 0 0 1.18254 464.788 1013)">Month</text><text font-family="Arial,Arial_MSFontService,sans-serif" font-weight="400" font-size="16" transform="matrix(7.12771e-17 -1.18254 1.16404 7.24094e-17 105.406 848)">Porportion of days</text><path d="M409.36 6.37897 747.922 6.37897 747.922 39.2516 409.36 39.2516Z" fill="#FFFFFF" transform="matrix(1 0 0 1.01589 85.699 513)"/><text font-family="Arial,Arial_MSFontService,sans-serif" font-weight="400" font-size="16" transform="matrix(1.16404 0 0 1.18254 501.438 543)">Decision</text><path d="M493.602 12.7579 513.716 12.7579 513.716 32.8726 493.602 32.8726Z" fill="#FFFFFF" transform="matrix(1 0 0 1.01589 85.699 513)"/><path d="M495.615 22.8153 511.702 22.8153" stroke="#0072B2" stroke-width="2.47942" stroke-linejoin="round" stroke-miterlimit="10" fill="none" transform="matrix(1 0 0 1.01589 85.699 513)"/><path d="M495.615 22.8153 511.702 22.8153" stroke="#000000" stroke-width="5.21492" stroke-linejoin="round" stroke-miterlimit="10" fill="none" transform="matrix(1 0 0 1.01589 85.699 513)"/><path d="M495.615 22.8153 511.702 22.8153" stroke="#0072B2" stroke-width="2.73551" stroke-linejoin="round" stroke-miterlimit="10" fill="none" transform="matrix(1 0 0 1.01589 85.699 513)"/><path d="M582.616 12.7579 602.731 12.7579 602.731 32.8726 582.616 32.8726Z" fill="#FFFFFF" transform="matrix(1 0 0 1.01589 85.699 513)"/><path d="M584.63 22.8153 600.717 22.8153" stroke="#56B4E9" stroke-width="2.47942" stroke-linejoin="round" stroke-miterlimit="10" fill="none" transform="matrix(1 0 0 1.01589 85.699 513)"/><path d="M584.63 22.8153 600.717 22.8153" stroke="#000000" stroke-width="5.21492" stroke-linejoin="round" stroke-miterlimit="10" fill="none" transform="matrix(1 0 0 1.01589 85.699 513)"/><path d="M584.63 22.8153 600.717 22.8153" stroke="#56B4E9" stroke-width="2.73551" stroke-linejoin="round" stroke-miterlimit="10" fill="none" transform="matrix(1 0 0 1.01589 85.699 513)"/><path d="M656.23 12.7579 676.345 12.7579 676.345 32.8726 656.23 32.8726Z" fill="#FFFFFF" transform="matrix(1 0 0 1.01589 85.699 513)"/><path d="M658.244 22.8153 674.331 22.8153" stroke="#E69F00" stroke-width="2.47942" stroke-linejoin="round" stroke-miterlimit="10" fill="none" transform="matrix(1 0 0 1.01589 85.699 513)"/><path d="M658.244 22.8153 674.331 22.8153" stroke="#000000" stroke-width="5.21492" stroke-linejoin="round" stroke-miterlimit="10" fill="none" transform="matrix(1 0 0 1.01589 85.699 513)"/><path d="M658.244 22.8153 674.331 22.8153" stroke="#E69F00" stroke-width="2.73551" stroke-linejoin="round" stroke-miterlimit="10" fill="none" transform="matrix(1 0 0 1.01589 85.699 513)"/><text font-family="Arial,Arial_MSFontService,sans-serif" font-weight="400" font-size="14" transform="matrix(1.16404 0 0 1.18254 605.794 542)">Hunting</text><text font-family="Arial,Arial_MSFontService,sans-serif" font-weight="400" font-size="14" transform="matrix(1.16404 0 0 1.18254 694.809 542)">Other</text><text font-family="Arial,Arial_MSFontService,sans-serif" font-weight="400" font-size="14" transform="matrix(1.16404 0 0 1.18254 768.423 542)">Territory</text></g></g></g></g></g></svg>