<svg width="1280" height="720" xmlns="http://www.w3.org/2000/svg" xmlns:xlink="http://www.w3.org/1999/xlink" overflow="hidden"><defs><clipPath id="clip0"><rect x="0" y="0" width="1280" height="720"/></clipPath><clipPath id="clip1"><rect x="-3" y="13" width="669" height="524"/></clipPath><clipPath id="clip2"><rect x="-3" y="13" width="670" height="524"/></clipPath><clipPath id="clip3"><rect x="666" y="9" width="614" height="528"/></clipPath><clipPath id="clip4"><rect x="666" y="9" width="614" height="528"/></clipPath><clipPath id="clip5"><rect x="666" y="9" width="704" height="528"/></clipPath><clipPath id="clip6"><rect x="666" y="9" width="704" height="528"/></clipPath><clipPath id="clip7"><rect x="491" y="513" width="349" height="48"/></clipPath><clipPath id="clip8"><rect x="491" y="513" width="349" height="48"/></clipPath><clipPath id="clip9"><rect x="85" y="513" width="755" height="511"/></clipPath></defs><g clip-path="url(#clip0)"><rect x="0" y="0" width="1280" height="720" fill="#FFFFFF"/><g clip-path="url(#clip1)"><g clip-path="url(#clip2)"><g><path d="M0 0 667.934 0 667.934 572.515 0 572.515Z" fill="#FFFFFF" transform="matrix(1.0016 0 0 1 -3 -35.5149)"/><g><path d="M0 0 667.934 0 667.934 572.515 0 572.515Z" stroke="#FFFFFF" stroke-width="1.41803" stroke-linecap="round" stroke-linejoin="round" stroke-miterlimit="10" fill="#FFFFFF" transform="matrix(1.0016 0 0 1 -3 -35.5149)"/></g><g><path d="M70.6234 59.2129 660.672 59.2129 660.672 519.478 70.6234 519.478Z" fill="#FFFFFF" transform="matrix(1.0016 0 0 1 -3 -35.5149)"/><path d="M78.9328 509.3 162.04 504.197 245.148 452.34 328.255 398.693 411.349 361.506 494.457 384.327 577.564 359.134 660.672 351.832" stroke="#0072B2" stroke-width="2.82282" stroke-linejoin="round" stroke-miterlimit="10" fill="none" transform="matrix(1.0016 0 0 1 -3 -35.5149)"/><path d="M78.9328 476.486 162.04 471.715 245.148 402.457 328.255 384.499 411.349 382.353 494.457 368.636 577.564 383.969 660.672 423.582" stroke="#56B4E9" stroke-width="2.82282" stroke-linejoin="round" stroke-miterlimit="10" fill="none" transform="matrix(1.0016 0 0 1 -3 -35.5149)"/><path d="M78.9328 112.383 162.04 122.243 245.148 243.359 328.255 314.963 411.349 354.297 494.457 345.192 577.564 355.052 660.672 322.755" stroke="#E69F00" stroke-width="2.82282" stroke-linejoin="round" stroke-miterlimit="10" fill="none" transform="matrix(1.0016 0 0 1 -3 -35.5149)"/><path d="M78.9328 509.3 162.04 504.197 245.148 452.34 328.255 398.693 411.349 361.506 494.457 384.327 577.564 359.134 660.672 351.832" stroke="#000000" stroke-width="5.60588" stroke-linejoin="round" stroke-miterlimit="10" fill="none" transform="matrix(1.0016 0 0 1 -3 -35.5149)"/><path d="M78.9328 509.3 162.04 504.197 245.148 452.34 328.255 398.693 411.349 361.506 494.457 384.327 577.564 359.134 660.672 351.832" stroke="#0072B2" stroke-width="3.11437" stroke-linejoin="round" stroke-miterlimit="10" fill="none" transform="matrix(1.0016 0 0 1 -3 -35.5149)"/><path d="M78.9328 476.486 162.04 471.715 245.148 402.457 328.255 384.499 411.349 382.353 494.457 368.636 577.564 383.969 660.672 423.582" stroke="#000000" stroke-width="5.60588" stroke-linejoin="round" stroke-miterlimit="10" fill="none" transform="matrix(1.0016 0 0 1 -3 -35.5149)"/><path d="M78.9328 476.486 162.04 471.715 245.148 402.457 328.255 384.499 411.349 382.353 494.457 368.636 577.564 383.969 660.672 423.582" stroke="#56B4E9" stroke-width="3.11437" stroke-linejoin="round" stroke-miterlimit="10" fill="none" transform="matrix(1.0016 0 0 1 -3 -35.5149)"/><path d="M78.9328 112.383 162.04 122.243 245.148 243.359 328.255 314.963 411.349 354.297 494.457 345.192 577.564 355.052 660.672 322.755" stroke="#000000" stroke-width="5.60588" stroke-linejoin="round" stroke-miterlimit="10" fill="none" transform="matrix(1.0016 0 0 1 -3 -35.5149)"/><path d="M78.9328 112.383 162.04 122.243 245.148 243.359 328.255 314.963 411.349 354.297 494.457 345.192 577.564 355.052 660.672 322.755" stroke="#E69F00" stroke-width="3.11437" stroke-linejoin="round" stroke-miterlimit="10" fill="none" transform="matrix(1.0016 0 0 1 -3 -35.5149)"/></g><g><path d="M70.6234 519.478 70.6234 59.2129" stroke="#000000" stroke-width="1.41803" stroke-linecap="square" stroke-linejoin="round" stroke-miterlimit="10" fill="none" transform="matrix(1.0016 0 0 1 -3 -35.5149)"/><text font-family="Arial,Arial_MSFontService,sans-serif" font-weight="400" font-size="13" transform="matrix(1.32738 0 0 1.32527 27.6071 490)">0</text><text font-family="Arial,Arial_MSFontService,sans-serif" font-weight="400" font-size="13" transform="matrix(1.32738 0 0 1.32527 37.204 490)">.</text><text font-family="Arial,Arial_MSFontService,sans-serif" font-weight="400" font-size="13" transform="matrix(1.32738 0 0 1.32527 41.9983 490)">00</text><text font-family="Arial,Arial_MSFontService,sans-serif" font-weight="400" font-size="13" transform="matrix(1.32738 0 0 1.32527 27.6071 375)">0</text><text font-family="Arial,Arial_MSFontService,sans-serif" font-weight="400" font-size="13" transform="matrix(1.32738 0 0 1.32527 37.204 375)">.</text><text font-family="Arial,Arial_MSFontService,sans-serif" font-weight="400" font-size="13" transform="matrix(1.32738 0 0 1.32527 41.9983 375)">25</text><text font-family="Arial,Arial_MSFontService,sans-serif" font-weight="400" font-size="13" transform="matrix(1.32738 0 0 1.32527 27.6071 260)">0</text><text font-family="Arial,Arial_MSFontService,sans-serif" font-weight="400" font-size="13" transform="matrix(1.32738 0 0 1.32527 37.204 260)">.</text><text font-family="Arial,Arial_MSFontService,sans-serif" font-weight="400" font-size="13" transform="matrix(1.32738 0 0 1.32527 41.9983 260)">50</text><text font-family="Arial,Arial_MSFontService,sans-serif" font-weight="400" font-size="13" transform="matrix(1.32738 0 0 1.32527 27.6071 145)">0</text><text font-family="Arial,Arial_MSFontService,sans-serif" font-weight="400" font-size="13" transform="matrix(1.32738 0 0 1.32527 37.204 145)">.</text><text font-family="Arial,Arial_MSFontService,sans-serif" font-weight="400" font-size="13" transform="matrix(1.32738 0 0 1.32527 41.9983 145)">75</text><text font-family="Arial,Arial_MSFontService,sans-serif" font-weight="400" font-size="13" transform="matrix(1.32738 0 0 1.32527 27.6071 30)">1</text><text font-family="Arial,Arial_MSFontService,sans-serif" font-weight="400" font-size="13" transform="matrix(1.32738 0 0 1.32527 37.204 30)">.</text><text font-family="Arial,Arial_MSFontService,sans-serif" font-weight="400" font-size="13" transform="matrix(1.32738 0 0 1.32527 41.9983 30)">00</text><path d="M66.9922 519.478 70.6234 519.478" stroke="#000000" stroke-width="1.41803" stroke-linejoin="round" stroke-miterlimit="10" fill="none" transform="matrix(1.0016 0 0 1 -3 -35.5149)"/><path d="M66.9922 404.405 70.6234 404.405" stroke="#000000" stroke-width="1.41803" stroke-linejoin="round" stroke-miterlimit="10" fill="none" transform="matrix(1.0016 0 0 1 -3 -35.5149)"/><path d="M66.9922 289.345 70.6234 289.345" stroke="#000000" stroke-width="1.41803" stroke-linejoin="round" stroke-miterlimit="10" fill="none" transform="matrix(1.0016 0 0 1 -3 -35.5149)"/><path d="M66.9922 174.272 70.6234 174.272" stroke="#000000" stroke-width="1.41803" stroke-linejoin="round" stroke-miterlimit="10" fill="none" transform="matrix(1.0016 0 0 1 -3 -35.5149)"/><path d="M66.9922 59.2129 70.6234 59.2129" stroke="#000000" stroke-width="1.41803" stroke-linejoin="round" stroke-miterlimit="10" fill="none" transform="matrix(1.0016 0 0 1 -3 -35.5149)"/><path d="M70.6234 519.478 660.672 519.478" stroke="#000000" stroke-width="1.41803" stroke-linecap="square" stroke-linejoin="round" stroke-miterlimit="10" fill="none" transform="matrix(1.0016 0 0 1 -3 -35.5149)"/><path d="M78.9328 523.109 78.9328 519.478" stroke="#000000" stroke-width="1.41803" stroke-linejoin="round" stroke-miterlimit="10" fill="none" transform="matrix(1.0016 0 0 1 -3 -35.5149)"/><path d="M162.04 523.109 162.04 519.478" stroke="#000000" stroke-width="1.41803" stroke-linejoin="round" stroke-miterlimit="10" fill="none" transform="matrix(1.0016 0 0 1 -3 -35.5149)"/><path d="M245.148 523.109 245.148 519.478" stroke="#000000" stroke-width="1.41803" stroke-linejoin="round" stroke-miterlimit="10" fill="none" transform="matrix(1.0016 0 0 1 -3 -35.5149)"/><path d="M328.255 523.109 328.255 519.478" stroke="#000000" stroke-width="1.41803" stroke-linejoin="round" stroke-miterlimit="10" fill="none" transform="matrix(1.0016 0 0 1 -3 -35.5149)"/><path d="M411.349 523.109 411.349 519.478" stroke="#000000" stroke-width="1.41803" stroke-linejoin="round" stroke-miterlimit="10" fill="none" transform="matrix(1.0016 0 0 1 -3 -35.5149)"/><path d="M494.457 523.109 494.457 519.478" stroke="#000000" stroke-width="1.41803" stroke-linejoin="round" stroke-miterlimit="10" fill="none" transform="matrix(1.0016 0 0 1 -3 -35.5149)"/><path d="M577.564 523.109 577.564 519.478" stroke="#000000" stroke-width="1.41803" stroke-linejoin="round" stroke-miterlimit="10" fill="none" transform="matrix(1.0016 0 0 1 -3 -35.5149)"/><path d="M660.672 523.109 660.672 519.478" stroke="#000000" stroke-width="1.41803" stroke-linejoin="round" stroke-miterlimit="10" fill="none" transform="matrix(1.0016 0 0 1 -3 -35.5149)"/><text font-family="Arial,Arial_MSFontService,sans-serif" font-weight="400" font-size="13" transform="matrix(1.32738 0 0 1.32527 71.2603 503)">8</text><text font-family="Arial,Arial_MSFontService,sans-serif" font-weight="400" font-size="13" transform="matrix(1.32738 0 0 1.32527 154.5 503)">9</text><text font-family="Arial,Arial_MSFontService,sans-serif" font-weight="400" font-size="13" transform="matrix(1.32738 0 0 1.32527 232.942 503)">10</text><text font-family="Arial,Arial_MSFontService,sans-serif" font-weight="400" font-size="13" transform="matrix(1.32738 0 0 1.32527 316.822 503)">11</text><text font-family="Arial,Arial_MSFontService,sans-serif" font-weight="400" font-size="13" transform="matrix(1.32738 0 0 1.32527 399.409 503)">12</text><text font-family="Arial,Arial_MSFontService,sans-serif" font-weight="400" font-size="13" transform="matrix(1.32738 0 0 1.32527 487.447 503)">1</text><text font-family="Arial,Arial_MSFontService,sans-serif" font-weight="400" font-size="13" transform="matrix(1.32738 0 0 1.32527 570.687 503)">2</text><text font-family="Arial,Arial_MSFontService,sans-serif" font-weight="400" font-size="13" transform="matrix(1.32738 0 0 1.32527 653.927 503)">3</text><text font-family="Arial,Arial_MSFontService,sans-serif" font-weight="400" font-size="16" transform="matrix(1.32738 0 0 1.32527 333.711 525)">Month</text><text font-family="Arial,Arial_MSFontService,sans-serif" font-weight="400" font-size="16" transform="matrix(8.12786e-17 -1.32527 1.32738 8.11491e-17 19.4726 340)">Porportion of days</text><path d="M275.218 7.26246 660.672 7.26246 660.672 44.688 275.218 44.688Z" fill="#FFFFFF" transform="matrix(1.0016 0 0 1 -3 -35.5149)"/><text font-family="Arial,Arial_MSFontService,sans-serif" font-weight="400" font-size="16" transform="matrix(1.32738 0 0 1.32527 279.931 -2)">Decision</text><path d="M371.128 14.5249 394.028 14.5249 394.028 37.4255 371.128 37.4255Z" fill="#FFFFFF" transform="matrix(1.0016 0 0 1 -3 -35.5149)"/><path d="M373.42 25.9752 391.735 25.9752" stroke="#0072B2" stroke-width="2.82282" stroke-linejoin="round" stroke-miterlimit="10" fill="none" transform="matrix(1.0016 0 0 1 -3 -35.5149)"/><path d="M373.42 25.9752 391.735 25.9752" stroke="#000000" stroke-width="5.93719" stroke-linejoin="round" stroke-miterlimit="10" fill="none" transform="matrix(1.0016 0 0 1 -3 -35.5149)"/><path d="M373.42 25.9752 391.735 25.9752" stroke="#0072B2" stroke-width="3.11437" stroke-linejoin="round" stroke-miterlimit="10" fill="none" transform="matrix(1.0016 0 0 1 -3 -35.5149)"/><path d="M472.471 14.5249 495.371 14.5249 495.371 37.4255 472.471 37.4255Z" fill="#FFFFFF" transform="matrix(1.0016 0 0 1 -3 -35.5149)"/><path d="M474.763 25.9752 493.078 25.9752" stroke="#56B4E9" stroke-width="2.82282" stroke-linejoin="round" stroke-miterlimit="10" fill="none" transform="matrix(1.0016 0 0 1 -3 -35.5149)"/><path d="M474.763 25.9752 493.078 25.9752" stroke="#000000" stroke-width="5.93719" stroke-linejoin="round" stroke-miterlimit="10" fill="none" transform="matrix(1.0016 0 0 1 -3 -35.5149)"/><path d="M474.763 25.9752 493.078 25.9752" stroke="#56B4E9" stroke-width="3.11437" stroke-linejoin="round" stroke-miterlimit="10" fill="none" transform="matrix(1.0016 0 0 1 -3 -35.5149)"/><path d="M556.28 14.5249 579.181 14.5249 579.181 37.4255 556.28 37.4255Z" fill="#FFFFFF" transform="matrix(1.0016 0 0 1 -3 -35.5149)"/><path d="M558.573 25.9752 576.888 25.9752" stroke="#E69F00" stroke-width="2.82282" stroke-linejoin="round" stroke-miterlimit="10" fill="none" transform="matrix(1.0016 0 0 1 -3 -35.5149)"/><path d="M558.573 25.9752 576.888 25.9752" stroke="#000000" stroke-width="5.93719" stroke-linejoin="round" stroke-miterlimit="10" fill="none" transform="matrix(1.0016 0 0 1 -3 -35.5149)"/><path d="M558.573 25.9752 576.888 25.9752" stroke="#E69F00" stroke-width="3.11437" stroke-linejoin="round" stroke-miterlimit="10" fill="none" transform="matrix(1.0016 0 0 1 -3 -35.5149)"/><text font-family="Arial,Arial_MSFontService,sans-serif" font-weight="400" font-size="14" transform="matrix(1.32738 0 0 1.32527 398.931 -3)">Hunting</text><text font-family="Arial,Arial_MSFontService,sans-serif" font-weight="400" font-size="14" transform="matrix(1.32738 0 0 1.32527 500.436 -3)">Other</text><text font-family="Arial,Arial_MSFontService,sans-serif" font-weight="400" font-size="14" transform="matrix(1.32738 0 0 1.32527 584.379 -3)">Territory</text></g></g></g></g><g clip-path="url(#clip3)"><g clip-path="url(#clip4)"><g clip-path="url(#clip5)"><path d="M0 0 703.83 0 703.83 527.872 0 527.872Z" fill="#FFFFFF" transform="matrix(1 0 0 1.00024 666 9)"/><g clip-path="url(#clip6)"><path d="M-7.82033e-14 0 703.83 0 703.83 527.872 0 527.872Z" stroke="#FFFFFF" stroke-width="1.30746" stroke-linecap="round" stroke-linejoin="round" stroke-miterlimit="10" fill="#FFFFFF" transform="matrix(1 0 0 1.00024 666 9)"/></g><g><path d="M65.1165 34.3972 331.081 34.3972 331.081 239.485 65.1165 239.485Z" fill="#FFFFFF" transform="matrix(1 0 0 1.00024 666 9)"/><path d="M77.2013 239.485 85.266 239.485 93.3185 239.485 101.383 222.391 109.448 231.286 117.5 239.485 125.565 239.485 133.618 239.485 141.682 239.485 149.735 239.485 157.8 232.643 165.864 239.485 173.917 239.485 181.982 215.56 190.034 239.485 198.099 239.485 206.163 229.233 214.216 239.485 222.281 239.485 230.333 218.981 238.398 239.485 246.45 239.485 254.515 222.391 262.58 239.485 270.632 239.485 278.697 218.981 286.75 239.485 294.814 239.485 302.879 239.485 310.931 239.485 318.996 229.233" stroke="#0072B2" stroke-width="2.6027" stroke-linejoin="round" stroke-miterlimit="10" fill="none" transform="matrix(1 0 0 1.00024 666 9)"/><path d="M77.2013 157.445 85.266 192.319 93.3185 230.944 101.383 228.097 109.448 239.485 117.5 239.485 125.565 188.213 133.618 239.485 141.682 223.075 149.735 230.944 157.8 232.643 165.864 222.391 173.917 225.812 181.982 216.696 190.034 211.002 198.099 239.485 206.163 229.233 214.216 198.465 222.281 205.308 230.333 222.391 238.398 225.812 246.45 239.485 254.515 239.485 262.58 231.286 270.632 218.981 278.697 239.485 286.75 234.598 294.814 205.308 302.879 239.485 310.931 233.791 318.996 225.812" stroke="#56B4E9" stroke-width="2.6027" stroke-linejoin="round" stroke-miterlimit="10" fill="none" transform="matrix(1 0 0 1.00024 666 9)"/><path d="M77.2013 116.437 85.266 81.5636 93.3185 42.9385 101.383 62.8803 109.448 42.5964 117.5 34.3972 125.565 85.6693 133.618 34.3972 141.682 50.8077 149.735 42.9385 157.8 48.0706 165.864 51.492 173.917 48.0706 181.982 81.1115 190.034 62.8803 198.099 34.3972 206.163 54.9012 214.216 75.4173 222.281 68.5745 230.333 71.9959 238.398 48.0706 246.45 34.3972 254.515 51.492 262.58 42.5964 270.632 54.9012 278.697 54.9012 286.75 39.2849 294.814 68.5745 302.879 34.3972 310.931 40.0914 318.996 58.3226" stroke="#E69F00" stroke-width="2.6027" stroke-linejoin="round" stroke-miterlimit="10" fill="none" transform="matrix(1 0 0 1.00024 666 9)"/><path d="M77.2013 239.485 85.266 239.485 93.3185 239.485 101.383 222.391 109.448 231.286 117.5 239.485 125.565 239.485 133.618 239.485 141.682 239.485 149.735 239.485 157.8 232.643 165.864 239.485 173.917 239.485 181.982 215.56 190.034 239.485 198.099 239.485 206.163 229.233 214.216 239.485 222.281 239.485 230.333 218.981 238.398 239.485 246.45 239.485 254.515 222.391 262.58 239.485 270.632 239.485 278.697 218.981 286.75 239.485 294.814 239.485 302.879 239.485 310.931 239.485 318.996 229.233" stroke="#000000" stroke-width="5.16875" stroke-linejoin="round" stroke-miterlimit="10" fill="none" transform="matrix(1 0 0 1.00024 666 9)"/><path d="M77.2013 239.485 85.266 239.485 93.3185 239.485 101.383 222.391 109.448 231.286 117.5 239.485 125.565 239.485 133.618 239.485 141.682 239.485 149.735 239.485 157.8 232.643 165.864 239.485 173.917 239.485 181.982 215.56 190.034 239.485 198.099 239.485 206.163 229.233 214.216 239.485 222.281 239.485 230.333 218.981 238.398 239.485 246.45 239.485 254.515 222.391 262.58 239.485 270.632 239.485 278.697 218.981 286.75 239.485 294.814 239.485 302.879 239.485 310.931 239.485 318.996 229.233" stroke="#0072B2" stroke-width="2.87153" stroke-linejoin="round" stroke-miterlimit="10" fill="none" transform="matrix(1 0 0 1.00024 666 9)"/><path d="M77.2013 157.445 85.266 192.319 93.3185 230.944 101.383 228.097 109.448 239.485 117.5 239.485 125.565 188.213 133.618 239.485 141.682 223.075 149.735 230.944 157.8 232.643 165.864 222.391 173.917 225.812 181.982 216.696 190.034 211.002 198.099 239.485 206.163 229.233 214.216 198.465 222.281 205.308 230.333 222.391 238.398 225.812 246.45 239.485 254.515 239.485 262.58 231.286 270.632 218.981 278.697 239.485 286.75 234.598 294.814 205.308 302.879 239.485 310.931 233.791 318.996 225.812" stroke="#000000" stroke-width="5.16875" stroke-linejoin="round" stroke-miterlimit="10" fill="none" transform="matrix(1 0 0 1.00024 666 9)"/><path d="M77.2013 157.445 85.266 192.319 93.3185 230.944 101.383 228.097 109.448 239.485 117.5 239.485 125.565 188.213 133.618 239.485 141.682 223.075 149.735 230.944 157.8 232.643 165.864 222.391 173.917 225.812 181.982 216.696 190.034 211.002 198.099 239.485 206.163 229.233 214.216 198.465 222.281 205.308 230.333 222.391 238.398 225.812 246.45 239.485 254.515 239.485 262.58 231.286 270.632 218.981 278.697 239.485 286.75 234.598 294.814 205.308 302.879 239.485 310.931 233.791 318.996 225.812" stroke="#56B4E9" stroke-width="2.87153" stroke-linejoin="round" stroke-miterlimit="10" fill="none" transform="matrix(1 0 0 1.00024 666 9)"/><path d="M77.2013 116.437 85.266 81.5636 93.3185 42.9385 101.383 62.8803 109.448 42.5964 117.5 34.3972 125.565 85.6693 133.618 34.3972 141.682 50.8077 149.735 42.9385 157.8 48.0706 165.864 51.492 173.917 48.0706 181.982 81.1115 190.034 62.8803 198.099 34.3972 206.163 54.9012 214.216 75.4173 222.281 68.5745 230.333 71.9959 238.398 48.0706 246.45 34.3972 254.515 51.492 262.58 42.5964 270.632 54.9012 278.697 54.9012 286.75 39.2849 294.814 68.5745 302.879 34.3972 310.931 40.0914 318.996 58.3226" stroke="#000000" stroke-width="5.16875" stroke-linejoin="round" stroke-miterlimit="10" fill="none" transform="matrix(1 0 0 1.00024 666 9)"/><path d="M77.2013 116.437 85.266 81.5636 93.3185 42.9385 101.383 62.8803 109.448 42.5964 117.5 34.3972 125.565 85.6693 133.618 34.3972 141.682 50.8077 149.735 42.9385 157.8 48.0706 165.864 51.492 173.917 48.0706 181.982 81.1115 190.034 62.8803 198.099 34.3972 206.163 54.9012 214.216 75.4173 222.281 68.5745 230.333 71.9959 238.398 48.0706 246.45 34.3972 254.515 51.492 262.58 42.5964 270.632 54.9012 278.697 54.9012 286.75 39.2849 294.814 68.5745 302.879 34.3972 310.931 40.0914 318.996 58.3226" stroke="#E69F00" stroke-width="2.87153" stroke-linejoin="round" stroke-miterlimit="10" fill="none" transform="matrix(1 0 0 1.00024 666 9)"/></g><g><path d="M65.1165 273.883 331.081 273.883 331.081 478.971 65.1165 478.971Z" fill="#FFFFFF" transform="matrix(1 0 0 1.00024 666 9)"/><path d="M77.2013 478.971 85.266 478.971 93.3185 478.971 101.383 478.971 109.448 478.971 117.5 458.455 125.565 478.971 133.618 478.971 141.682 478.971 149.735 478.971 157.8 478.971 165.864 444.794 173.917 478.971 181.982 466.153 190.034 451.624 198.099 465.297 206.163 465.297 214.216 461.876 222.281 478.971 230.333 461.876 238.398 478.971 246.45 478.971 254.515 478.971 262.58 451.624 270.632 439.087 278.697 396.931 286.75 430.436 294.814 407.195 302.879 444.109 310.931 462.56 318.996 403.773" stroke="#0072B2" stroke-width="2.6027" stroke-linejoin="round" stroke-miterlimit="10" fill="none" transform="matrix(1 0 0 1.00024 666 9)"/><path d="M77.2013 410.604 85.266 427.699 93.3185 427.699 101.383 458.455 109.448 433.393 117.5 424.277 125.565 444.794 133.618 468.719 141.682 410.604 149.735 431.12 157.8 429.752 165.864 444.794 173.917 355.923 181.982 372.15 190.034 437.951 198.099 403.773 206.163 458.455 214.216 410.604 222.281 453.335 230.333 453.335 238.398 436.24 246.45 423.422 254.515 478.971 262.58 396.931 270.632 441.934 278.697 431.12 286.75 429.752 294.814 437.951 302.879 378.48 310.931 416.078 318.996 431.12" stroke="#56B4E9" stroke-width="2.6027" stroke-linejoin="round" stroke-miterlimit="10" fill="none" transform="matrix(1 0 0 1.00024 666 9)"/><path d="M77.2013 342.249 85.266 325.155 93.3185 325.155 101.383 294.387 109.448 319.461 117.5 349.08 125.565 308.06 133.618 284.135 141.682 342.249 149.735 321.733 157.8 323.102 165.864 342.249 173.917 396.931 181.982 393.521 190.034 342.249 198.099 362.753 206.163 308.06 214.216 359.332 222.281 299.519 230.333 316.613 238.398 316.613 246.45 329.431 254.515 273.883 262.58 383.257 270.632 350.791 278.697 403.773 286.75 371.637 294.814 386.679 302.879 409.235 310.931 353.186 318.996 396.931" stroke="#E69F00" stroke-width="2.6027" stroke-linejoin="round" stroke-miterlimit="10" fill="none" transform="matrix(1 0 0 1.00024 666 9)"/><path d="M77.2013 478.971 85.266 478.971 93.3185 478.971 101.383 478.971 109.448 478.971 117.5 458.455 125.565 478.971 133.618 478.971 141.682 478.971 149.735 478.971 157.8 478.971 165.864 444.794 173.917 478.971 181.982 466.153 190.034 451.624 198.099 465.297 206.163 465.297 214.216 461.876 222.281 478.971 230.333 461.876 238.398 478.971 246.45 478.971 254.515 478.971 262.58 451.624 270.632 439.087 278.697 396.931 286.75 430.436 294.814 407.195 302.879 444.109 310.931 462.56 318.996 403.773" stroke="#000000" stroke-width="5.16875" stroke-linejoin="round" stroke-miterlimit="10" fill="none" transform="matrix(1 0 0 1.00024 666 9)"/><path d="M77.2013 478.971 85.266 478.971 93.3185 478.971 101.383 478.971 109.448 478.971 117.5 458.455 125.565 478.971 133.618 478.971 141.682 478.971 149.735 478.971 157.8 478.971 165.864 444.794 173.917 478.971 181.982 466.153 190.034 451.624 198.099 465.297 206.163 465.297 214.216 461.876 222.281 478.971 230.333 461.876 238.398 478.971 246.45 478.971 254.515 478.971 262.58 451.624 270.632 439.087 278.697 396.931 286.75 430.436 294.814 407.195 302.879 444.109 310.931 462.56 318.996 403.773" stroke="#0072B2" stroke-width="2.87153" stroke-linejoin="round" stroke-miterlimit="10" fill="none" transform="matrix(1 0 0 1.00024 666 9)"/><path d="M77.2013 410.604 85.266 427.699 93.3185 427.699 101.383 458.455 109.448 433.393 117.5 424.277 125.565 444.794 133.618 468.719 141.682 410.604 149.735 431.12 157.8 429.752 165.864 444.794 173.917 355.923 181.982 372.15 190.034 437.951 198.099 403.773 206.163 458.455 214.216 410.604 222.281 453.335 230.333 453.335 238.398 436.24 246.45 423.422 254.515 478.971 262.58 396.931 270.632 441.934 278.697 431.12 286.75 429.752 294.814 437.951 302.879 378.48 310.931 416.078 318.996 431.12" stroke="#000000" stroke-width="5.16875" stroke-linejoin="round" stroke-miterlimit="10" fill="none" transform="matrix(1 0 0 1.00024 666 9)"/><path d="M77.2013 410.604 85.266 427.699 93.3185 427.699 101.383 458.455 109.448 433.393 117.5 424.277 125.565 444.794 133.618 468.719 141.682 410.604 149.735 431.12 157.8 429.752 165.864 444.794 173.917 355.923 181.982 372.15 190.034 437.951 198.099 403.773 206.163 458.455 214.216 410.604 222.281 453.335 230.333 453.335 238.398 436.24 246.45 423.422 254.515 478.971 262.58 396.931 270.632 441.934 278.697 431.12 286.75 429.752 294.814 437.951 302.879 378.48 310.931 416.078 318.996 431.12" stroke="#56B4E9" stroke-width="2.87153" stroke-linejoin="round" stroke-miterlimit="10" fill="none" transform="matrix(1 0 0 1.00024 666 9)"/><path d="M77.2013 342.249 85.266 325.155 93.3185 325.155 101.383 294.387 109.448 319.461 117.5 349.08 125.565 308.06 133.618 284.135 141.682 342.249 149.735 321.733 157.8 323.102 165.864 342.249 173.917 396.931 181.982 393.521 190.034 342.249 198.099 362.753 206.163 308.06 214.216 359.332 222.281 299.519 230.333 316.613 238.398 316.613 246.45 329.431 254.515 273.883 262.58 383.257 270.632 350.791 278.697 403.773 286.75 371.637 294.814 386.679 302.879 409.235 310.931 353.186 318.996 396.931" stroke="#000000" stroke-width="5.16875" stroke-linejoin="round" stroke-miterlimit="10" fill="none" transform="matrix(1 0 0 1.00024 666 9)"/><path d="M77.2013 342.249 85.266 325.155 93.3185 325.155 101.383 294.387 109.448 319.461 117.5 349.08 125.565 308.06 133.618 284.135 141.682 342.249 149.735 321.733 157.8 323.102 165.864 342.249 173.917 396.931 181.982 393.521 190.034 342.249 198.099 362.753 206.163 308.06 214.216 359.332 222.281 299.519 230.333 316.613 238.398 316.613 246.45 329.431 254.515 273.883 262.58 383.257 270.632 350.791 278.697 403.773 286.75 371.637 294.814 386.679 302.879 409.235 310.931 353.186 318.996 396.931" stroke="#E69F00" stroke-width="2.87153" stroke-linejoin="round" stroke-miterlimit="10" fill="none" transform="matrix(1 0 0 1.00024 666 9)"/></g><g><path d="M337.777 34.3972 603.742 34.3972 603.742 239.485 337.777 239.485Z" fill="#FFFFFF" transform="matrix(1 0 0 1.00024 666 9)"/><path d="M349.862 239.485 357.927 239.485 365.991 239.485 374.044 239.485 382.109 239.485 390.161 239.485 398.226 219.544 406.291 239.485 414.343 239.485 422.408 239.485 430.46 239.485 438.525 239.485 446.578 239.485 454.642 239.485 462.707 239.485 470.759 239.485 478.824 188.213 486.877 239.485 494.941 239.485 503.006 239.485 511.059 239.485 519.123 239.485 527.176 239.485 535.241 239.485 543.293 239.485 551.358 239.485 559.422 232.643 567.475 239.485 575.54 239.485 583.592 229.233" stroke="#0072B2" stroke-width="2.6027" stroke-linejoin="round" stroke-miterlimit="10" fill="none" transform="matrix(1 0 0 1.00024 666 9)"/><path d="M349.862 233.791 357.927 229.233 365.991 228.097 374.044 239.485 382.109 239.485 390.161 222.391 398.226 205.308 406.291 222.391 414.343 233.62 422.408 188.213 430.46 218.981 438.525 239.485 446.578 188.213 454.642 196.755 462.707 188.213 470.759 198.465 478.824 213.849 486.877 171.119 494.941 213.849 503.006 213.849 511.059 209.573 519.123 198.465 527.176 196.755 535.241 145.483 543.293 171.119 551.358 171.119 559.422 195.044 567.475 196.755 575.54 191.635 583.592 184.792" stroke="#56B4E9" stroke-width="2.6027" stroke-linejoin="round" stroke-miterlimit="10" fill="none" transform="matrix(1 0 0 1.00024 666 9)"/><path d="M349.862 40.0914 357.927 44.6492 365.991 45.7856 374.044 34.3972 382.109 34.3972 390.161 51.492 398.226 88.5164 406.291 51.492 414.343 40.2625 422.408 85.6693 430.46 54.9012 438.525 34.3972 446.578 85.6693 454.642 77.128 462.707 85.6693 470.759 75.4173 478.824 111.305 486.877 102.764 494.941 60.0333 503.006 60.0333 511.059 64.31 519.123 75.4173 527.176 77.128 535.241 128.4 543.293 102.764 551.358 102.764 559.422 85.6693 567.475 77.128 575.54 82.2479 583.592 99.3426" stroke="#E69F00" stroke-width="2.6027" stroke-linejoin="round" stroke-miterlimit="10" fill="none" transform="matrix(1 0 0 1.00024 666 9)"/><path d="M349.862 239.485 357.927 239.485 365.991 239.485 374.044 239.485 382.109 239.485 390.161 239.485 398.226 219.544 406.291 239.485 414.343 239.485 422.408 239.485 430.46 239.485 438.525 239.485 446.578 239.485 454.642 239.485 462.707 239.485 470.759 239.485 478.824 188.213 486.877 239.485 494.941 239.485 503.006 239.485 511.059 239.485 519.123 239.485 527.176 239.485 535.241 239.485 543.293 239.485 551.358 239.485 559.422 232.643 567.475 239.485 575.54 239.485 583.592 229.233" stroke="#000000" stroke-width="5.16875" stroke-linejoin="round" stroke-miterlimit="10" fill="none" transform="matrix(1 0 0 1.00024 666 9)"/><path d="M349.862 239.485 357.927 239.485 365.991 239.485 374.044 239.485 382.109 239.485 390.161 239.485 398.226 219.544 406.291 239.485 414.343 239.485 422.408 239.485 430.46 239.485 438.525 239.485 446.578 239.485 454.642 239.485 462.707 239.485 470.759 239.485 478.824 188.213 486.877 239.485 494.941 239.485 503.006 239.485 511.059 239.485 519.123 239.485 527.176 239.485 535.241 239.485 543.293 239.485 551.358 239.485 559.422 232.643 567.475 239.485 575.54 239.485 583.592 229.233" stroke="#0072B2" stroke-width="2.87153" stroke-linejoin="round" stroke-miterlimit="10" fill="none" transform="matrix(1 0 0 1.00024 666 9)"/><path d="M349.862 233.791 357.927 229.233 365.991 228.097 374.044 239.485 382.109 239.485 390.161 222.391 398.226 205.308 406.291 222.391 414.343 233.62 422.408 188.213 430.46 218.981 438.525 239.485 446.578 188.213 454.642 196.755 462.707 188.213 470.759 198.465 478.824 213.849 486.877 171.119 494.941 213.849 503.006 213.849 511.059 209.573 519.123 198.465 527.176 196.755 535.241 145.483 543.293 171.119 551.358 171.119 559.422 195.044 567.475 196.755 575.54 191.635 583.592 184.792" stroke="#000000" stroke-width="5.16875" stroke-linejoin="round" stroke-miterlimit="10" fill="none" transform="matrix(1 0 0 1.00024 666 9)"/><path d="M349.862 233.791 357.927 229.233 365.991 228.097 374.044 239.485 382.109 239.485 390.161 222.391 398.226 205.308 406.291 222.391 414.343 233.62 422.408 188.213 430.46 218.981 438.525 239.485 446.578 188.213 454.642 196.755 462.707 188.213 470.759 198.465 478.824 213.849 486.877 171.119 494.941 213.849 503.006 213.849 511.059 209.573 519.123 198.465 527.176 196.755 535.241 145.483 543.293 171.119 551.358 171.119 559.422 195.044 567.475 196.755 575.54 191.635 583.592 184.792" stroke="#56B4E9" stroke-width="2.87153" stroke-linejoin="round" stroke-miterlimit="10" fill="none" transform="matrix(1 0 0 1.00024 666 9)"/><path d="M349.862 40.0914 357.927 44.6492 365.991 45.7856 374.044 34.3972 382.109 34.3972 390.161 51.492 398.226 88.5164 406.291 51.492 414.343 40.2625 422.408 85.6693 430.46 54.9012 438.525 34.3972 446.578 85.6693 454.642 77.128 462.707 85.6693 470.759 75.4173 478.824 111.305 486.877 102.764 494.941 60.0333 503.006 60.0333 511.059 64.31 519.123 75.4173 527.176 77.128 535.241 128.4 543.293 102.764 551.358 102.764 559.422 85.6693 567.475 77.128 575.54 82.2479 583.592 99.3426" stroke="#000000" stroke-width="5.16875" stroke-linejoin="round" stroke-miterlimit="10" fill="none" transform="matrix(1 0 0 1.00024 666 9)"/><path d="M349.862 40.0914 357.927 44.6492 365.991 45.7856 374.044 34.3972 382.109 34.3972 390.161 51.492 398.226 88.5164 406.291 51.492 414.343 40.2625 422.408 85.6693 430.46 54.9012 438.525 34.3972 446.578 85.6693 454.642 77.128 462.707 85.6693 470.759 75.4173 478.824 111.305 486.877 102.764 494.941 60.0333 503.006 60.0333 511.059 64.31 519.123 75.4173 527.176 77.128 535.241 128.4 543.293 102.764 551.358 102.764 559.422 85.6693 567.475 77.128 575.54 82.2479 583.592 99.3426" stroke="#E69F00" stroke-width="2.87153" stroke-linejoin="round" stroke-miterlimit="10" fill="none" transform="matrix(1 0 0 1.00024 666 9)"/></g><g><path d="M337.777 273.883 603.742 273.883 603.742 478.971 337.777 478.971Z" fill="#FFFFFF" transform="matrix(1 0 0 1.00024 666 9)"/><path d="M349.862 431.12 357.927 433.393 365.991 468.719 374.044 423.422 382.109 413.451 390.161 422.005 398.226 441.934 406.291 441.934 414.343 440.517 422.408 373.005 430.46 362.753 438.525 362.753 446.578 424.962 454.642 410.604 462.707 386.679 470.759 417.447 478.824 426.232 486.877 396.931 494.941 403.773 503.006 390.1 511.059 436.24 519.123 422.005 527.176 370.733 535.241 393.521 543.293 422.005 551.358 395.562 559.422 382.121 567.475 393.521 575.54 402.063 583.592 390.259" stroke="#0072B2" stroke-width="2.6027" stroke-linejoin="round" stroke-miterlimit="10" fill="none" transform="matrix(1 0 0 1.00024 666 9)"/><path d="M349.862 406.511 357.927 444.794 365.991 373.005 374.044 384.968 382.109 419.158 390.161 410.604 398.226 393.521 406.291 402.063 414.343 384.968 422.408 444.794 430.46 441.372 438.525 403.773 446.578 444.109 454.642 410.604 462.707 425.646 470.759 392.837 478.824 406.706 486.877 379.848 494.941 393.521 503.006 465.297 511.059 350.791 519.123 393.521 527.176 444.794 535.241 413.451 543.293 393.521 551.358 418.815 559.422 444.794 567.475 419.158 575.54 393.521 583.592 372.358" stroke="#56B4E9" stroke-width="2.6027" stroke-linejoin="round" stroke-miterlimit="10" fill="none" transform="matrix(1 0 0 1.00024 666 9)"/><path d="M349.862 394.206 357.927 353.638 365.991 390.1 374.044 423.422 382.109 399.216 390.161 399.216 398.226 396.369 406.291 387.815 414.343 406.34 422.408 414.025 430.46 427.699 438.525 465.297 446.578 362.753 454.642 410.604 462.707 419.5 470.759 421.54 478.824 398.886 486.877 455.046 494.941 434.529 503.006 376.427 511.059 444.794 519.123 416.298 527.176 416.298 535.241 424.852 543.293 416.298 551.358 417.447 559.422 404.91 567.475 419.158 575.54 436.24 583.592 469.208" stroke="#E69F00" stroke-width="2.6027" stroke-linejoin="round" stroke-miterlimit="10" fill="none" transform="matrix(1 0 0 1.00024 666 9)"/><path d="M349.862 431.12 357.927 433.393 365.991 468.719 374.044 423.422 382.109 413.451 390.161 422.005 398.226 441.934 406.291 441.934 414.343 440.517 422.408 373.005 430.46 362.753 438.525 362.753 446.578 424.962 454.642 410.604 462.707 386.679 470.759 417.447 478.824 426.232 486.877 396.931 494.941 403.773 503.006 390.1 511.059 436.24 519.123 422.005 527.176 370.733 535.241 393.521 543.293 422.005 551.358 395.562 559.422 382.121 567.475 393.521 575.54 402.063 583.592 390.259" stroke="#000000" stroke-width="5.16875" stroke-linejoin="round" stroke-miterlimit="10" fill="none" transform="matrix(1 0 0 1.00024 666 9)"/><path d="M349.862 431.12 357.927 433.393 365.991 468.719 374.044 423.422 382.109 413.451 390.161 422.005 398.226 441.934 406.291 441.934 414.343 440.517 422.408 373.005 430.46 362.753 438.525 362.753 446.578 424.962 454.642 410.604 462.707 386.679 470.759 417.447 478.824 426.232 486.877 396.931 494.941 403.773 503.006 390.1 511.059 436.24 519.123 422.005 527.176 370.733 535.241 393.521 543.293 422.005 551.358 395.562 559.422 382.121 567.475 393.521 575.54 402.063 583.592 390.259" stroke="#0072B2" stroke-width="2.87153" stroke-linejoin="round" stroke-miterlimit="10" fill="none" transform="matrix(1 0 0 1.00024 666 9)"/><path d="M349.862 406.511 357.927 444.794 365.991 373.005 374.044 384.968 382.109 419.158 390.161 410.604 398.226 393.521 406.291 402.063 414.343 384.968 422.408 444.794 430.46 441.372 438.525 403.773 446.578 444.109 454.642 410.604 462.707 425.646 470.759 392.837 478.824 406.706 486.877 379.848 494.941 393.521 503.006 465.297 511.059 350.791 519.123 393.521 527.176 444.794 535.241 413.451 543.293 393.521 551.358 418.815 559.422 444.794 567.475 419.158 575.54 393.521 583.592 372.358" stroke="#000000" stroke-width="5.16875" stroke-linejoin="round" stroke-miterlimit="10" fill="none" transform="matrix(1 0 0 1.00024 666 9)"/><path d="M349.862 406.511 357.927 444.794 365.991 373.005 374.044 384.968 382.109 419.158 390.161 410.604 398.226 393.521 406.291 402.063 414.343 384.968 422.408 444.794 430.46 441.372 438.525 403.773 446.578 444.109 454.642 410.604 462.707 425.646 470.759 392.837 478.824 406.706 486.877 379.848 494.941 393.521 503.006 465.297 511.059 350.791 519.123 393.521 527.176 444.794 535.241 413.451 543.293 393.521 551.358 418.815 559.422 444.794 567.475 419.158 575.54 393.521 583.592 372.358" stroke="#56B4E9" stroke-width="2.87153" stroke-linejoin="round" stroke-miterlimit="10" fill="none" transform="matrix(1 0 0 1.00024 666 9)"/><path d="M349.862 394.206 357.927 353.638 365.991 390.1 374.044 423.422 382.109 399.216 390.161 399.216 398.226 396.369 406.291 387.815 414.343 406.34 422.408 414.025 430.46 427.699 438.525 465.297 446.578 362.753 454.642 410.604 462.707 419.5 470.759 421.54 478.824 398.886 486.877 455.046 494.941 434.529 503.006 376.427 511.059 444.794 519.123 416.298 527.176 416.298 535.241 424.852 543.293 416.298 551.358 417.447 559.422 404.91 567.475 419.158 575.54 436.24 583.592 469.208" stroke="#000000" stroke-width="5.16875" stroke-linejoin="round" stroke-miterlimit="10" fill="none" transform="matrix(1 0 0 1.00024 666 9)"/><path d="M349.862 394.206 357.927 353.638 365.991 390.1 374.044 423.422 382.109 399.216 390.161 399.216 398.226 396.369 406.291 387.815 414.343 406.34 422.408 414.025 430.46 427.699 438.525 465.297 446.578 362.753 454.642 410.604 462.707 419.5 470.759 421.54 478.824 398.886 486.877 455.046 494.941 434.529 503.006 376.427 511.059 444.794 519.123 416.298 527.176 416.298 535.241 424.852 543.293 416.298 551.358 417.447 559.422 404.91 567.475 419.158 575.54 436.24 583.592 469.208" stroke="#E69F00" stroke-width="2.87153" stroke-linejoin="round" stroke-miterlimit="10" fill="none" transform="matrix(1 0 0 1.00024 666 9)"/></g><g><path d="M65.1165 246.182 331.081 246.182 331.081 273.883 65.1165 273.883Z" stroke="#000000" stroke-width="2.6027" stroke-linecap="round" stroke-linejoin="round" stroke-miterlimit="10" fill="#FFFFFF" transform="matrix(1 0 0 1.00024 666 9)"/><text fill="#1A1A1A" font-family="Arial,Arial_MSFontService,sans-serif" font-weight="400" font-size="15" transform="matrix(1.22193 0 0 1.22222 831.5 276)">October</text></g><g><path d="M337.777 246.182 603.742 246.182 603.742 273.883 337.777 273.883Z" stroke="#000000" stroke-width="2.6027" stroke-linecap="round" stroke-linejoin="round" stroke-miterlimit="10" fill="#FFFFFF" transform="matrix(1 0 0 1.00024 666 9)"/><text fill="#1A1A1A" font-family="Arial,Arial_MSFontService,sans-serif" font-weight="400" font-size="15" transform="matrix(1.22193 0 0 1.22222 1094.49 276)">November</text></g><g><path d="M65.1165 6.69616 331.081 6.69616 331.081 34.3972 65.1165 34.3972Z" stroke="#000000" stroke-width="2.6027" stroke-linecap="round" stroke-linejoin="round" stroke-miterlimit="10" fill="#FFFFFF" transform="matrix(1 0 0 1.00024 666 9)"/><text fill="#1A1A1A" font-family="Arial,Arial_MSFontService,sans-serif" font-weight="400" font-size="15" transform="matrix(1.22193 0 0 1.22222 835.567 36)">August</text></g><g><path d="M337.777 6.69616 603.742 6.69616 603.742 34.3972 337.777 34.3972Z" stroke="#000000" stroke-width="2.6027" stroke-linecap="round" stroke-linejoin="round" stroke-miterlimit="10" fill="#FFFFFF" transform="matrix(1 0 0 1.00024 666 9)"/><text fill="#1A1A1A" font-family="Arial,Arial_MSFontService,sans-serif" font-weight="400" font-size="15" transform="matrix(1.22193 0 0 1.22222 1091.93 36)">September</text></g><g><path d="M65.1165 478.971 331.081 478.971" stroke="#000000" stroke-width="1.30746" stroke-linecap="square" stroke-linejoin="round" stroke-miterlimit="10" fill="none" transform="matrix(1 0 0 1.00024 666 9)"/><path d="M69.1488 482.319 69.1488 478.971" stroke="#000000" stroke-width="1.30746" stroke-linejoin="round" stroke-miterlimit="10" fill="none" transform="matrix(1 0 0 1.00024 666 9)"/><path d="M149.735 482.319 149.735 478.971" stroke="#000000" stroke-width="1.30746" stroke-linejoin="round" stroke-miterlimit="10" fill="none" transform="matrix(1 0 0 1.00024 666 9)"/><path d="M230.333 482.319 230.333 478.971" stroke="#000000" stroke-width="1.30746" stroke-linejoin="round" stroke-miterlimit="10" fill="none" transform="matrix(1 0 0 1.00024 666 9)"/><path d="M310.931 482.319 310.931 478.971" stroke="#000000" stroke-width="1.30746" stroke-linejoin="round" stroke-miterlimit="10" fill="none" transform="matrix(1 0 0 1.00024 666 9)"/><text font-family="Arial,Arial_MSFontService,sans-serif" font-weight="400" font-size="13" transform="matrix(1.22193 0 0 1.22222 730.732 505)">0</text><text font-family="Arial,Arial_MSFontService,sans-serif" font-weight="400" font-size="13" transform="matrix(1.22193 0 0 1.22222 806.9 505)">10</text><text font-family="Arial,Arial_MSFontService,sans-serif" font-weight="400" font-size="13" transform="matrix(1.22193 0 0 1.22222 887.499 505)">20</text><text font-family="Arial,Arial_MSFontService,sans-serif" font-weight="400" font-size="13" transform="matrix(1.22193 0 0 1.22222 968.097 505)">30</text><path d="M337.777 478.971 603.742 478.971" stroke="#000000" stroke-width="1.30746" stroke-linecap="square" stroke-linejoin="round" stroke-miterlimit="10" fill="none" transform="matrix(1 0 0 1.00024 666 9)"/><path d="M341.81 482.319 341.81 478.971" stroke="#000000" stroke-width="1.30746" stroke-linejoin="round" stroke-miterlimit="10" fill="none" transform="matrix(1 0 0 1.00024 666 9)"/><path d="M422.408 482.319 422.408 478.971" stroke="#000000" stroke-width="1.30746" stroke-linejoin="round" stroke-miterlimit="10" fill="none" transform="matrix(1 0 0 1.00024 666 9)"/><path d="M503.006 482.319 503.006 478.971" stroke="#000000" stroke-width="1.30746" stroke-linejoin="round" stroke-miterlimit="10" fill="none" transform="matrix(1 0 0 1.00024 666 9)"/><path d="M583.592 482.319 583.592 478.971" stroke="#000000" stroke-width="1.30746" stroke-linejoin="round" stroke-miterlimit="10" fill="none" transform="matrix(1 0 0 1.00024 666 9)"/><text font-family="Arial,Arial_MSFontService,sans-serif" font-weight="400" font-size="13" transform="matrix(1.22193 0 0 1.22222 1003.39 505)">0</text><text font-family="Arial,Arial_MSFontService,sans-serif" font-weight="400" font-size="13" transform="matrix(1.22193 0 0 1.22222 1079.57 505)">10</text><text font-family="Arial,Arial_MSFontService,sans-serif" font-weight="400" font-size="13" transform="matrix(1.22193 0 0 1.22222 1160.17 505)">20</text><text font-family="Arial,Arial_MSFontService,sans-serif" font-weight="400" font-size="13" transform="matrix(1.22193 0 0 1.22222 1240.76 505)">30</text><path d="M65.1165 239.485 65.1165 34.3972" stroke="#000000" stroke-width="1.30746" stroke-linecap="square" stroke-linejoin="round" stroke-miterlimit="10" fill="none" transform="matrix(1 0 0 1.00024 666 9)"/><text font-family="Arial,Arial_MSFontService,sans-serif" font-weight="400" font-size="13" transform="matrix(1.22193 0 0 1.22222 694.175 254)">0</text><text font-family="Arial,Arial_MSFontService,sans-serif" font-weight="400" font-size="13" transform="matrix(1.22193 0 0 1.22222 703.01 254)">.</text><text font-family="Arial,Arial_MSFontService,sans-serif" font-weight="400" font-size="13" transform="matrix(1.22193 0 0 1.22222 707.423 254)">00</text><text font-family="Arial,Arial_MSFontService,sans-serif" font-weight="400" font-size="13" transform="matrix(1.22193 0 0 1.22222 694.175 203)">0</text><text font-family="Arial,Arial_MSFontService,sans-serif" font-weight="400" font-size="13" transform="matrix(1.22193 0 0 1.22222 703.01 203)">.</text><text font-family="Arial,Arial_MSFontService,sans-serif" font-weight="400" font-size="13" transform="matrix(1.22193 0 0 1.22222 707.423 203)">25</text><text font-family="Arial,Arial_MSFontService,sans-serif" font-weight="400" font-size="13" transform="matrix(1.22193 0 0 1.22222 694.175 152)">0</text><text font-family="Arial,Arial_MSFontService,sans-serif" font-weight="400" font-size="13" transform="matrix(1.22193 0 0 1.22222 703.01 152)">.</text><text font-family="Arial,Arial_MSFontService,sans-serif" font-weight="400" font-size="13" transform="matrix(1.22193 0 0 1.22222 707.423 152)">50</text><text font-family="Arial,Arial_MSFontService,sans-serif" font-weight="400" font-size="13" transform="matrix(1.22193 0 0 1.22222 694.175 100)">0</text><text font-family="Arial,Arial_MSFontService,sans-serif" font-weight="400" font-size="13" transform="matrix(1.22193 0 0 1.22222 703.01 100)">.</text><text font-family="Arial,Arial_MSFontService,sans-serif" font-weight="400" font-size="13" transform="matrix(1.22193 0 0 1.22222 707.423 100)">75</text><text font-family="Arial,Arial_MSFontService,sans-serif" font-weight="400" font-size="13" transform="matrix(1.22193 0 0 1.22222 694.175 49)">1</text><text font-family="Arial,Arial_MSFontService,sans-serif" font-weight="400" font-size="13" transform="matrix(1.22193 0 0 1.22222 703.01 49)">.</text><text font-family="Arial,Arial_MSFontService,sans-serif" font-weight="400" font-size="13" transform="matrix(1.22193 0 0 1.22222 707.423 49)">00</text><path d="M61.7684 239.485 65.1165 239.485" stroke="#000000" stroke-width="1.30746" stroke-linejoin="round" stroke-miterlimit="10" fill="none" transform="matrix(1 0 0 1.00024 666 9)"/><path d="M61.7684 188.213 65.1165 188.213" stroke="#000000" stroke-width="1.30746" stroke-linejoin="round" stroke-miterlimit="10" fill="none" transform="matrix(1 0 0 1.00024 666 9)"/><path d="M61.7684 136.941 65.1165 136.941" stroke="#000000" stroke-width="1.30746" stroke-linejoin="round" stroke-miterlimit="10" fill="none" transform="matrix(1 0 0 1.00024 666 9)"/><path d="M61.7684 85.6693 65.1165 85.6693" stroke="#000000" stroke-width="1.30746" stroke-linejoin="round" stroke-miterlimit="10" fill="none" transform="matrix(1 0 0 1.00024 666 9)"/><path d="M61.7684 34.3972 65.1165 34.3972" stroke="#000000" stroke-width="1.30746" stroke-linejoin="round" stroke-miterlimit="10" fill="none" transform="matrix(1 0 0 1.00024 666 9)"/><path d="M65.1165 478.971 65.1165 273.883" stroke="#000000" stroke-width="1.30746" stroke-linecap="square" stroke-linejoin="round" stroke-miterlimit="10" fill="none" transform="matrix(1 0 0 1.00024 666 9)"/><text font-family="Arial,Arial_MSFontService,sans-serif" font-weight="400" font-size="13" transform="matrix(1.22193 0 0 1.22222 694.175 494)">0</text><text font-family="Arial,Arial_MSFontService,sans-serif" font-weight="400" font-size="13" transform="matrix(1.22193 0 0 1.22222 703.01 494)">.</text><text font-family="Arial,Arial_MSFontService,sans-serif" font-weight="400" font-size="13" transform="matrix(1.22193 0 0 1.22222 707.423 494)">00</text><text font-family="Arial,Arial_MSFontService,sans-serif" font-weight="400" font-size="13" transform="matrix(1.22193 0 0 1.22222 694.175 442)">0</text><text font-family="Arial,Arial_MSFontService,sans-serif" font-weight="400" font-size="13" transform="matrix(1.22193 0 0 1.22222 703.01 442)">.</text><text font-family="Arial,Arial_MSFontService,sans-serif" font-weight="400" font-size="13" transform="matrix(1.22193 0 0 1.22222 707.423 442)">25</text><text font-family="Arial,Arial_MSFontService,sans-serif" font-weight="400" font-size="13" transform="matrix(1.22193 0 0 1.22222 694.175 391)">0</text><text font-family="Arial,Arial_MSFontService,sans-serif" font-weight="400" font-size="13" transform="matrix(1.22193 0 0 1.22222 703.01 391)">.</text><text font-family="Arial,Arial_MSFontService,sans-serif" font-weight="400" font-size="13" transform="matrix(1.22193 0 0 1.22222 707.423 391)">50</text><text font-family="Arial,Arial_MSFontService,sans-serif" font-weight="400" font-size="13" transform="matrix(1.22193 0 0 1.22222 694.175 340)">0</text><text font-family="Arial,Arial_MSFontService,sans-serif" font-weight="400" font-size="13" transform="matrix(1.22193 0 0 1.22222 703.01 340)">.</text><text font-family="Arial,Arial_MSFontService,sans-serif" font-weight="400" font-size="13" transform="matrix(1.22193 0 0 1.22222 707.423 340)">75</text><text font-family="Arial,Arial_MSFontService,sans-serif" font-weight="400" font-size="13" transform="matrix(1.22193 0 0 1.22222 694.175 289)">1</text><text font-family="Arial,Arial_MSFontService,sans-serif" font-weight="400" font-size="13" transform="matrix(1.22193 0 0 1.22222 703.01 289)">.</text><text font-family="Arial,Arial_MSFontService,sans-serif" font-weight="400" font-size="13" transform="matrix(1.22193 0 0 1.22222 707.423 289)">00</text><path d="M61.7684 478.971 65.1165 478.971" stroke="#000000" stroke-width="1.30746" stroke-linejoin="round" stroke-miterlimit="10" fill="none" transform="matrix(1 0 0 1.00024 666 9)"/><path d="M61.7684 427.699 65.1165 427.699" stroke="#000000" stroke-width="1.30746" stroke-linejoin="round" stroke-miterlimit="10" fill="none" transform="matrix(1 0 0 1.00024 666 9)"/><path d="M61.7684 376.427 65.1165 376.427" stroke="#000000" stroke-width="1.30746" stroke-linejoin="round" stroke-miterlimit="10" fill="none" transform="matrix(1 0 0 1.00024 666 9)"/><path d="M61.7684 325.155 65.1165 325.155" stroke="#000000" stroke-width="1.30746" stroke-linejoin="round" stroke-miterlimit="10" fill="none" transform="matrix(1 0 0 1.00024 666 9)"/><path d="M61.7684 273.883 65.1165 273.883" stroke="#000000" stroke-width="1.30746" stroke-linejoin="round" stroke-miterlimit="10" fill="none" transform="matrix(1 0 0 1.00024 666 9)"/><text font-family="Arial,Arial_MSFontService,sans-serif" font-weight="400" font-size="16" transform="matrix(1.22193 0 0 1.22222 983.045 526)">Day</text><text font-family="Arial,Arial_MSFontService,sans-serif" font-weight="400" font-size="16" transform="matrix(7.48214e-17 -1.22222 1.22193 7.48395e-17 686.687 354)">Porportion of ravens</text><path d="M617.134 208.742 697.134 208.742 697.134 304.626 617.134 304.626Z" fill="#FFFFFF" transform="matrix(1 0 0 1.00024 666 9)"/><text font-family="Arial,Arial_MSFontService,sans-serif" font-weight="400" font-size="11" transform="matrix(1.22193 0 0 1.22222 1289.83 236)">Decision</text><path d="M623.83 234.585 644.945 234.585 644.945 255.7 623.83 255.7Z" fill="#FFFFFF" transform="matrix(1 0 0 1.00024 666 9)"/><path d="M625.944 245.143 642.831 245.143" stroke="#0072B2" stroke-width="2.6027" stroke-linejoin="round" stroke-miterlimit="10" fill="none" transform="matrix(1 0 0 1.00024 666 9)"/><path d="M625.944 245.143 642.831 245.143" stroke="#000000" stroke-width="5.47423" stroke-linejoin="round" stroke-miterlimit="10" fill="none" transform="matrix(1 0 0 1.00024 666 9)"/><path d="M625.944 245.143 642.831 245.143" stroke="#0072B2" stroke-width="2.87153" stroke-linejoin="round" stroke-miterlimit="10" fill="none" transform="matrix(1 0 0 1.00024 666 9)"/><path d="M623.83 255.7 644.945 255.7 644.945 276.815 623.83 276.815Z" fill="#FFFFFF" transform="matrix(1 0 0 1.00024 666 9)"/><path d="M625.944 266.258 642.831 266.258" stroke="#56B4E9" stroke-width="2.6027" stroke-linejoin="round" stroke-miterlimit="10" fill="none" transform="matrix(1 0 0 1.00024 666 9)"/><path d="M625.944 266.258 642.831 266.258" stroke="#000000" stroke-width="5.47423" stroke-linejoin="round" stroke-miterlimit="10" fill="none" transform="matrix(1 0 0 1.00024 666 9)"/><path d="M625.944 266.258 642.831 266.258" stroke="#56B4E9" stroke-width="2.87153" stroke-linejoin="round" stroke-miterlimit="10" fill="none" transform="matrix(1 0 0 1.00024 666 9)"/><path d="M623.83 276.815 644.945 276.815 644.945 297.93 623.83 297.93Z" fill="#FFFFFF" transform="matrix(1 0 0 1.00024 666 9)"/><path d="M625.944 287.373 642.831 287.373" stroke="#E69F00" stroke-width="2.6027" stroke-linejoin="round" stroke-miterlimit="10" fill="none" transform="matrix(1 0 0 1.00024 666 9)"/><path d="M625.944 287.373 642.831 287.373" stroke="#000000" stroke-width="5.47423" stroke-linejoin="round" stroke-miterlimit="10" fill="none" transform="matrix(1 0 0 1.00024 666 9)"/><path d="M625.944 287.373 642.831 287.373" stroke="#E69F00" stroke-width="2.87153" stroke-linejoin="round" stroke-miterlimit="10" fill="none" transform="matrix(1 0 0 1.00024 666 9)"/><text font-family="Arial,Arial_MSFontService,sans-serif" font-weight="400" font-size="8.8" transform="matrix(1.22193 0 0 1.22222 1317.64 258)">Hunting</text><text font-family="Arial,Arial_MSFontService,sans-serif" font-weight="400" font-size="8.8" transform="matrix(1.22193 0 0 1.22222 1317.64 279)">Other</text><text font-family="Arial,Arial_MSFontService,sans-serif" font-weight="400" font-size="8.8" transform="matrix(1.22193 0 0 1.22222 1317.64 300)">Territory</text></g></g></g></g><g clip-path="url(#clip7)"><g clip-path="url(#clip8)"><g clip-path="url(#clip9)"><path d="M0 0 754.301 0 754.301 502.867 0 502.867Z" fill="#FFFFFF" transform="matrix(1 0 0 1.01589 85.699 513)"/><g><path d="M0 0 754.301 0 754.301 502.867 0 502.867Z" stroke="#FFFFFF" stroke-width="1.24553" stroke-linecap="round" stroke-linejoin="round" stroke-miterlimit="10" fill="#FFFFFF" transform="matrix(1 0 0 1.01589 85.699 513)"/></g><g><path d="M62.032 456.282 62.032 52.0095" stroke="#000000" stroke-width="1.24553" stroke-linecap="square" stroke-linejoin="round" stroke-miterlimit="10" fill="none" transform="matrix(1 0 0 1.01589 85.699 513)"/><text font-family="Arial,Arial_MSFontService,sans-serif" font-weight="400" font-size="13" transform="matrix(1.16404 0 0 1.18254 112.54 982)">0</text><text font-family="Arial,Arial_MSFontService,sans-serif" font-weight="400" font-size="13" transform="matrix(1.16404 0 0 1.18254 120.956 982)">.</text><text font-family="Arial,Arial_MSFontService,sans-serif" font-weight="400" font-size="13" transform="matrix(1.16404 0 0 1.18254 125.16 982)">00</text><text font-family="Arial,Arial_MSFontService,sans-serif" font-weight="400" font-size="13" transform="matrix(1.16404 0 0 1.18254 112.54 879)">0</text><text font-family="Arial,Arial_MSFontService,sans-serif" font-weight="400" font-size="13" transform="matrix(1.16404 0 0 1.18254 120.956 879)">.</text><text font-family="Arial,Arial_MSFontService,sans-serif" font-weight="400" font-size="13" transform="matrix(1.16404 0 0 1.18254 125.16 879)">25</text><text font-family="Arial,Arial_MSFontService,sans-serif" font-weight="400" font-size="13" transform="matrix(1.16404 0 0 1.18254 112.54 777)">0</text><text font-family="Arial,Arial_MSFontService,sans-serif" font-weight="400" font-size="13" transform="matrix(1.16404 0 0 1.18254 120.956 777)">.</text><text font-family="Arial,Arial_MSFontService,sans-serif" font-weight="400" font-size="13" transform="matrix(1.16404 0 0 1.18254 125.16 777)">50</text><text font-family="Arial,Arial_MSFontService,sans-serif" font-weight="400" font-size="13" transform="matrix(1.16404 0 0 1.18254 112.54 674)">0</text><text font-family="Arial,Arial_MSFontService,sans-serif" font-weight="400" font-size="13" transform="matrix(1.16404 0 0 1.18254 120.956 674)">.</text><text font-family="Arial,Arial_MSFontService,sans-serif" font-weight="400" font-size="13" transform="matrix(1.16404 0 0 1.18254 125.16 674)">75</text><text font-family="Arial,Arial_MSFontService,sans-serif" font-weight="400" font-size="13" transform="matrix(1.16404 0 0 1.18254 112.54 571)">1</text><text font-family="Arial,Arial_MSFontService,sans-serif" font-weight="400" font-size="13" transform="matrix(1.16404 0 0 1.18254 120.956 571)">.</text><text font-family="Arial,Arial_MSFontService,sans-serif" font-weight="400" font-size="13" transform="matrix(1.16404 0 0 1.18254 125.16 571)">00</text><path d="M58.8425 456.282 62.032 456.282" stroke="#000000" stroke-width="1.24553" stroke-linejoin="round" stroke-miterlimit="10" fill="none" transform="matrix(1 0 0 1.01589 85.699 513)"/><path d="M58.8425 355.208 62.032 355.208" stroke="#000000" stroke-width="1.24553" stroke-linejoin="round" stroke-miterlimit="10" fill="none" transform="matrix(1 0 0 1.01589 85.699 513)"/><path d="M58.8425 254.146 62.032 254.146" stroke="#000000" stroke-width="1.24553" stroke-linejoin="round" stroke-miterlimit="10" fill="none" transform="matrix(1 0 0 1.01589 85.699 513)"/><path d="M58.8425 153.072 62.032 153.072" stroke="#000000" stroke-width="1.24553" stroke-linejoin="round" stroke-miterlimit="10" fill="none" transform="matrix(1 0 0 1.01589 85.699 513)"/><path d="M58.8425 52.0095 62.032 52.0095" stroke="#000000" stroke-width="1.24553" stroke-linejoin="round" stroke-miterlimit="10" fill="none" transform="matrix(1 0 0 1.01589 85.699 513)"/><path d="M62.032 456.282 747.922 456.282" stroke="#000000" stroke-width="1.24553" stroke-linecap="square" stroke-linejoin="round" stroke-miterlimit="10" fill="none" transform="matrix(1 0 0 1.01589 85.699 513)"/><path d="M112.214 459.472 112.214 456.282" stroke="#000000" stroke-width="1.24553" stroke-linejoin="round" stroke-miterlimit="10" fill="none" transform="matrix(1 0 0 1.01589 85.699 513)"/><path d="M195.862 459.472 195.862 456.282" stroke="#000000" stroke-width="1.24553" stroke-linejoin="round" stroke-miterlimit="10" fill="none" transform="matrix(1 0 0 1.01589 85.699 513)"/><path d="M279.51 459.472 279.51 456.282" stroke="#000000" stroke-width="1.24553" stroke-linejoin="round" stroke-miterlimit="10" fill="none" transform="matrix(1 0 0 1.01589 85.699 513)"/><path d="M363.159 459.472 363.159 456.282" stroke="#000000" stroke-width="1.24553" stroke-linejoin="round" stroke-miterlimit="10" fill="none" transform="matrix(1 0 0 1.01589 85.699 513)"/><path d="M446.795 459.472 446.795 456.282" stroke="#000000" stroke-width="1.24553" stroke-linejoin="round" stroke-miterlimit="10" fill="none" transform="matrix(1 0 0 1.01589 85.699 513)"/><path d="M530.444 459.472 530.444 456.282" stroke="#000000" stroke-width="1.24553" stroke-linejoin="round" stroke-miterlimit="10" fill="none" transform="matrix(1 0 0 1.01589 85.699 513)"/><path d="M614.092 459.472 614.092 456.282" stroke="#000000" stroke-width="1.24553" stroke-linejoin="round" stroke-miterlimit="10" fill="none" transform="matrix(1 0 0 1.01589 85.699 513)"/><path d="M697.74 459.472 697.74 456.282" stroke="#000000" stroke-width="1.24553" stroke-linejoin="round" stroke-miterlimit="10" fill="none" transform="matrix(1 0 0 1.01589 85.699 513)"/><text font-family="Arial,Arial_MSFontService,sans-serif" font-weight="400" font-size="13" transform="matrix(1.16404 0 0 1.18254 193.705 993)">8</text><text font-family="Arial,Arial_MSFontService,sans-serif" font-weight="400" font-size="13" transform="matrix(1.16404 0 0 1.18254 277.353 993)">9</text><text font-family="Arial,Arial_MSFontService,sans-serif" font-weight="400" font-size="13" transform="matrix(1.16404 0 0 1.18254 356.793 993)">10</text><text font-family="Arial,Arial_MSFontService,sans-serif" font-weight="400" font-size="13" transform="matrix(1.16404 0 0 1.18254 441.003 993)">11</text><text font-family="Arial,Arial_MSFontService,sans-serif" font-weight="400" font-size="13" transform="matrix(1.16404 0 0 1.18254 524.078 993)">12</text><text font-family="Arial,Arial_MSFontService,sans-serif" font-weight="400" font-size="13" transform="matrix(1.16404 0 0 1.18254 611.935 993)">1</text><text font-family="Arial,Arial_MSFontService,sans-serif" font-weight="400" font-size="13" transform="matrix(1.16404 0 0 1.18254 695.583 993)">2</text><text font-family="Arial,Arial_MSFontService,sans-serif" font-weight="400" font-size="13" transform="matrix(1.16404 0 0 1.18254 779.231 993)">3</text><text font-family="Arial,Arial_MSFontService,sans-serif" font-weight="400" font-size="16" transform="matrix(1.16404 0 0 1.18254 464.788 1013)">Month</text><text font-family="Arial,Arial_MSFontService,sans-serif" font-weight="400" font-size="16" transform="matrix(7.12772e-17 -1.18254 1.16404 7.24095e-17 105.406 848)">Porportion of days</text><path d="M409.36 6.37897 747.922 6.37897 747.922 39.2516 409.36 39.2516Z" fill="#FFFFFF" transform="matrix(1 0 0 1.01589 85.699 513)"/><text font-family="Arial,Arial_MSFontService,sans-serif" font-weight="400" font-size="16" transform="matrix(1.16404 0 0 1.18254 501.438 543)">Decision</text><path d="M493.602 12.7579 513.716 12.7579 513.716 32.8726 493.602 32.8726Z" fill="#FFFFFF" transform="matrix(1 0 0 1.01589 85.699 513)"/><path d="M495.615 22.8153 511.702 22.8153" stroke="#0072B2" stroke-width="2.47942" stroke-linejoin="round" stroke-miterlimit="10" fill="none" transform="matrix(1 0 0 1.01589 85.699 513)"/><path d="M495.615 22.8153 511.702 22.8153" stroke="#000000" stroke-width="5.21492" stroke-linejoin="round" stroke-miterlimit="10" fill="none" transform="matrix(1 0 0 1.01589 85.699 513)"/><path d="M495.615 22.8153 511.702 22.8153" stroke="#0072B2" stroke-width="2.73551" stroke-linejoin="round" stroke-miterlimit="10" fill="none" transform="matrix(1 0 0 1.01589 85.699 513)"/><path d="M582.616 12.7579 602.731 12.7579 602.731 32.8726 582.616 32.8726Z" fill="#FFFFFF" transform="matrix(1 0 0 1.01589 85.699 513)"/><path d="M584.63 22.8153 600.717 22.8153" stroke="#56B4E9" stroke-width="2.47942" stroke-linejoin="round" stroke-miterlimit="10" fill="none" transform="matrix(1 0 0 1.01589 85.699 513)"/><path d="M584.63 22.8153 600.717 22.8153" stroke="#000000" stroke-width="5.21492" stroke-linejoin="round" stroke-miterlimit="10" fill="none" transform="matrix(1 0 0 1.01589 85.699 513)"/><path d="M584.63 22.8153 600.717 22.8153" stroke="#56B4E9" stroke-width="2.73551" stroke-linejoin="round" stroke-miterlimit="10" fill="none" transform="matrix(1 0 0 1.01589 85.699 513)"/><path d="M656.23 12.7579 676.345 12.7579 676.345 32.8726 656.23 32.8726Z" fill="#FFFFFF" transform="matrix(1 0 0 1.01589 85.699 513)"/><path d="M658.244 22.8153 674.331 22.8153" stroke="#E69F00" stroke-width="2.47942" stroke-linejoin="round" stroke-miterlimit="10" fill="none" transform="matrix(1 0 0 1.01589 85.699 513)"/><path d="M658.244 22.8153 674.331 22.8153" stroke="#000000" stroke-width="5.21492" stroke-linejoin="round" stroke-miterlimit="10" fill="none" transform="matrix(1 0 0 1.01589 85.699 513)"/><path d="M658.244 22.8153 674.331 22.8153" stroke="#E69F00" stroke-width="2.73551" stroke-linejoin="round" stroke-miterlimit="10" fill="none" transform="matrix(1 0 0 1.01589 85.699 513)"/><text font-family="Arial,Arial_MSFontService,sans-serif" font-weight="400" font-size="14" transform="matrix(1.16404 0 0 1.18254 605.794 542)">Hunting</text><text font-family="Arial,Arial_MSFontService,sans-serif" font-weight="400" font-size="14" transform="matrix(1.16404 0 0 1.18254 694.809 542)">Other</text><text font-family="Arial,Arial_MSFontService,sans-serif" font-weight="400" font-size="14" transform="matrix(1.16404 0 0 1.18254 768.423 542)">Territory</text></g></g></g></g></g></svg>